<?xml version="1.0" standalone="no"?>
<!DOCTYPE svg PUBLIC "-//W3C//DTD SVG 1.1//EN" "http://www.w3.org/Graphics/SVG/1.1/DTD/svg11.dtd" >
<svg>
<metadata>
Created by FontForge 20090914 at Sat Dec 26 18:34:46 2020
 By www-data
Copyright (c) 2012 by Brian J. Bonislawsky DBA Astigmatic (AOETI) (astigma@astigmatic.com), with ReservedFont Name "Audiowide"
</metadata>
<defs>
<font id="Audiowide-Regular" horiz-adv-x="1338" >
  <font-face 
    font-family="Audiowide"
    font-weight="400"
    font-stretch="normal"
    units-per-em="2048"
    panose-1="2 0 5 3 0 0 0 2 0 4"
    ascent="1638"
    descent="-410"
    x-height="1081"
    cap-height="1434"
    bbox="-447 -584.001 2699 2027"
    underline-thickness="102"
    underline-position="-103"
    unicode-range="U+0020-U+FB02"
  />
<missing-glyph horiz-adv-x="666" 
 />
    <glyph glyph-name="fi" unicode="fi" horiz-adv-x="1580" 
d="M1079 1290h-586c-35.333 0 -62 -8.83301 -80 -26.5s-27 -43.5 -27 -77.5v-1186h-260v1186c0 44.667 5.66699 84.667 17 120s26.5 66.5 45.5 93.5s40.833 50 65.5 69s50.5 34.5 77.5 46.5s54.167 20.833 81.5 26.5s53.333 8.5 78 8.5h588v-260zM1453 0h-260l-2 821h-700
v260h964zM1453 1290h-260v256h260v-256z" />
    <glyph glyph-name="fl" unicode="fl" horiz-adv-x="1709" 
d="M1664 0l-116.001 0.000976562c-37.333 0 -77.166 6.33301 -119.499 19s-81.833 33.5 -118.5 62.5s-67 66.667 -91 113s-36 103.166 -36 170.499v925h-690c-35.333 0 -62 -8.83301 -80 -26.5s-27 -43.5 -27 -77.5v-1186h-260v1186c0 44.667 5.66699 84.667 17 120
s26.5 66.5 45.5 93.5s40.833 50 65.5 69s50.5 34.5 77.5 46.5s54.167 20.833 81.5 26.5s53.333 8.5 78 8.5h954l-2 -1185c0 -32 10 -57.5 30 -76.5s45 -28.5 75 -28.5h116v-260zM934.999 821.001h-444v260h444v-260z" />
    <glyph glyph-name=".notdef" horiz-adv-x="666" 
 />
    <glyph glyph-name="space" unicode=" " horiz-adv-x="666" 
 />
    <glyph glyph-name="exclam" unicode="!" horiz-adv-x="533" 
d="M356 352h-179l-61 1082h301zM397 131c0 -18 -3.5 -34.833 -10.5 -50.5s-16.333 -29.334 -28 -41.001s-25.334 -20.834 -41.001 -27.501s-32.167 -10 -49.5 -10c-18 0 -34.833 3.33301 -50.5 10s-29.334 15.834 -41.001 27.501s-20.834 25.334 -27.501 41.001
s-10 32.5 -10 50.5c0 17.333 3.33301 33.833 10 49.5s15.834 29.334 27.501 41.001s25.334 21 41.001 28s32.5 10.5 50.5 10.5c17.333 0 33.833 -3.5 49.5 -10.5s29.334 -16.333 41.001 -28s21 -25.334 28 -41.001s10.5 -32.167 10.5 -49.5z" />
    <glyph glyph-name="quotedbl" unicode="&#x22;" horiz-adv-x="783" 
d="M300 870h-166l-38 504h245zM648 870h-165l-39 504h245z" />
    <glyph glyph-name="numbersign" unicode="#" horiz-adv-x="1494" 
d="M239 1044h215l74 330h243l-73 -330h250l73 330h244l-74 -330h230l-52 -233h-229l-53 -244h221l-51 -233h-221l-74 -334h-244l74 334h-250l-74 -334h-243l73 334h-227l55 233h223l54 244h-219zM593 567h250l53 244h-250z" />
    <glyph glyph-name="dollar" unicode="$" horiz-adv-x="1088" 
d="M1013 717c0 -62 -5.83496 -116.499 -17.502 -163.499s-27.167 -88 -46.5 -123s-41.333 -64.167 -66 -87.5s-50 -42 -76 -56s-51.667 -24 -77 -30s-48.333 -9 -69 -9v-248h-234v248h-235v233h467c4.66699 0 11.5 1.33301 20.5 4s18.833 8.16699 29.5 16.5s21 20.333 31 36
s18.333 36.5 25 62.5h-573c-16 0 -31.167 3 -45.5 9s-26.666 14.167 -36.999 24.5s-18.666 22.666 -24.999 36.999s-9.5 29.833 -9.5 46.5c0 57.333 5 107.833 15 151.5s23 81.667 39 114s33.667 59.5 53 81.5s38.333 40 57 54c21.333 16.667 42.5 29.5 63.5 38.5
s40 15.667 57 20s31.5 7 43.5 8s20 1.5 24 1.5v248h234v-248h235v-234h-467c-4 0 -10.5 -1.33301 -19.5 -4s-18.833 -8 -29.5 -16s-21.167 -19.833 -31.5 -35.5s-18.833 -36.5 -25.5 -62.5h573c16.667 0 32 -3 46 -9s26.333 -14.333 37 -25s19 -23.167 25 -37.5
s9 -29.5 9 -45.5z" />
    <glyph glyph-name="percent" unicode="%" horiz-adv-x="1774" 
d="M1695 365c0 -46.667 -8.83301 -90.5 -26.5 -131.5s-41.834 -76.833 -72.501 -107.5s-66.5 -54.834 -107.5 -72.501s-84.833 -26.5 -131.5 -26.5c-47.333 0 -91.5 8.83301 -132.5 26.5s-77 41.834 -108 72.501s-55.333 66.5 -73 107.5s-26.5 84.833 -26.5 131.5
s8.83301 90.5 26.5 131.5s42 77 73 108s67 55.5 108 73.5s85.167 27 132.5 27c46.667 0 90.5 -9 131.5 -27s76.833 -42.5 107.5 -73.5s54.834 -67 72.501 -108s26.5 -84.833 26.5 -131.5zM1367 1303l-737 -1291h-240l738 1291h239zM757 952
c0 -47.333 -8.83301 -91.5 -26.5 -132.5s-42 -77 -73 -108s-67.167 -55.333 -108.5 -73s-85.333 -26.5 -132 -26.5s-90.5 8.83301 -131.5 26.5s-76.833 42 -107.5 73s-54.834 67 -72.501 108s-26.5 85.167 -26.5 132.5c0 46.667 8.83301 90.5 26.5 131.5
s41.834 76.833 72.501 107.5s66.5 54.834 107.5 72.501s84.833 26.5 131.5 26.5s90.667 -8.83301 132 -26.5s77.5 -41.834 108.5 -72.501s55.333 -66.5 73 -107.5s26.5 -84.833 26.5 -131.5zM1486 365c0 18 -3.33301 34.833 -10 50.5s-15.834 29.5 -27.501 41.5
s-25.334 21.5 -41.001 28.5s-32.5 10.5 -50.5 10.5s-35 -3.5 -51 -10.5s-29.833 -16.5 -41.5 -28.5s-21 -25.833 -28 -41.5s-10.5 -32.5 -10.5 -50.5s3.5 -34.833 10.5 -50.5s16.333 -29.334 28 -41.001s25.5 -20.834 41.5 -27.501s33 -10 51 -10s34.833 3.33301 50.5 10
s29.334 15.834 41.001 27.501s20.834 25.334 27.501 41.001s10 32.5 10 50.5zM548 952c0 18 -3.33301 34.833 -10 50.5s-15.834 29.334 -27.501 41.001s-25.5 20.834 -41.5 27.501s-33.333 10 -52 10c-18 0 -34.833 -3.33301 -50.5 -10s-29.334 -15.834 -41.001 -27.501
s-20.834 -25.334 -27.501 -41.001s-10 -32.5 -10 -50.5s3.33301 -35 10 -51s15.834 -30 27.501 -42s25.334 -21.333 41.001 -28s32.5 -10 50.5 -10c18.667 0 36 3.33301 52 10s29.833 16 41.5 28s20.834 26 27.501 42s10 33 10 51z" />
    <glyph glyph-name="ampersand" unicode="&#x26;" horiz-adv-x="1375" 
d="M1298 365l-117.003 -0.000976562l-2 -3c0 -42.667 -5.5 -81 -16.5 -115s-25.5 -63.833 -43.5 -89.5s-39 -47.834 -63 -66.501s-48.833 -33.834 -74.5 -45.501s-51.667 -20.167 -78 -25.5s-51.166 -8 -74.499 -8h-353c-62 0 -114.833 11.667 -158.5 35
s-79.667 52.333 -108 87s-49.333 72.334 -63 113.001s-21.167 78.334 -22.5 113.001v121c0 52.667 7.5 98.167 22.5 136.5s34.833 71.5 59.5 99.5c-28.667 36 -49.5 75 -62.5 117s-19.5 81.333 -19.5 118c0 64.667 11.667 119.334 35 164.001s52.666 80.834 87.999 108.501
s73.5 47.667 114.5 60s79.167 18.5 114.5 18.5h586v-234h-586c-18 0 -34.167 -2.83301 -48.5 -8.5s-26.666 -13.834 -36.999 -24.501s-18.166 -23.167 -23.499 -37.5s-7.66602 -29.833 -6.99902 -46.5c0 -38 10.667 -67.167 32 -87.5s49.333 -30.5 84 -30.5h353v-234h-353
c-36.667 0 -65.167 -11.333 -85.5 -34s-30.5 -51 -30.5 -85v-112c0 -36 10.833 -65.167 32.5 -87.5s49.5 -33.5 83.5 -33.5h351c36.667 0 65.5 11 86.5 33s31.5 50 31.5 84c0 28.667 5 57 15 85s25 53.167 45 75.5s44.5 40.333 73.5 54s62.5 20.5 100.5 20.5h119v-235z" />
    <glyph glyph-name="quotesingle" unicode="'" horiz-adv-x="435" 
d="M300 870h-166l-38 504h245z" />
    <glyph glyph-name="parenleft" unicode="(" horiz-adv-x="875" 
d="M861 1655l-92 -92.001c-0.666992 -0.666992 -11.834 -12.5 -33.501 -35.5s-48.5 -54.5 -80.5 -94.5s-66.5 -87 -103.5 -141s-71.5 -112.167 -103.5 -174.5s-58.5 -127.666 -79.5 -195.999s-31.5 -136.5 -31.5 -204.5c0 -68.667 10.5 -137 31.5 -205
s47.5 -133.167 79.5 -195.5s66.5 -120.5 103.5 -174.5s71.5 -101 103.5 -141s58.833 -71.5 80.5 -94.5s32.834 -34.833 33.501 -35.5l92 -92h-360c-24 28 -51.167 61.5 -81.5 100.5s-61.166 82.5 -92.499 130.5s-62 99.5 -92 154.5s-56.667 112.667 -80 173
s-42.166 122.333 -56.499 186s-21.5 128.167 -21.5 193.5s7.16699 129.833 21.5 193.5s33.166 125.667 56.499 186s50 118 80 173s60.667 106.5 92 154.5s62.166 91.5 92.499 130.5s57.5 72.5 81.5 100.5h360z" />
    <glyph glyph-name="parenright" unicode=")" horiz-adv-x="875" 
d="M798 717c0 -65.333 -7.16699 -129.831 -21.5 -193.498s-33.166 -125.667 -56.499 -186s-50 -118 -80 -173s-60.833 -106.5 -92.5 -154.5s-62.5 -91.5 -92.5 -130.5s-57 -72.5 -81 -100.5h-360l92 92c0.666992 0.666992 11.667 12.5 33 35.5s48 54.5 80 94.5
s66.5 87 103.5 141s71.333 112.167 103 174.5s58 127.666 79 195.999s31.5 136.5 31.5 204.5s-10.5 136.167 -31.5 204.5s-47.333 133.666 -79 195.999s-66 120.5 -103 174.5s-71.5 101 -103.5 141s-58.667 71.5 -80 94.5s-32.333 34.833 -33 35.5l-92 92h360
c24 -28 51 -61.5 81 -100.5s60.833 -82.5 92.5 -130.5s62.5 -99.5 92.5 -154.5s56.667 -112.667 80 -173s42.166 -122.333 56.499 -186s21.5 -128.167 21.5 -193.5z" />
    <glyph glyph-name="asterisk" unicode="*" horiz-adv-x="1111" 
d="M452 1176v258h209v-256l196 141l123 -170l-245 -176l245 -176l-123 -170l-196 141v-256h-209v256l-199 -141l-121 170l244 176l-244 176l121 170z" />
    <glyph glyph-name="plus" unicode="+" horiz-adv-x="1104" 
d="M1021 600h-352v-352h-233v352h-353v234h353v352h233v-352h352v-234z" />
    <glyph glyph-name="comma" unicode="," horiz-adv-x="461" 
d="M229 -184h-183l93 503h245z" />
    <glyph glyph-name="hyphen" unicode="-" horiz-adv-x="1170" 
d="M1054 600h-938v234h938v-234z" />
    <glyph glyph-name="period" unicode="." horiz-adv-x="420" 
d="M339 131c0 -18 -3.5 -34.833 -10.5 -50.5s-16.333 -29.334 -28 -41.001s-25.334 -20.834 -41.001 -27.501s-32.167 -10 -49.5 -10c-18 0 -34.833 3.33301 -50.5 10s-29.334 15.834 -41.001 27.501s-20.834 25.334 -27.501 41.001s-10 32.5 -10 50.5
c0 17.333 3.33301 33.833 10 49.5s15.834 29.334 27.501 41.001s25.334 21 41.001 28s32.5 10.5 50.5 10.5c17.333 0 33.833 -3.5 49.5 -10.5s29.334 -16.333 41.001 -28s21 -25.334 28 -41.001s10.5 -32.167 10.5 -49.5z" />
    <glyph glyph-name="slash" unicode="/" horiz-adv-x="1350" 
d="M1269 1434l-905 -1434h-279l906 1434h278z" />
    <glyph glyph-name="zero" unicode="0" horiz-adv-x="1895" 
d="M1783 600c0 -58.667 -7.5 -114.167 -22.5 -166.5s-36.167 -100.833 -63.5 -145.5s-59.666 -84.667 -96.999 -120s-78.166 -65.5 -122.499 -90.5s-91.5 -44.167 -141.5 -57.5s-101 -20 -153 -20h-469c-52.667 0 -104 6.66699 -154 20s-97.167 32.5 -141.5 57.5
s-85.166 55.167 -122.499 90.5s-69.5 75.333 -96.5 120s-48 93.167 -63 145.5s-22.5 107.833 -22.5 166.5v234c0 88 16.5 168.667 49.5 242s77.167 136.5 132.5 189.5s119.166 94.333 191.499 124s147.833 44.5 226.5 44.5h469c52 0 103 -6.66699 153 -20
s97.167 -32.5 141.5 -57.5s85.166 -55.167 122.499 -90.5s69.666 -75.333 96.999 -120s48.5 -93.167 63.5 -145.5s22.5 -107.833 22.5 -166.5v-234zM1521 834c0 51.333 -9.33203 98.001 -27.999 140.001s-43.5 78 -74.5 108s-66.833 53 -107.5 69
s-83.334 23.667 -128.001 23h-469c-43.333 0.666992 -85.5 -6.83301 -126.5 -22.5s-77.333 -38.334 -109 -68.001s-57 -65.667 -76 -108s-28.5 -89.5 -28.5 -141.5v-234c0 -52 9.33301 -99 28 -141s43.667 -77.833 75 -107.5s67.5 -52.5 108.5 -68.5
s83.833 -23.667 128.5 -23h469c51.333 0 97.833 8.5 139.5 25.5s77.167 40.5 106.5 70.5s52 65.833 68 107.5s24 87.167 24 136.5v234zM1408 1024c10 -14.667 16.668 -30.501 20.001 -47.501s3.33301 -33.667 0 -50s-9.83301 -31.666 -19.5 -45.999
s-22.167 -26.5 -37.5 -36.5l-702 -469c-11.333 -8.66699 -23 -14.667 -35 -18s-24.333 -5 -37 -5c-21.333 0 -41.666 5 -60.999 15s-35 24.333 -47 43c-10 14.667 -16.667 30.5 -20 47.5s-3.5 33.667 -0.5 50s9.16699 31.666 18.5 45.999s21.666 26.5 36.999 36.5l704 469
c14.667 10 30.5 16.667 47.5 20s33.667 3.33301 50 0s31.666 -9.66602 45.999 -18.999s26.5 -21.333 36.5 -36z" />
    <glyph glyph-name="one" unicode="1" horiz-adv-x="726" 
d="M567 0h-261v1174h-235v260h496v-1434z" />
    <glyph glyph-name="two" unicode="2" horiz-adv-x="1541" 
d="M1423 0l-1317 -0.000976562v481c0 24.667 2.83301 50.834 8.5 78.501s14.5 55.167 26.5 82.5s27.5 53.333 46.5 78s42 46.5 69 65.5s58.167 34.167 93.5 45.5s75.333 17 120 17h586c35.333 0 61.5 8.83301 78.5 26.5s25.5 43.5 25.5 77.5v115
c0 35.333 -8.66699 62 -26 80s-42.666 27 -75.999 27h-835v260h835c44 0 83.667 -5.66699 119 -17s66.5 -26.5 93.5 -45.5s50.167 -40.833 69.5 -65.5s35.166 -50.5 47.499 -77.5s21.333 -54.333 27 -82s8.5 -53.5 8.5 -77.5v-117
c0 -67.333 -12.167 -124.166 -36.5 -170.499s-54.833 -84 -91.5 -113s-76.167 -50 -118.5 -63s-81.833 -19.5 -118.5 -19.5h-588c-21.333 0 -38.333 -3 -51 -9s-22.5 -14 -29.5 -24s-12.167 -21.333 -15.5 -34s-6 -25.334 -8 -38.001v-221h1057v-260z" />
    <glyph glyph-name="three" unicode="3" horiz-adv-x="1473" 
d="M1333 365c0 -67.333 -12.167 -124.167 -36.5 -170.5s-54.666 -84 -90.999 -113s-75.833 -49.833 -118.5 -62.5s-82.334 -19 -119.001 -19h-834v260h834c35.333 0 61.5 9 78.5 27s25.5 44 25.5 78v221h-938v262h938v219c0 71.333 -34.667 107 -104 107h-834v260h834
c44.667 0 84.667 -5.66699 120 -17s66.5 -26.5 93.5 -45.5s50.167 -40.833 69.5 -65.5s35 -50.5 47 -77.5s20.833 -54.333 26.5 -82s8.5 -53.5 8.5 -77.5v-704z" />
    <glyph glyph-name="four" unicode="4" horiz-adv-x="1584" 
d="M1425 0h-261.999v586h-924c-18.667 0 -36 3.5 -52 10.5s-29.833 16.333 -41.5 28s-20.834 25.5 -27.501 41.5s-10 33 -10 51v717h260v-586h795v586h262v-1434z" />
    <glyph glyph-name="five" unicode="5" horiz-adv-x="1537" 
d="M1445 365c0 -24.667 -2.83398 -50.6689 -8.50098 -78.002s-14.667 -54.5 -27 -81.5s-28 -52.833 -47 -77.5s-42 -46.5 -69 -65.5s-58.167 -34.167 -93.5 -45.5s-75 -17 -119 -17h-953v260h953c32.667 0 57.834 10 75.501 30s26.5 45 26.5 75v116c0 34 -8.66699 60 -26 78
s-43.333 27 -78 27h-586c-67.333 0 -124.166 12.167 -170.499 36.5s-83.833 54.833 -112.5 91.5s-49.5 76.334 -62.5 119.001s-19.5 82.334 -19.5 119.001v482h1198v-260h-938v-222c0 -34.667 9 -60.667 27 -78s44 -26 78 -26h588c36 0 75.333 -6.5 118 -19.5
s82.167 -34 118.5 -63s66.666 -66.833 90.999 -113.5s36.5 -103.667 36.5 -171v-116z" />
    <glyph glyph-name="six" unicode="6" horiz-adv-x="1524" 
d="M382 848l692 -0.000976562c36.667 0 76.167 -6.5 118.5 -19.5s81.833 -34 118.5 -63s67.167 -66.833 91.5 -113.5s36.5 -103.667 36.5 -171v-116c0 -24.667 -2.83301 -50.667 -8.5 -78s-14.667 -54.5 -27 -81.5s-28 -52.833 -47 -77.5s-42 -46.5 -69 -65.5
s-58.167 -34.167 -93.5 -45.5s-75.333 -17 -120 -17h-471c-32 0 -66.167 3.66699 -102.5 11s-72.166 19.166 -107.499 35.499s-69.5 37 -102.5 62s-61.833 55.333 -86.5 91s-44.5 76.834 -59.5 123.501s-22.5 99.334 -22.5 158.001v471c0 58.667 7.5 111.334 22.5 158.001
s34.833 87.834 59.5 123.501s53.5 66.167 86.5 91.5s67.167 46.166 102.5 62.499s71.166 28.166 107.499 35.499s70.5 11 102.5 11h652v-260h-652c-33.333 -2.66699 -63.5 -9.66699 -90.5 -21s-50.167 -26.333 -69.5 -45s-34.333 -41.167 -45 -67.5s-16 -55.833 -16 -88.5
v-104zM382 585.999l-0.000976562 -105.001c0 -34 5.83301 -64.5 17.5 -91.5s27.5 -50.167 47.5 -69.5s43.5 -34.166 70.5 -44.499s56.167 -15.5 87.5 -15.5h469c33.333 0 58.833 10 76.5 30s26.5 45 26.5 75v116c0 34 -8.66699 60 -26 78s-43.666 27 -78.999 27h-690z" />
    <glyph glyph-name="seven" unicode="7" horiz-adv-x="1313" 
d="M1249 1368c11.333 -20.667 17.002 -42.499 17.002 -65.499s-5.66699 -44.833 -17 -65.5l-721 -1237h-301l682 1174h-842v260h1069c23.333 0 45.166 -5.83301 65.499 -17.5s36.166 -27.834 47.499 -48.501z" />
    <glyph glyph-name="eight" unicode="8" horiz-adv-x="1528" 
d="M1423 365c0 -24.667 -2.83301 -50.668 -8.5 -78.001s-14.667 -54.5 -27 -81.5s-28.166 -52.833 -47.499 -77.5s-42.5 -46.5 -69.5 -65.5s-58.167 -34.167 -93.5 -45.5s-75 -17 -119 -17h-588c-36 0 -75.333 6.33301 -118 19s-82.167 33.5 -118.5 62.5
s-66.666 66.667 -90.999 113s-36.5 103.166 -36.5 170.499v116c0 25.333 2.83301 52 8.5 80s14.667 55.667 27 83s28.166 53.333 47.499 78s42.666 46 69.999 64c-12 28 -21 56.333 -27 85s-9 55.667 -9 81v117c0 66.667 12.167 123.334 36.5 170.001
s54.666 84.334 90.999 113.001s75.833 49.5 118.5 62.5s82 19.5 118 19.5h352c44.667 0 84.834 -5.66699 120.501 -17s67 -26.5 94 -45.5s50 -40.833 69 -65.5s34.5 -50.5 46.5 -77.5s20.833 -54.333 26.5 -82s8.5 -53.5 8.5 -77.5v-117c0 -65.333 -11.667 -122 -35 -170
c21.333 -14 41.333 -30.5 60 -49.5s35 -40.833 49 -65.5s25 -52.5 33 -83.5s12 -65.167 12 -102.5v-116zM1044 1067c0 35.333 -9 62 -27 80s-44 27 -78 27h-350c-35.333 0 -61.5 -9 -78.5 -27s-25.5 -44 -25.5 -78v-117c0 -34.667 8.83301 -60.667 26.5 -78
s42.834 -26 75.501 -26h352c35.333 0 61.666 8.83301 78.999 26.5s26 43.5 26 77.5v115zM1160 480.999c0 33.333 -9.16699 59.167 -27.5 77.5s-43.166 27.5 -74.499 27.5h-588c-32 0 -57.333 -10 -76 -30s-28 -45 -28 -75v-116c0 -32 9.83301 -57.5 29.5 -76.5
s44.5 -28.5 74.5 -28.5h588c33.333 0 58.666 10 75.999 30s26 45 26 75v116z" />
    <glyph glyph-name="nine" unicode="9" horiz-adv-x="1524" 
d="M85 952l-0.000976562 117.002c0 24 2.83301 49.833 8.5 77.5s14.5 55 26.5 82s27.667 52.833 47 77.5s42.5 46.5 69.5 65.5s58.167 34.167 93.5 45.5s75.333 17 120 17h469c32 0 66.333 -3.66699 103 -11s72.834 -19.166 108.501 -35.499s69.834 -37.166 102.501 -62.499
s61.5 -55.833 86.5 -91.5s45 -76.834 60 -123.501s22.5 -99.334 22.5 -158.001v-471c0 -58.667 -7.5 -111.334 -22.5 -158.001s-35 -87.834 -60 -123.501s-53.833 -66 -86.5 -91s-66.834 -45.667 -102.501 -62s-71.834 -28.166 -108.501 -35.499s-71 -11 -103 -11h-649v260
h649c32.667 2.66699 62.5 9.33398 89.5 20.001s50.333 25.167 70 43.5s34.834 40.666 45.501 66.999s16 56.5 16 90.5v105h-690c-24.667 0 -50.667 2.83301 -78 8.5s-54.5 14.667 -81.5 27s-52.833 28 -77.5 47s-46.5 42.167 -65.5 69.5s-34.167 58.666 -45.5 93.999
s-17 75.333 -17 120zM1140 952.002c0 34 -5.66699 64.6689 -17 92.002s-26.833 50.666 -46.5 69.999s-43 34.166 -70 44.499s-56.167 15.5 -87.5 15.5h-469c-32 0 -57.5 -10 -76.5 -30s-28.5 -45 -28.5 -75v-117c0 -34 9 -59.833 27 -77.5s44.667 -26.5 80 -26.5h688v104z
" />
    <glyph glyph-name="colon" unicode=":" horiz-adv-x="498" 
d="M378 131c0 -18 -3.5 -34.833 -10.5 -50.5s-16.333 -29.334 -28 -41.001s-25.334 -20.834 -41.001 -27.501s-32.167 -10 -49.5 -10c-18 0 -34.833 3.33301 -50.5 10s-29.334 15.834 -41.001 27.501s-20.834 25.334 -27.501 41.001s-10 32.5 -10 50.5
c0 17.333 3.33301 33.833 10 49.5s15.834 29.334 27.501 41.001s25.334 21 41.001 28s32.5 10.5 50.5 10.5c17.333 0 33.833 -3.5 49.5 -10.5s29.334 -16.333 41.001 -28s21 -25.334 28 -41.001s10.5 -32.167 10.5 -49.5zM378 950c0 -18 -3.5 -34.833 -10.5 -50.5
s-16.333 -29.334 -28 -41.001s-25.334 -20.834 -41.001 -27.501s-32.167 -10 -49.5 -10c-18 0 -34.833 3.33301 -50.5 10s-29.334 15.834 -41.001 27.501s-20.834 25.334 -27.501 41.001s-10 32.5 -10 50.5c0 17.333 3.33301 33.833 10 49.5s15.834 29.334 27.501 41.001
s25.334 21 41.001 28s32.5 10.5 50.5 10.5c17.333 0 33.833 -3.5 49.5 -10.5s29.334 -16.333 41.001 -28s21 -25.334 28 -41.001s10.5 -32.167 10.5 -49.5z" />
    <glyph glyph-name="semicolon" unicode=";" horiz-adv-x="515" 
d="M401 950c0 -18 -3.5 -34.833 -10.5 -50.5s-16.333 -29.334 -28 -41.001s-25.334 -20.834 -41.001 -27.501s-32.167 -10 -49.5 -10c-18 0 -34.833 3.33301 -50.5 10s-29.334 15.834 -41.001 27.501s-20.834 25.334 -27.501 41.001s-10 32.5 -10 50.5
c0 17.333 3.33301 33.833 10 49.5s15.834 29.334 27.501 41.001s25.334 21 41.001 28s32.5 10.5 50.5 10.5c17.333 0 33.833 -3.5 49.5 -10.5s29.334 -16.333 41.001 -28s21 -25.334 28 -41.001s10.5 -32.167 10.5 -49.5zM243 -184h-182l92 503h246z" />
    <glyph glyph-name="less" unicode="&#x3c;" horiz-adv-x="1076" 
d="M974 1253l-596 -534.002l596 -522h-375l-483 424c-30 24.667 -45 57.334 -45 98.001c0 18.667 3.83301 36.334 11.5 53.001s18.167 31 31.5 43l489 438h371z" />
    <glyph glyph-name="equal" unicode="=" horiz-adv-x="1211" 
d="M1074 834h-938v235h938v-235zM1074 365h-938v235h938v-235z" />
    <glyph glyph-name="greater" unicode="&#x3e;" horiz-adv-x="1076" 
d="M472 1253l490 -437.999c13.333 -12 23.833 -26.333 31.5 -43s11.5 -34.334 11.5 -53.001c0 -19.333 -4 -37.5 -12 -54.5s-19 -31.5 -33 -43.5l-484 -424h-374l596 522l-596 534h370z" />
    <glyph glyph-name="question" unicode="?" horiz-adv-x="1363" 
d="M1277 952c0 -36.667 -6.33594 -76.3301 -19.0029 -118.997s-33.5 -82.334 -62.5 -119.001s-66.667 -67.167 -113 -91.5s-102.833 -36.5 -169.5 -36.5h-221v-234h-261v365c0 18 3.33301 34.833 10 50.5s15.834 29.5 27.501 41.5s25.334 21.5 41.001 28.5
s32.5 10.5 50.5 10.5h353c34 0 59.833 8.66699 77.5 26s26.5 43.333 26.5 78v117c0 34 -8.66699 60 -26 78s-43.333 27 -78 27h-834v260h834c36.667 0 76.334 -6.5 119.001 -19.5s82.167 -33.833 118.5 -62.5s66.5 -66.334 90.5 -113.001s36 -103.334 36 -170.001v-117z
M688.997 131.004c0 -18 -3.33301 -34.833 -10 -50.5s-15.834 -29.334 -27.501 -41.001s-25.334 -20.834 -41.001 -27.501s-32.5 -10 -50.5 -10c-17.333 0 -33.833 3.33301 -49.5 10s-29.334 15.834 -41.001 27.501s-21 25.334 -28 41.001s-10.5 32.5 -10.5 50.5
c0 17.333 3.5 33.833 10.5 49.5s16.333 29.334 28 41.001s25.334 21 41.001 28s32.167 10.5 49.5 10.5c18 0 34.833 -3.5 50.5 -10.5s29.334 -16.333 41.001 -28s20.834 -25.334 27.501 -41.001s10 -32.167 10 -49.5z" />
    <glyph glyph-name="at" unicode="@" horiz-adv-x="1354" 
d="M1247 440c0 -20.667 -3.66309 -42.999 -10.9961 -66.999s-19.333 -46.333 -36 -67s-38.334 -38 -65.001 -52s-59 -21 -97 -21h-469c-21.333 0 -44 3.66699 -68 11s-46.333 19.333 -67 36s-37.834 38 -51.501 64s-20.5 58 -20.5 96c0 20.667 3.66699 43.334 11 68.001
s19.166 47.334 35.499 68.001s37.666 38 63.999 52s58.5 21 96.5 21h209v-182h-209c-2 0 -4.33301 -0.166992 -7 -0.5s-5.33398 -1.33301 -8.00098 -3s-5 -4.33398 -7 -8.00098s-3 -8.83398 -3 -15.501c0 -9.33301 2.66699 -15.666 8 -18.999s11.666 -5 18.999 -5h241
c5.33301 0 9.83301 1.83301 13.5 5.5s5.5 10.5 5.5 20.5v234c0 6 -1.16699 11.833 -3.5 17.5s-10.833 8.5 -25.5 8.5h-336v183h338c20.667 0 43.334 -3.66699 68.001 -11s47.334 -19.333 68.001 -36s38 -38.334 52 -65.001s21 -59 21 -97v-236c0 -4 -0.333008 -8 -1 -12
s-1 -8 -1 -12h27c7.33301 0 13.5 1 18.5 3s7.5 9.66699 7.5 23v351c0 22 -3.66699 41.833 -11 59.5s-17.333 32.667 -30 45s-27.667 21.833 -45 28.5s-36.333 10 -57 10h-469c-22 0 -41.833 -3.66699 -59.5 -11s-32.667 -17.5 -45 -30.5s-21.833 -28.167 -28.5 -45.5
s-10 -36 -10 -56v-469c0 -21.333 3.66699 -40.833 11 -58.5s17.5 -32.834 30.5 -45.501s28.167 -22.5 45.5 -29.5s36 -10.5 56 -10.5h117v-182h-117c-32.667 0 -68 5.66699 -106 17s-73.333 30 -106 56s-59.834 59.667 -81.501 101s-32.5 92 -32.5 152v469
c0 32.667 5.66699 68 17 106s30 73.167 56 105.5s59.667 59.333 101 81s92 32.5 152 32.5h469c32.667 0 68 -5.66699 106 -17s73.333 -29.833 106 -55.5s59.834 -59.167 81.501 -100.5s32.5 -92 32.5 -152v-353z" />
    <glyph glyph-name="A" unicode="A" horiz-adv-x="1709" 
d="M1558 0l-259.999 0.000976562v352h-914v-352h-260v717c0 104.667 18 201 54 289s86 163.667 150 227s139.667 112.666 227 147.999s182.666 53 285.999 53h586c18 0 35 -3.33301 51 -10s30 -16 42 -28s21.333 -26 28 -42s10 -33 10 -51v-1303zM384.001 612.001
l913.999 -0.00195312v562h-457c-8 0 -24.833 -1.16699 -50.5 -3.5s-55.334 -8.16602 -89.001 -17.499s-69.167 -23.666 -106.5 -42.999s-71.666 -46 -102.999 -80s-57.166 -76.5 -77.499 -127.5s-30.5 -112.833 -30.5 -185.5v-105z" />
    <glyph glyph-name="B" unicode="B" horiz-adv-x="1657" 
d="M1582 315c0 -32 -5.5 -66.335 -16.5 -103.002s-29 -70.667 -54 -102s-57.5 -57.5 -97.5 -78.5s-89 -31.5 -147 -31.5h-987c-18.667 0 -36 3.33301 -52 10s-29.833 15.834 -41.5 27.501s-20.834 25.5 -27.501 41.5s-10 33.333 -10 52v1172c0 18 3.33301 35 10 51
s15.834 30 27.501 42s25.5 21.333 41.5 28s33.333 10 52 10h870c32 0 66.333 -5.66699 103 -17s70.834 -29.5 102.501 -54.5s58 -57.5 79 -97.5s31.5 -89 31.5 -147v-49c0 -46 -7.66699 -95.5 -23 -148.5s-40 -103.167 -74 -150.5c29.333 -18 56.833 -39.667 82.5 -65
s48.167 -54.666 67.5 -87.999s34.666 -71 45.999 -113s17 -88.333 17 -139v-50zM1322 364.998c0 34 -5.33301 64.502 -16 91.502s-25.667 50.167 -45 69.5s-42.666 34.166 -69.999 44.499s-58 15.5 -92 15.5h-586v262h469c34 0 64.667 5.16699 92 15.5
s50.666 25.166 69.999 44.499s34.166 42.5 44.499 69.5s15.5 57.5 15.5 91.5v49c0 37.333 -18 56 -54 56h-741v-914h858c4.66699 0 10.334 0.333008 17.001 1s12.667 2.66699 18 6s10 9 14 17s6 19 6 33v48z" />
    <glyph glyph-name="C" unicode="C" horiz-adv-x="1530" 
d="M1435 0l-937.999 -0.00195312c-24 0 -49.833 2.83301 -77.5 8.5s-55 14.5 -82 26.5s-52.833 27.5 -77.5 46.5s-46.5 42 -65.5 69s-34.167 58.333 -45.5 94s-17 75.834 -17 120.501v704c0 24 2.83301 49.833 8.5 77.5s14.5 55 26.5 82s27.667 52.833 47 77.5
s42.5 46.5 69.5 65.5s58.167 34.167 93.5 45.5s75.333 17 120 17h938v-260h-938c-34 0 -60 -9 -78 -27s-27 -44.667 -27 -80v-702c0 -33.333 9.16699 -59.166 27.5 -77.499s44.166 -27.5 77.499 -27.5h938v-260z" />
    <glyph glyph-name="D" unicode="D" horiz-adv-x="1686" 
d="M1582 600c0 -87.333 -15.167 -167.667 -45.5 -241s-72.166 -136.5 -125.499 -189.5s-116.666 -94.5 -189.999 -124.5s-153 -45 -239 -45h-702c-18.667 -0 -36 3.33301 -52 10s-29.833 15.834 -41.5 27.501s-20.834 25.5 -27.501 41.5s-10 33.333 -10 52v1172
c0 18 3.33301 35 10 51s15.834 30 27.501 42s25.5 21.333 41.5 28s33.333 10 52 10h702c86 0 165.667 -15 239 -45s136.666 -71.5 189.999 -124.5s95.166 -116.333 125.499 -190s45.5 -153.834 45.5 -240.501v-234zM1322 833.999c0 50.667 -8.16699 96.999 -24.5 138.999
s-39.5 77.833 -69.5 107.5s-65.833 52.667 -107.5 69s-87.834 24.5 -138.501 24.5h-573v-914h573c50.667 0 96.834 8.16699 138.501 24.5s77.5 39.333 107.5 69s53.167 65.334 69.5 107.001s24.5 88.167 24.5 139.5v234z" />
    <glyph glyph-name="E" unicode="E" horiz-adv-x="1547" 
d="M1330 586h-821v262h821v-262zM1447 0l-938.002 0.000976562c-36 0 -75.333 6.33301 -118 19s-82.167 33.5 -118.5 62.5s-66.666 66.667 -90.999 113s-36.5 103.166 -36.5 170.499v938c0 18 3.33301 35 10 51s15.834 30 27.501 42s25.5 21.333 41.5 28s33.333 10 52 10
h1171v-260h-1042v-809c0 -34 9 -60 27 -78s44.333 -27 79 -27h936v-260z" />
    <glyph glyph-name="F" unicode="F" horiz-adv-x="1512" 
d="M1337 586h-822v262h822v-262zM1453 1174h-1042v-1174h-260v1303c0 18 3.33301 35 10 51s15.834 30 27.501 42s25.5 21.333 41.5 28s33.333 10 52 10h1171v-260z" />
    <glyph glyph-name="G" unicode="G" horiz-adv-x="1686" 
d="M1566 131c0 -18.667 -3.33203 -36.001 -9.99902 -52.001s-15.834 -29.833 -27.501 -41.5s-25.5 -20.834 -41.5 -27.501s-33.333 -10 -52 -10h-938c-24 0 -49.833 2.83301 -77.5 8.5s-55 14.5 -82 26.5s-52.833 27.5 -77.5 46.5s-46.5 42 -65.5 69
s-34.167 58.333 -45.5 94s-17 75.834 -17 120.501v704c0 24 2.83301 49.833 8.5 77.5s14.5 55 26.5 82s27.667 52.833 47 77.5s42.5 46.5 69.5 65.5s58.167 34.167 93.5 45.5s75.333 17 120 17h1057v-260h-1057c-34 0 -60 -9 -78 -27s-27 -44.667 -27 -80v-702
c0 -33.333 9.16699 -59.166 27.5 -77.499s44.166 -27.5 77.499 -27.5h809v326h-692v262h821c18.667 0 36 -3.5 52 -10.5s29.833 -16.5 41.5 -28.5s20.834 -25.833 27.501 -41.5s10 -32.5 10 -50.5v-586z" />
    <glyph glyph-name="H" unicode="H" horiz-adv-x="1739" 
d="M413 848h913v586h260v-1434h-260v586h-913v-586h-260v1434h260v-586z" />
    <glyph glyph-name="I" unicode="I" horiz-adv-x="566" 
d="M413 0h-260v1434h260v-1434z" />
    <glyph glyph-name="J" unicode="J" horiz-adv-x="1504" 
d="M1357 365c0 -52 -8.99902 -100.331 -26.999 -144.998s-43.167 -83.334 -75.5 -116.001s-70.833 -58.167 -115.5 -76.5s-93.334 -27.5 -146.001 -27.5h-953v260h953c32 0 57 9.16699 75 27.5s27 44.166 27 77.499v1069h262v-1069z" />
    <glyph glyph-name="K" unicode="K" horiz-adv-x="1666" 
d="M1654 0h-369l-585 586h-183v262h183l585 586h369l-737 -717zM413 0h-260v1434h260v-1434z" />
    <glyph glyph-name="L" unicode="L" horiz-adv-x="1508" 
d="M1468 0l-1186 -0.000976562c-18.667 0 -36 3.33301 -52 10s-29.833 15.834 -41.5 27.501s-20.834 25.5 -27.501 41.5s-10 33.333 -10 52v1303h260v-1174h1057v-260z" />
    <glyph glyph-name="M" unicode="M" horiz-adv-x="1971" 
d="M1820 0l-262.002 -0.000976562v854l-461 -811c-11.333 -20.667 -27.166 -36.334 -47.499 -47.001s-42.166 -16 -65.499 -16c-22.667 0 -43.834 5.33301 -63.501 16s-35.167 26.334 -46.5 47.001l-463 811v-854h-260v1323c0 30 8.83301 56.667 26.5 80
s40.834 39 69.501 47c14 3.33301 28 4.5 42 3.5s27.5 -4 40.5 -9s24.833 -12 35.5 -21s19.667 -19.833 27 -32.5l592 -1029l592 1029c15.333 25.333 36.5 43.333 63.5 54s55.167 12.334 84.5 5.00098c28 -8 51 -23.667 69 -47s27 -50 27 -80v-1323z" />
    <glyph glyph-name="N" unicode="N" horiz-adv-x="1735" 
d="M1584 111c0 -18.667 -3.5 -36.001 -10.5 -52.001s-16.333 -29.833 -28 -41.5s-25.5 -20.834 -41.5 -27.501s-33 -10 -51 -10c-16 0 -32.167 3 -48.5 9s-30.833 15.667 -43.5 29l-950 992v-1010h-260v1323c0 26.667 7.5 50.834 22.5 72.501s34.167 37.834 57.5 48.501
c24.667 10 50 12.5 76 7.5s48.333 -17.167 67 -36.5l950 -991v1010h260v-1323z" />
    <glyph glyph-name="O" unicode="O" horiz-adv-x="1762" 
d="M1656 580c0 -87.333 -15 -167.666 -45 -240.999s-71.667 -136.666 -125 -189.999s-116.5 -94.833 -189.5 -124.5s-152.5 -44.5 -238.5 -44.5h-352c-86 0 -165.667 14.833 -239 44.5s-136.666 71.167 -189.999 124.5s-95.166 116.666 -125.499 189.999
s-45.5 153.666 -45.5 240.999v274c0 86.667 15.167 166.834 45.5 240.501s72.166 137 125.499 190s116.666 94.5 189.999 124.5s153 45 239 45h352c86 0 165.5 -15 238.5 -45s136.167 -71.5 189.5 -124.5s95 -116.333 125 -190s45 -153.834 45 -240.501v-274zM1396 854
c0 51.333 -8.16699 97.833 -24.5 139.5s-39.333 77.334 -69 107.001s-65.334 52.667 -107.001 69s-87.5 24.5 -137.5 24.5h-352c-50.667 0 -96.834 -8.16699 -138.501 -24.5s-77.5 -39.333 -107.5 -69s-53.167 -65.334 -69.5 -107.001s-24.5 -88.167 -24.5 -139.5v-274
c0 -51.333 8.16699 -97.833 24.5 -139.5s39.5 -77.334 69.5 -107.001s65.833 -52.667 107.5 -69s87.834 -24.5 138.501 -24.5h350c50.667 0 96.834 8.16699 138.501 24.5s77.5 39.333 107.5 69s53.167 65.334 69.5 107.001s24.5 88.167 24.5 139.5v274z" />
    <glyph glyph-name="P" unicode="P" horiz-adv-x="1651" 
d="M1580 834c0 -59.333 -7.33203 -112.331 -21.999 -158.998s-34.5 -87.834 -59.5 -123.501s-53.833 -66.167 -86.5 -91.5s-66.834 -46 -102.501 -62s-71.667 -27.667 -108 -35s-70.5 -11 -102.5 -11h-588v260h588c33.333 2.66699 63.5 9.5 90.5 20.5
s50.167 25.833 69.5 44.5s34.333 41.167 45 67.5s16 56.166 16 89.499v118c-3.33301 32.667 -10.333 62.667 -21 90s-25.167 50.666 -43.5 69.999s-40.5 34.5 -66.5 45.5s-56 16.5 -90 16.5h-586c-34.667 0 -61 -9 -79 -27s-27 -44 -27 -78v-1069h-260v1069
c0 66.667 12.167 123.334 36.5 170.001s54.666 84.334 90.999 113.001s75.833 49.5 118.5 62.5s82 19.5 118 19.5h588c58.667 0 111.334 -7.5 158.001 -22.5s87.834 -35 123.501 -60s66 -53.833 91 -86.5s45.667 -66.834 62 -102.501s28.166 -71.667 35.499 -108
s11 -70.5 11 -102.5v-118z" />
    <glyph glyph-name="Q" unicode="Q" horiz-adv-x="1762" 
d="M1656 580c0 -66.667 -8.83301 -129.498 -26.5 -188.498s-42.667 -112.5 -75 -160.5s-71.333 -90 -117 -126s-96.5 -64.333 -152.5 -85l304 -241h-377l-250 201h-256c-86 0 -165.667 14.833 -239 44.5s-136.666 71.167 -189.999 124.5s-95.166 116.666 -125.499 189.999
s-45.5 153.666 -45.5 240.999v274c0 86.667 15.167 166.834 45.5 240.501s72.166 137 125.499 190s116.666 94.5 189.999 124.5s153 45 239 45h352c86 0 165.5 -15 238.5 -45s136.167 -71.5 189.5 -124.5s95 -116.333 125 -190s45 -153.834 45 -240.501v-274zM1396 854.002
c0 51.333 -8.16699 97.833 -24.5 139.5s-39.333 77.334 -69 107.001s-65.334 52.667 -107.001 69s-87.5 24.5 -137.5 24.5h-352c-50.667 0 -96.834 -8.16699 -138.501 -24.5s-77.5 -39.333 -107.5 -69s-53.167 -65.334 -69.5 -107.001s-24.5 -88.167 -24.5 -139.5v-274
c0 -51.333 8.16699 -97.833 24.5 -139.5s39.5 -77.334 69.5 -107.001s65.833 -52.667 107.5 -69s87.834 -24.5 138.501 -24.5h350c50.667 0 96.834 8.16699 138.501 24.5s77.5 39.333 107.5 69s53.167 65.334 69.5 107.001s24.5 88.167 24.5 139.5v274z" />
    <glyph glyph-name="R" unicode="R" horiz-adv-x="1694" 
d="M1584 952c0 -59.333 -7.33398 -112.336 -22.001 -159.003s-34.5 -87.834 -59.5 -123.501s-53.833 -66.167 -86.5 -91.5s-66.834 -46.166 -102.501 -62.499s-71.667 -28.166 -108 -35.499s-70.5 -11 -102.5 -11l543 -469h-402l-542 469h-187v260h588
c32.667 2.66699 62.5 9.5 89.5 20.5s50.333 25.833 70 44.5s34.834 41.167 45.501 67.5s16 56.5 16 90.5v164c0 14.667 -1.83301 25.834 -5.5 33.501s-8.33398 13.334 -14.001 17.001s-11.667 5.83398 -18 6.50098s-12.166 1 -17.499 1h-858v-1174h-260v1303
c0 18 3.33301 35 10 51s15.834 30 27.501 42s25.5 21.333 41.5 28s33.333 10 52 10h987c58 0 107 -10.5 147 -31.5s72.5 -47.333 97.5 -79s43 -65.834 54 -102.501s16.5 -71 16.5 -103v-166z" />
    <glyph glyph-name="S" unicode="S" horiz-adv-x="1594" 
d="M1529 422c0 -51.333 -6.49805 -97.501 -19.498 -138.501s-30.167 -77.167 -51.5 -108.5s-46.333 -58 -75 -80s-58.334 -40 -89.001 -54s-61.834 -24.333 -93.501 -31s-61.5 -10 -89.5 -10h-1003v260h1003c50 0 88.833 14.667 116.5 44s41.5 68.666 41.5 117.999
c0 24 -3.66699 46 -11 66s-17.833 37.333 -31.5 52s-30.334 26 -50.001 34s-41.5 12 -65.5 12h-598c-42 0 -87.333 7.5 -136 22.5s-93.834 39.167 -135.501 72.5s-76.334 77 -104.001 131s-41.5 120 -41.5 198s13.833 143.833 41.5 197.5s62.334 97.334 104.001 131.001
s86.834 58 135.501 73s94 22.5 136 22.5h885v-260h-885c-49.333 0 -87.833 -15 -115.5 -45s-41.5 -69.667 -41.5 -119c0 -50 13.833 -89.5 41.5 -118.5s66.167 -43.5 115.5 -43.5h598h2c28 -0.666992 57.667 -4.5 89 -11.5s62.5 -17.833 93.5 -32.5s60.5 -33.167 88.5 -55.5
s52.833 -49.166 74.5 -80.499s38.834 -67.333 51.501 -108s19 -86.667 19 -138z" />
    <glyph glyph-name="T" unicode="T" horiz-adv-x="1487" 
d="M1447 1174h-573v-1174h-260v1174h-574v260h1407v-260z" />
    <glyph glyph-name="U" unicode="U" horiz-adv-x="1707" 
d="M1556 131c0 -18.667 -3.33203 -36.001 -9.99902 -52.001s-16 -29.833 -28 -41.5s-26 -20.834 -42 -27.501s-33 -10 -51 -10h-586c-55.333 0 -111.333 6 -168 18s-111.5 30.5 -164.5 55.5s-102.833 56.833 -149.5 95.5s-87.5 84.5 -122.5 137.5s-62.5 113.667 -82.5 182
s-30 144.5 -30 228.5v717h260v-717c0 -73.333 10.167 -135.333 30.5 -186s46.166 -93 77.499 -127s65.666 -60.667 102.999 -80s72.833 -33.666 106.5 -42.999s63.334 -15.166 89.001 -17.499s42.5 -3.5 50.5 -3.5h457v1174h260v-1303z" />
    <glyph glyph-name="V" unicode="V" horiz-adv-x="1582" 
d="M1586 1434l-679 -1383c-10.667 -21.333 -26.5 -38.5 -47.5 -51.5s-44.167 -19.5 -69.5 -19.5c-24.667 0 -47.5 6.5 -68.5 19.5s-37.167 30.167 -48.5 51.5l-678 1383h291l504 -1033l506 1033h290z" />
    <glyph glyph-name="W" unicode="W" horiz-adv-x="2053" 
d="M1982 1434l-240 -1344c-5.33301 -26.667 -17.333 -49.667 -36 -69s-41.334 -31.666 -68.001 -36.999c-27.333 -4.66699 -53.166 -1.66699 -77.499 9s-43.5 27.334 -57.5 50.001l-476 782l-477 -782c-11.333 -19.333 -26.833 -34.333 -46.5 -45s-40.834 -16 -63.501 -16
c-31.333 0 -59 10 -83 30s-38.667 46 -44 78l-242 1344h264l172 -947l410 654c11.333 19.333 26.833 34.333 46.5 45s40.834 16 63.501 16s43.667 -5.33301 63 -16s35.333 -25.667 48 -45l408 -654l172 947h264z" />
    <glyph glyph-name="X" unicode="X" horiz-adv-x="1612" 
d="M806 922l438 512h355l-617 -719l613 -715h-353l-436 508l-434 -508h-354l612 715l-614 719h352z" />
    <glyph glyph-name="Y" unicode="Y" horiz-adv-x="1600" 
d="M1517 954c0 -59.333 -7.5 -112.33 -22.5 -158.997s-34.833 -87.834 -59.5 -123.501s-53.5 -66.167 -86.5 -91.5s-67.167 -46.166 -102.5 -62.499s-71.166 -28.166 -107.499 -35.499s-70.5 -11 -102.5 -11h-105v-471h-262v471h-104c-32 0 -66.167 3.66699 -102.5 11
s-72.333 19.166 -108 35.499s-69.834 37.166 -102.501 62.499s-61.5 55.833 -86.5 91.5s-45 77 -60 124s-22.5 99.833 -22.5 158.5v480h260v-480c0 -34 5.33301 -64.5 16 -91.5s25.667 -50.167 45 -69.5s42.833 -34.166 70.5 -44.499s58.5 -15.5 92.5 -15.5h469
c24.667 4 50 9.16699 76 15.5s49.667 17.166 71 32.499s39 36.666 53 63.999s21 63.666 21 108.999v480h260v-480z" />
    <glyph glyph-name="Z" unicode="Z" horiz-adv-x="1461" 
d="M1378 1356c10 -23.333 13 -47.832 9 -73.499s-14.667 -47.5 -32 -65.5l-858 -957h879v-260h-1172c-25.333 0 -48.833 7.16699 -70.5 21.5s-37.834 33.166 -48.501 56.499c-11.333 23.333 -14.833 47.666 -10.5 72.999s14.833 47.333 31.5 66l860 957h-881v260h1174
c25.333 0 48.833 -7.16699 70.5 -21.5s37.834 -33.166 48.501 -56.499z" />
    <glyph glyph-name="bracketleft" unicode="[" horiz-adv-x="748" 
d="M677 1405l-278 -0.00195312l-4 -1378h278v-263h-407c-17.333 0 -34 3.5 -50 10.5s-30.333 16.5 -43 28.5c-12 12.667 -21.5 27 -28.5 43s-10.5 32.667 -10.5 50v1640c0 18 3.66699 34.833 11 50.5s17 29.334 29 41.001s26.167 20.834 42.5 27.501s33.5 10 51.5 10h409
v-260z" />
    <glyph glyph-name="backslash" unicode="\" horiz-adv-x="1350" 
d="M1265 0h-279l-905 1434h279z" />
    <glyph glyph-name="bracketright" unicode="]" horiz-adv-x="748" 
d="M614 -104c0 -17.333 -3.49707 -33.998 -10.4971 -49.998s-16.5 -30.333 -28.5 -43c-12.667 -12 -26.834 -21.5 -42.501 -28.5s-32.167 -10.5 -49.5 -10.5h-408v263h277l-3 1378h-278v260h408c18 0 35.167 -3.33301 51.5 -10s30.666 -15.834 42.999 -27.501
s22.166 -25.334 29.499 -41.001s11 -32.5 11 -50.5v-1640z" />
    <glyph glyph-name="asciicircum" unicode="^" horiz-adv-x="881" 
d="M851 696l-418.001 465l-403 -463v336l315 361c24 27.333 53.333 41 88 41c16.667 0 32.834 -3.5 48.501 -10.5s29.167 -16.5 40.5 -28.5l329 -369v-332z" />
    <glyph glyph-name="underscore" unicode="_" horiz-adv-x="1395" 
d="M1269 -352h-1143v233h1143v-233z" />
    <glyph glyph-name="grave" unicode="`" horiz-adv-x="1141" 
d="M306 1589l482 -280l-70 -150l-522 187z" />
    <glyph glyph-name="a" unicode="a" 
d="M1238 358c0 -36 -6.33301 -74.832 -19 -116.499s-33.167 -80.334 -61.5 -116.001s-65.333 -65.5 -111 -89.5s-101.167 -36 -166.5 -36h-469c-36 -0 -74.833 6.33301 -116.5 19s-80.334 33.167 -116.001 61.5s-65.5 65.333 -89.5 111s-36 101.167 -36 166.5
c0 36 6.33301 75 19 117s33.167 80.833 61.5 116.5s65.333 65.5 111 89.5s101.167 36 166.5 36h469v-248h-469c-35.333 0 -62.666 -10.833 -81.999 -32.5s-29 -48.5 -29 -80.5c0 -34 11.167 -60.5 33.5 -79.5s48.833 -28.5 79.5 -28.5h467c35.333 0 62.666 10.667 81.999 32
s29 48 29 80v363c0 34 -10.5 61 -31.5 81s-47.5 30 -79.5 30h-571v247h571c36 0 74.833 -6.33301 116.5 -19s80.334 -33.167 116.001 -61.5s65.5 -65.333 89.5 -111s36 -101.167 36 -166.5v-365z" />
    <glyph glyph-name="b" unicode="b" horiz-adv-x="1414" 
d="M1314 365c0 -24.667 -2.83398 -50.667 -8.50098 -78s-14.5 -54.5 -26.5 -81.5s-27.5 -52.833 -46.5 -77.5s-42 -46.5 -69 -65.5s-58.167 -34.167 -93.5 -45.5s-75.333 -17 -120 -17h-469c-24.667 -0 -50.667 2.83301 -78 8.5s-54.5 14.5 -81.5 26.5
s-52.833 27.5 -77.5 46.5s-46.5 42 -65.5 69s-34.167 58.333 -45.5 94s-17 75.834 -17 120.501v1173h260v-1173c0 -32 10 -57.5 30 -76.5s45 -28.5 75 -28.5h469c32.667 0 58.167 9.66699 76.5 29s27.5 44.666 27.5 75.999v352c0 32.667 -9.66699 58.167 -29 76.5
s-44.333 27.5 -75 27.5h-469v260h469c24.667 0 50.667 -2.83301 78 -8.5s54.5 -14.5 81.5 -26.5s52.833 -27.5 77.5 -46.5s46.334 -42 65.001 -69s33.667 -58.167 45 -93.5s17 -75.333 17 -120v-352z" />
    <glyph glyph-name="c" unicode="c" horiz-adv-x="1262" 
d="M1169 0h-705.001c-36 -0 -75.333 6.33301 -118 19s-82.167 33.5 -118.5 62.5s-66.666 66.667 -90.999 113s-36.5 103.166 -36.5 170.499v352c0 24.667 2.83301 50.667 8.5 78s14.5 54.5 26.5 81.5s27.5 52.833 46.5 77.5s42 46.334 69 65.001s58.167 33.667 93.5 45
s75.333 17 120 17h705v-260h-705c-34 0 -59.833 -8.66699 -77.5 -26s-26.5 -44 -26.5 -80v-350c0 -34 9 -60 27 -78s44.333 -27 79 -27h703v-260z" />
    <glyph glyph-name="d" unicode="d" horiz-adv-x="1434" 
d="M1308 365c0 -44.667 -5.66309 -84.833 -16.9961 -120.5s-26.333 -67 -45 -94s-40.334 -50 -65.001 -69s-50.5 -34.5 -77.5 -46.5s-54.333 -20.833 -82 -26.5s-53.834 -8.5 -78.501 -8.5h-469c-44.667 0 -84.667 5.66699 -120 17s-66.5 26.5 -93.5 45.5
s-50 40.833 -69 65.5s-34.5 50.5 -46.5 77.5s-20.833 54.333 -26.5 82s-8.5 53.5 -8.5 77.5v352c0 66.667 12.167 123.167 36.5 169.5s54.666 84 90.999 113s75.833 49.833 118.5 62.5s82 19 118 19h469v-260h-467c-34.667 0 -61 -8.83301 -79 -26.5s-27 -43.5 -27 -77.5
v-350c0 -35.333 8.83301 -62 26.5 -80s43.5 -27 77.5 -27h469c35.333 0 61.666 9 78.999 27s26 44 26 78v1173h260v-1173z" />
    <glyph glyph-name="e" unicode="e" 
d="M1285 723c0 -36 -6.33203 -74.833 -18.999 -116.5s-33.167 -80.334 -61.5 -116.001s-65.333 -65.5 -111 -89.5s-101.167 -36 -166.5 -36h-469v247h469c35.333 0 62.666 10.833 81.999 32.5s29 48.5 29 80.5c0 34 -10.833 60.667 -32.5 80s-47.834 29 -78.501 29h-469
c-35.333 0 -62.666 -10.833 -81.999 -32.5s-29 -48.5 -29 -80.5v-363c0 -34.667 10.833 -61.667 32.5 -81s48.5 -29 80.5 -29h467v-248h-469c-36 0 -74.833 6.33301 -116.5 19s-80.334 33.167 -116.001 61.5s-65.5 65.333 -89.5 111s-36 101.167 -36 166.5v365
c0 36 6.33301 74.833 19 116.5s33.167 80.334 61.5 116.001s65.333 65.5 111 89.5s101.167 36 166.5 36h469c36 0 74.833 -6.33301 116.5 -19s80.334 -33.167 116.001 -61.5s65.5 -65.333 89.5 -111s36 -101.167 36 -166.5z" />
    <glyph glyph-name="f" unicode="f" horiz-adv-x="1127" 
d="M1079 821h-588v260h588v-260zM1079 1290h-586c-35.333 0 -62 -8.83301 -80 -26.5s-27 -43.5 -27 -77.5v-1186h-260v1186c0 44.667 5.66699 84.667 17 120s26.5 66.5 45.5 93.5s40.833 50 65.5 69s50.5 34.5 77.5 46.5s54.167 20.833 81.5 26.5s53.333 8.5 78 8.5h588
v-260z" />
    <glyph glyph-name="g" unicode="g" horiz-adv-x="1414" 
d="M1298 -104c0 -44.667 -5.66602 -84.835 -16.999 -120.502s-26.333 -67 -45 -94s-40.334 -50 -65.001 -69s-50.5 -34.5 -77.5 -46.5s-54.333 -20.833 -82 -26.5s-53.834 -8.5 -78.501 -8.5h-469v260h469c35.333 0 61.666 9 78.999 27s26 44 26 78v821
c0 34 -8.66699 59.833 -26 77.5s-43.666 26.5 -78.999 26.5h-469c-32 0 -57.333 -9.83301 -76 -29.5s-28 -44.5 -28 -74.5v-352c0 -34 9 -60 27 -78s44.333 -27 79 -27h467v-260h-469c-24.667 0 -50.667 2.83301 -78 8.5s-54.5 14.5 -81.5 26.5s-52.833 27.5 -77.5 46.5
s-46.334 42 -65.001 69s-33.667 58.333 -45 94s-17 75.834 -17 120.501v352c0 24.667 2.83301 50.667 8.5 78s14.5 54.5 26.5 81.5s27.5 52.833 46.5 77.5s42 46.334 69 65.001s58.167 33.667 93.5 45s75.333 17 120 17h469c24.667 0 50.834 -2.83301 78.501 -8.5
s55 -14.5 82 -26.5s52.833 -27.5 77.5 -46.5s46.334 -42 65.001 -69s33.667 -58.167 45 -93.5s17 -75.333 17 -120v-821z" />
    <glyph glyph-name="h" unicode="h" horiz-adv-x="1440" 
d="M1324 0h-260.001v717c0 34 -8.66699 59.833 -26 77.5s-43.333 26.5 -78 26.5h-469v260h469c24.667 0 50.667 -2.83301 78 -8.5s54.5 -14.5 81.5 -26.5s52.833 -27.5 77.5 -46.5s46.334 -42 65.001 -69s33.667 -58.167 45 -93.5s17 -75.333 17 -120v-717zM385.999 0h-260
v1538h260v-1538z" />
    <glyph glyph-name="i" unicode="i" horiz-adv-x="513" 
d="M386 1303h-260v235h260v-235zM386 0h-260v1081h260v-1081z" />
    <glyph glyph-name="j" unicode="j" horiz-adv-x="513" 
d="M386 1303h-260v235h260v-235zM386 -104c0 -44.667 -5.66602 -84.833 -16.999 -120.5s-26.333 -67 -45 -94s-40.334 -50 -65.001 -69s-50.5 -34.5 -77.5 -46.5s-54.167 -20.833 -81.5 -26.5s-53.333 -8.5 -78 -8.5h-469v260h469c34.667 0 60.667 9 78 27s26 44 26 78v1185
h260v-1185z" />
    <glyph glyph-name="k" unicode="k" horiz-adv-x="1416" 
d="M1392 0l-374.999 0.000976562l-524 506c-29.333 26.667 -43 60 -41 100c1.33301 18.667 6.16602 36.167 14.499 52.5s19.833 30.166 34.5 41.499l475 383h416l-612 -493zM386.001 0.000976562h-260v1538h260v-1538z" />
    <glyph glyph-name="l" unicode="l" horiz-adv-x="642" 
d="M597 0l-116.001 0.000976562c-37.333 0 -77.166 6.33301 -119.499 19s-81.833 33.5 -118.5 62.5s-67 66.667 -91 113s-36 103.166 -36 170.499v1173h260v-1173c0 -32 10 -57.5 30 -76.5s45 -28.5 75 -28.5h116v-260z" />
    <glyph glyph-name="m" unicode="m" horiz-adv-x="1789" 
d="M1087 0l-260 -0.00195312v717c0 34 -9 59.833 -27 77.5s-44.667 26.5 -80 26.5h-338v-821h-260v952c0 18 3.33301 34.833 10 50.5s16 29.334 28 41.001s26 20.834 42 27.501s33 10 51 10h469c36 0 74.667 -6.33301 116 -19s80.666 -33 117.999 -61v80h352
c24.667 0 50.667 -2.83301 78 -8.5s54.5 -14.5 81.5 -26.5s52.833 -27.5 77.5 -46.5s46.334 -42 65.001 -69s33.667 -58.167 45 -93.5s17 -75.333 17 -120v-717h-260v717c0 34 -8.5 59.833 -25.5 77.5s-43.167 26.5 -78.5 26.5h-234c8.66699 -32 13 -66.667 13 -104v-717z
" />
    <glyph glyph-name="n" unicode="n" horiz-adv-x="1426" 
d="M1320 0h-260v600c0 34 -5.83301 64.5 -17.5 91.5s-27.5 50.167 -47.5 69.5s-43.5 34.166 -70.5 44.499s-56.167 15.5 -87.5 15.5h-455v-821h-260v952c0 18 3.33301 34.833 10 50.5s16 29.334 28 41.001s26 20.834 42 27.501s33 10 51 10h586
c32.667 0 67.167 -3.66699 103.5 -11s72.333 -19.166 108 -35.499s69.667 -37 102 -62s61 -55.333 86 -91s44.833 -76.834 59.5 -123.501s22 -99.334 22 -158.001v-600z" />
    <glyph glyph-name="o" unicode="o" horiz-adv-x="1397" 
d="M1298 365c0 -44.667 -5.66699 -84.8311 -17 -120.498s-26.333 -67 -45 -94s-40.334 -50 -65.001 -69s-50.5 -34.5 -77.5 -46.5s-54.333 -20.833 -82 -26.5s-53.834 -8.5 -78.501 -8.5h-469c-36 0 -75.333 6.33301 -118 19s-82.167 33.5 -118.5 62.5
s-66.666 66.667 -90.999 113s-36.5 103.166 -36.5 170.499v352c0 66.667 12.167 123.167 36.5 169.5s54.666 84 90.999 113s75.833 49.833 118.5 62.5s82 19 118 19h469c66.667 0 123.334 -12 170.001 -36s84.334 -54.167 113.001 -90.5s49.5 -75.833 62.5 -118.5
s19.5 -82.334 19.5 -119.001v-352zM1038 715.003c0 36 -8.99902 62.667 -26.999 80s-44 26 -78 26h-467c-34.667 0 -61 -8.83301 -79 -26.5s-27 -43.5 -27 -77.5v-352c0 -34 9 -60 27 -78s44.333 -27 79 -27h467c35.333 0 61.666 9 78.999 27s26 44 26 78v350z" />
    <glyph glyph-name="p" unicode="p" horiz-adv-x="1414" 
d="M1314 365c0 -44.667 -5.66602 -84.832 -16.999 -120.499s-26.333 -67 -45 -94s-40.334 -50 -65.001 -69s-50.5 -34.5 -77.5 -46.5s-54.167 -20.833 -81.5 -26.5s-53.333 -8.5 -78 -8.5h-469v260h469c34.667 0 60.667 9 78 27s26 44 26 78v350
c0 36 -8.83301 62.667 -26.5 80s-43.5 26 -77.5 26h-467c-35.333 0 -62 -8.83301 -80 -26.5s-27 -43.5 -27 -77.5v-1055h-260v1055c0 44.667 5.66699 84.667 17 120s26.5 66.5 45.5 93.5s40.833 50 65.5 69s50.5 34.5 77.5 46.5s54.333 20.833 82 26.5s53.5 8.5 77.5 8.5
h469c44.667 0 84.667 -5.66699 120 -17s66.5 -26.333 93.5 -45s50 -40.334 69 -65.001s34.5 -50.5 46.5 -77.5s20.833 -54.167 26.5 -81.5s8.5 -53.333 8.5 -78v-352z" />
    <glyph glyph-name="q" unicode="q" horiz-adv-x="1414" 
d="M1298 -338h-260.004v1055c0 34 -8.66699 59.833 -26 77.5s-43.666 26.5 -78.999 26.5h-469c-32 0 -57.333 -9.83301 -76 -29.5s-28 -44.5 -28 -74.5v-352c0 -34 9 -60 27 -78s44.333 -27 79 -27h467v-260h-469c-36 -0 -75.333 6.33301 -118 19s-82.167 33.5 -118.5 62.5
s-66.666 66.667 -90.999 113s-36.5 103.166 -36.5 170.499v352c0 24.667 2.83301 50.667 8.5 78s14.5 54.5 26.5 81.5s27.5 52.833 46.5 77.5s42 46.334 69 65.001s58.167 33.667 93.5 45s75.333 17 120 17h469c24.667 0 50.834 -2.83301 78.501 -8.5s55 -14.5 82 -26.5
s52.833 -27.5 77.5 -46.5s46.334 -42 65.001 -69s33.667 -58.167 45 -93.5s17 -75.333 17 -120v-1055z" />
    <glyph glyph-name="r" unicode="r" horiz-adv-x="1117" 
d="M1068 821h-585c-35.333 0 -62 -8.83301 -80 -26.5s-27 -43.5 -27 -77.5v-717h-260v717c0 44.667 5.66699 84.667 17 120s26.5 66.5 45.5 93.5s40.833 50 65.5 69s50.5 34.5 77.5 46.5s54.333 20.833 82 26.5s53.5 8.5 77.5 8.5h587v-260z" />
    <glyph glyph-name="s" unicode="s" horiz-adv-x="1227" 
d="M1167 365c0 -44.667 -5.66504 -84.833 -16.998 -120.5s-26.333 -67 -45 -94s-40.334 -50 -65.001 -69s-50.5 -34.5 -77.5 -46.5s-54.333 -20.833 -82 -26.5s-53.834 -8.5 -78.501 -8.5h-704v260h702c35.333 0 62 9 80 27s27 44 27 78
c-3.33301 69.333 -38.333 104 -105 104h-403c-57.333 0 -106 10 -146 30s-72.5 45 -97.5 75s-43 62.333 -54 97s-16.5 67 -16.5 97c0 58 10.333 106.833 31 146.5s46.667 71.834 78 96.501s65.333 42.5 102 53.5s71 16.5 103 16.5h639v-260h-637
c-13.333 0 -23.833 -1.5 -31.5 -4.5s-13.334 -7 -17.001 -12s-5.83398 -10.333 -6.50098 -16s-1 -11.167 -1 -16.5c0.666992 -10.667 2.66699 -19 6 -25s7.5 -10.333 12.5 -13s10.667 -4.16699 17 -4.5s12.5 -0.5 18.5 -0.5h403c66.667 0 123.334 -12 170.001 -36
s84.334 -54.167 113.001 -90.5s49.5 -75.833 62.5 -118.5s19.5 -82.334 19.5 -119.001z" />
    <glyph glyph-name="t" unicode="t" horiz-adv-x="1154" 
d="M1105 821h-454v-821h-263v821h-338v260h338v353h263v-353h454v-260z" />
    <glyph glyph-name="u" unicode="u" horiz-adv-x="1426" 
d="M1304 131c0 -18.667 -3.33203 -36.001 -9.99902 -52.001s-15.834 -29.833 -27.501 -41.5s-25.334 -20.834 -41.001 -27.501s-32.5 -10 -50.5 -10h-588c-32 0 -66.167 3.66699 -102.5 11s-72.166 19.166 -107.499 35.499s-69.5 37 -102.5 62s-61.833 55.333 -86.5 91
s-44.5 76.834 -59.5 123.501s-22.5 99.334 -22.5 158.001v600h260v-600c0 -34 5.83301 -64.5 17.5 -91.5s27.5 -50.167 47.5 -69.5s43.5 -34.166 70.5 -44.499s56.167 -15.5 87.5 -15.5h455v821h260v-950z" />
    <glyph glyph-name="v" unicode="v" horiz-adv-x="1383" 
d="M1412 1081c-29.333 -91.333 -63.665 -181.335 -102.998 -270.002s-84.5 -173.167 -135.5 -253.5s-108 -154.666 -171 -222.999s-132.667 -127.333 -209 -177s-159.333 -88.667 -249 -117s-186.834 -42.5 -291.501 -42.5c-18 0 -35 3.33301 -51 10s-30 15.834 -42 27.501
s-21.333 25.334 -28 41.001s-10 32.5 -10 50.5v954h260v-813c63.333 0 124.166 13.667 182.499 41s113.5 63.5 165.5 108.5s100.167 96.167 144.5 153.5s83.833 116.166 118.5 176.499s64.167 119.5 88.5 177.5s42.5 110 54.5 156h276z" />
    <glyph glyph-name="w" unicode="w" horiz-adv-x="1870" 
d="M1902 1081c-41.333 -92.667 -86 -183.837 -134 -273.504s-98.167 -174.5 -150.5 -254.5s-105.833 -153.833 -160.5 -221.5s-108.834 -126 -162.501 -175s-106 -87.333 -157 -115s-99.167 -41.5 -144.5 -41.5c-18.667 0 -36 3.33301 -52 10s-30 15.834 -42 27.501
s-21.333 25.5 -28 41.5s-10 33.333 -10 52v485l-516 -577c-13.333 -13.333 -27.833 -23.166 -43.5 -29.499s-31.834 -9.5 -48.501 -9.5c-18 0 -34.833 3.33301 -50.5 10s-29.5 15.834 -41.5 27.501s-21.5 25.5 -28.5 41.5s-10.5 33.333 -10.5 52v950h260v-616l518 579
c18.667 18.667 40.834 30.5 66.501 35.5s50.834 2.16699 75.501 -8.5c24.667 -10 44.167 -25.833 58.5 -47.5s21.5 -45.5 21.5 -71.5v-618c56 54 106.667 111 152 171s87.5 121.833 126.5 185.5s75.667 128.334 110 194.001l100.5 196.5h291z" />
    <glyph glyph-name="x" unicode="x" horiz-adv-x="1424" 
d="M1357 1081l-467 -510l526 -571h-358l-346 377l-346 -377h-359l525 573l-465 508h356l287 -313l289 313h358z" />
    <glyph glyph-name="y" unicode="y" horiz-adv-x="1440" 
d="M1314 -104c0 -44.667 -5.66602 -84.833 -16.999 -120.5s-26.333 -67 -45 -94s-40.334 -50 -65.001 -69s-50.5 -34.5 -77.5 -46.5s-54.167 -20.833 -81.5 -26.5s-53.333 -8.5 -78 -8.5h-469v260h469c34.667 0 60.667 9 78 27s26 44 26 78v1185h260v-1185z
M950.001 0.000976562l-469.001 0.000976562c-37.333 0 -77.166 6.33301 -119.499 19s-81.833 33.5 -118.5 62.5s-67 66.667 -91 113s-36 103.166 -36 170.499v716h260v-716c0 -34 9 -60 27 -78s44.667 -27 80 -27h467v-260z" />
    <glyph glyph-name="z" unicode="z" horiz-adv-x="1231" 
d="M1146 1001c10.667 -24.667 13.502 -49.668 8.50195 -75.001s-16.5 -47.333 -34.5 -66l-601 -600h625v-260h-938c-26.667 0 -50.834 7.5 -72.501 22.5s-37.834 34.167 -48.501 57.5c-10 24.667 -12.5 49.834 -7.5 75.501s17.167 48.167 36.5 67.5l598 598h-625v260h940
c26 0 49.833 -7 71.5 -21s37.5 -33.667 47.5 -59z" />
    <glyph glyph-name="braceleft" unicode="{" horiz-adv-x="869" 
d="M798 1405l-129 0.00195312c-16.667 0 -33.834 -1.83301 -51.501 -5.5s-33.834 -9.5 -48.501 -17.5s-26.667 -18.333 -36 -31s-14 -28 -14 -46v-2v-351c0 -51.333 -7.33301 -96.5 -22 -135.5s-33.667 -72.833 -57 -101.5c28 -36 47.833 -74.667 59.5 -116
s17.5 -80 17.5 -116v-354c0 -23.333 6 -41.833 18 -55.5s26.333 -24 43 -31s33.334 -11.333 50.001 -13s29.667 -2.5 39 -2.5h129v-263h-131c-27.333 0 -56.5 2.83301 -87.5 8.5s-61.667 14.667 -92 27s-59.333 28.166 -87 47.499s-52 42.666 -73 69.999
s-37.667 58.666 -50 93.999s-18.5 75.333 -18.5 120v350c0 35.333 -9.16699 61.666 -27.5 78.999s-43.833 26 -76.5 26c-18.667 0 -36 3.5 -52 10.5s-29.833 16.333 -41.5 28s-20.834 25.5 -27.501 41.5s-10 33 -10 51s3.33301 34.833 10 50.5s15.834 29.334 27.501 41.001
s25.334 21 41.001 28s32.5 10.833 50.5 11.5c36 0 63 8.83301 81 26.5s27 43.5 27 77.5v353c0 57.333 11.667 108.333 35 153s54.333 82.334 93 113.001s82.5 54 131.5 70s99.167 24 150.5 24h129v-260z" />
    <glyph glyph-name="bar" unicode="|" horiz-adv-x="533" 
d="M397 -236h-261v1905h261v-1905z" />
    <glyph glyph-name="braceright" unicode="}" horiz-adv-x="869" 
d="M847 717c0 -18 -3.33594 -35.0039 -10.0029 -51.0039s-15.834 -29.833 -27.501 -41.5s-25.334 -21 -41.001 -28s-32.5 -10.5 -50.5 -10.5c-34 0 -60.167 -8.66699 -78.5 -26s-27.5 -43.666 -27.5 -78.999l2 -350c0 -44.667 -6.33301 -84.667 -19 -120
s-29.667 -66.666 -51 -93.999s-45.833 -50.666 -73.5 -69.999s-56.667 -35.166 -87 -47.499s-61 -21.333 -92 -27s-60.167 -8.5 -87.5 -8.5h-129l-2 263h131c8.66699 0 21.334 0.833008 38.001 2.5s33.167 6 49.5 13s30.5 17.333 42.5 31s18 32.167 18 55.5v354
c0 36 6.16699 74.667 18.5 116s31.833 80 58.5 116c-23.333 28.667 -42.5 62.5 -57.5 101.5s-22.5 84.167 -22.5 135.5v351v2c-3.33301 18.667 -9.5 34.334 -18.5 47.001s-20.167 23 -33.5 31s-28.166 13.667 -44.499 17s-33.166 5 -50.499 5h-131v260h131
c54 0 105.667 -8.5 155 -25.5s92.833 -41.333 130.5 -73s67.5 -69.667 89.5 -114s33 -93.5 33 -147.5c0 -4.66699 0.333008 -36.167 1 -94.5s1 -144.5 1 -258.5c0 -34 8.66699 -59.833 26 -77.5s44 -26.5 80 -26.5c18 -0.666992 34.833 -4.5 50.5 -11.5
s29.334 -16.333 41.001 -28s20.834 -25.334 27.501 -41.001s10 -32.5 10 -50.5z" />
    <glyph glyph-name="asciitilde" unicode="~" horiz-adv-x="1297" 
d="M1189 606c-14 -14 -30.668 -26.998 -50.001 -38.998s-40.666 -22.5 -63.999 -31.5s-47.833 -16.167 -73.5 -21.5s-51.834 -8 -78.501 -8c-41.333 0 -85.5 5.66699 -132.5 17s-94.833 23.666 -143.5 36.999s-97 25.666 -145 36.999s-93.333 17 -136 17
c-23.333 0 -47.333 -3.33301 -72 -10s-48.5 -15.334 -71.5 -26.001s-44.333 -22.667 -64 -36s-35.834 -26.666 -48.501 -39.999v262c14 14 31.333 27.333 52 40s43 23.5 67 32.5s48.5 16.167 73.5 21.5s48.833 8 71.5 8c40.667 0 84.834 -5.66699 132.501 -17
s96 -24 145 -38s97.5 -26.667 145.5 -38s93.333 -17 136 -17c22.667 0 46.334 3.33301 71.001 10s48.5 15.5 71.5 26.5s44.333 23.167 64 36.5s36.167 27 49.5 41v-264z" />
    <glyph glyph-name="nonbreakingspace" unicode="&#xa0;" horiz-adv-x="666" 
 />
    <glyph glyph-name="exclamdown" unicode="&#xa1;" horiz-adv-x="511" 
d="M165 674h178l62 -1082h-301zM124 895c0 18 3.5 34.833 10.5 50.5s16.333 29.334 28 41.001s25.334 20.834 41.001 27.501s32.167 10 49.5 10c18 0 34.833 -3.33301 50.5 -10s29.334 -15.834 41.001 -27.501s20.834 -25.334 27.501 -41.001s10 -32.5 10 -50.5
c0 -17.333 -3.33301 -33.833 -10 -49.5s-15.834 -29.334 -27.501 -41.001s-25.334 -21 -41.001 -28s-32.5 -10.5 -50.5 -10.5c-17.333 0 -33.833 3.5 -49.5 10.5s-29.334 16.333 -41.001 28s-21 25.334 -28 41.001s-10.5 32.167 -10.5 49.5z" />
    <glyph glyph-name="cent" unicode="&#xa2;" horiz-adv-x="1045" 
d="M931 248h-246.002v-248h-233v248c-35.333 0 -73.5 6.16699 -114.5 18.5s-79.167 32.5 -114.5 60.5s-64.666 64.333 -87.999 109s-35 99.334 -35 164.001v234c0 35.333 6.16699 73.5 18.5 114.5s32.5 79.167 60.5 114.5s64.333 64.666 109 87.999s99.334 35 164.001 35
v248h233v-248h246v-234h-479c-37.333 0 -66.166 -11 -86.499 -33s-30.5 -50.333 -30.5 -85v-234c0 -36 10.667 -64.833 32 -86.5s49.666 -32.5 84.999 -32.5h479v-233z" />
    <glyph glyph-name="sterling" unicode="&#xa3;" horiz-adv-x="1801" 
d="M1009 596l-337.999 -0.000976562v-336h686c35.333 0 61.666 8.83301 78.999 26.5s26 42.834 26 75.501v132h260v-132c0 -66.667 -12 -123 -36 -169s-54.167 -83.333 -90.5 -112s-75.666 -49.334 -117.999 -62.001s-81.833 -19 -118.5 -19h-817
c-18 0 -34.833 3.33301 -50.5 10s-29.334 15.834 -41.001 27.501s-20.834 25.334 -27.501 41.001s-10 32.5 -10 50.5v467h-338v233h338v242c0 36.667 6.33301 76.167 19 118.5s33.334 81.666 62.001 117.999s66 66.5 112 90.5s102.333 36 169 36h480v-260h-480
c-32 0 -57.333 -9.66699 -76 -29s-28 -44 -28 -74v-242h338v-233z" />
    <glyph glyph-name="currency" unicode="&#xa4;" horiz-adv-x="898" 
d="M337 721c0 -31.333 10.333 -57.333 31 -78s46.667 -31 78 -31c15.333 0 29.666 2.83301 42.999 8.5s25 13.334 35 23.001s17.833 21.167 23.5 34.5s8.5 27.666 8.5 42.999s-2.83301 29.666 -8.5 42.999s-13.5 25 -23.5 35s-21.667 17.833 -35 23.5
s-27.666 8.5 -42.999 8.5s-29.666 -2.83301 -42.999 -8.5s-24.833 -13.5 -34.5 -23.5s-17.334 -21.667 -23.001 -35s-8.5 -27.666 -8.5 -42.999zM827 942l-113.001 -110.999c7.33301 -17.333 13 -35.166 17 -53.499s6 -37.166 6 -56.499c0 -21.333 -2.5 -41.833 -7.5 -61.5
s-11.5 -38.834 -19.5 -57.501l117 -115l-152 -143l-113 113c-35.333 -16.667 -74 -25 -116 -25c-20.667 0 -40.334 1.66699 -59.001 5s-36.667 8.66602 -54 15.999l-108 -109l-150 150l109 106c-9.33301 18.667 -16.166 38.167 -20.499 58.5s-6.5 41.166 -6.5 62.499
c0 20.667 2 41 6 61s10.333 39.333 19 58l-111 112l154 138l102 -105c18.667 8 37.834 14.5 57.501 19.5s40.167 7.5 61.5 7.5s42.5 -2.5 63.5 -7.5s40.833 -12.167 59.5 -21.5l106 107z" />
    <glyph glyph-name="yen" unicode="&#xa5;" horiz-adv-x="1649" 
d="M1292 129h-336v-129h-260v129h-338v233h338v105h-105c-32 0 -66 3.66699 -102 11s-71.833 19 -107.5 35s-69.667 36.5 -102 61.5s-61 55.333 -86 91s-44.833 76.667 -59.5 123s-22 98.833 -22 157.5v488h260v-488c0 -34 5.66699 -64.5 17 -91.5s26.833 -50 46.5 -69
s43 -33.5 70 -43.5s56.167 -15 87.5 -15h465c32.667 1.33301 62.5 7.33301 89.5 18s50.333 25.5 70 44.5s34.834 41.667 45.501 68s16 55.833 16 88.5v488h258v-488c0 -58.667 -7.33301 -111.167 -22 -157.5s-34.334 -87.333 -59.001 -123s-53.334 -66 -86.001 -91
s-66.667 -45.5 -102 -61.5s-71.166 -27.667 -107.499 -35s-70.5 -11 -102.5 -11h-102v-105h336v-233z" />
    <glyph glyph-name="brokenbar" unicode="&#xa6;" horiz-adv-x="537" 
d="M399 821h-260v848h260v-848zM399 -236h-260v848h260v-848z" />
    <glyph glyph-name="section" unicode="&#xa7;" horiz-adv-x="1649" 
d="M1552 186c0 -51.333 -6.49805 -97.501 -19.498 -138.501s-30.167 -77.167 -51.5 -108.5s-46.333 -58 -75 -80s-58.334 -40 -89.001 -54s-61.834 -24.333 -93.501 -31s-61.5 -10 -89.5 -10h-1004v263h1004c24 0 45.667 4 65 12s36 19.167 50 33.5s24.667 31.166 32 50.499
s11 40.333 11 63c0 24 -4 46.167 -12 66.5s-19 37.833 -33 52.5s-30.667 26.167 -50 34.5s-40.333 12.5 -63 12.5h-598c-28 0 -57.833 3.33301 -89.5 10s-62.834 17 -93.501 31s-60.334 32.167 -89.001 54.5s-53.667 49.166 -75 80.499s-38.5 67.5 -51.5 108.5
s-19.5 87.5 -19.5 139.5s6 97 18 135s26.667 71 44 99c-18.667 30.667 -33.667 65.5 -45 104.5s-17 82.5 -17 130.5c0 51.333 6.5 97.5 19.5 138.5s30.167 77.167 51.5 108.5s46.333 58.166 75 80.499s58.334 40.666 89.001 54.999s61.834 24.833 93.501 31.5
s61.5 10 89.5 10h885v-262h-885c-24.667 0 -46.667 -4.16699 -66 -12.5s-35.833 -19.666 -49.5 -33.999s-24.167 -31.5 -31.5 -51.5s-11 -41.333 -11 -64c0 -24 3.83301 -46 11.5 -66s18.5 -37.333 32.5 -52s30.667 -26 50 -34s40.666 -12 63.999 -12h600
c28 -0.666992 57.667 -4.33398 89 -11.001s62.5 -17.167 93.5 -31.5s60.5 -32.666 88.5 -54.999s52.833 -49.166 74.5 -80.499s38.834 -67.666 51.501 -108.999s19 -87.666 19 -138.999s-6.33301 -96.166 -19 -134.499s-27.667 -71.833 -45 -100.5
c19.333 -31.333 34.833 -66 46.5 -104s17.5 -81.333 17.5 -130zM536.002 820.999c-22.667 0 -46.498 2.16992 -71.498 6.50293s-50.5 11.166 -76.5 20.499c-3.33301 -9.33301 -5.83301 -19.833 -7.5 -31.5s-2.5 -25.167 -2.5 -40.5c0 -24.667 3.83301 -47 11.5 -67
s18.5 -37.167 32.5 -51.5s30.667 -25.5 50 -33.5s40.666 -12 63.999 -12h600c22.667 -1.33301 46.167 -4 70.5 -8s49.166 -10.667 74.499 -20c3.33301 9.33301 6 19.666 8 30.999s3 24.666 3 39.999c0 24 -4 46.167 -12 66.5s-19 37.833 -33 52.5s-30.667 26.167 -50 34.5
s-40.333 12.5 -63 12.5h-598z" />
    <glyph glyph-name="dieresis" unicode="&#xa8;" horiz-adv-x="1141" 
d="M468 1315c0 -18 -3.5 -34.833 -10.5 -50.5s-16.333 -29.334 -28 -41.001s-25.334 -20.834 -41.001 -27.501s-32.167 -10 -49.5 -10c-18 0 -34.833 3.33301 -50.5 10s-29.334 15.834 -41.001 27.501s-20.834 25.334 -27.501 41.001s-10 32.5 -10 50.5
c0 17.333 3.33301 33.833 10 49.5s15.834 29.334 27.501 41.001s25.334 21 41.001 28s32.5 10.5 50.5 10.5c17.333 0 33.833 -3.5 49.5 -10.5s29.334 -16.333 41.001 -28s21 -25.334 28 -41.001s10.5 -32.167 10.5 -49.5zM931 1315c0 -18 -3.5 -34.833 -10.5 -50.5
s-16.333 -29.334 -28 -41.001s-25.334 -20.834 -41.001 -27.501s-32.167 -10 -49.5 -10c-18 0 -34.833 3.33301 -50.5 10s-29.334 15.834 -41.001 27.501s-20.834 25.334 -27.501 41.001s-10 32.5 -10 50.5c0 17.333 3.33301 33.833 10 49.5s15.834 29.334 27.501 41.001
s25.334 21 41.001 28s32.5 10.5 50.5 10.5c17.333 0 33.833 -3.5 49.5 -10.5s29.334 -16.333 41.001 -28s21 -25.334 28 -41.001s10.5 -32.167 10.5 -49.5z" />
    <glyph glyph-name="copyright" unicode="&#xa9;" horiz-adv-x="1436" 
d="M1312 623c0 -60 -7.49902 -112.833 -22.499 -158.5s-35 -85.167 -60 -118.5s-53.333 -61.333 -85 -84s-64.334 -40.834 -98.001 -54.501s-66.834 -23.334 -99.501 -29.001s-62 -8.5 -88 -8.5h-282c-26 0 -55.167 2.83301 -87.5 8.5s-65.333 15.334 -99 29.001
s-66.5 31.834 -98.5 54.501s-60.5 50.667 -85.5 84s-45 72.833 -60 118.5s-22.5 98.5 -22.5 158.5v188c0 59.333 7.5 111.833 22.5 157.5s35 85.334 60 119.001s53.5 61.834 85.5 84.501s64.833 40.834 98.5 54.501s66.667 23.334 99 29.001s61.5 8.5 87.5 8.5h282
c26 0 55.333 -2.83301 88 -8.5s65.834 -15.334 99.501 -29.001s66.5 -31.834 98.5 -54.501s60.333 -50.834 85 -84.501s44.5 -73.334 59.5 -119.001s22.5 -98.167 22.5 -157.5v-188zM1156 623l0.00292969 188.003c0 123.333 -48.333 209.333 -145 258
c-18.667 9.33301 -37 16.5 -55 21.5s-34.333 8.83301 -49 11.5c-17.333 2.66699 -33.333 4.66699 -48 6h-282c-4.66699 0 -15.334 -0.666992 -32.001 -2s-36 -5 -58 -11s-45.167 -15.167 -69.5 -27.5s-46.666 -29.5 -66.999 -51.5s-37.166 -49.667 -50.499 -83
s-20 -74 -20 -122v-188c0 -48 6.66699 -88.667 20 -122s30.166 -61 50.499 -83s42.666 -39.167 66.999 -51.5s47.666 -21.5 69.999 -27.5s41.833 -9.66699 58.5 -11s27.667 -2 33 -2h280c5.33301 0 16.333 0.666992 33 2s36 5.16602 58 11.499s45 15.666 69 27.999
s46.167 29.5 66.5 51.5s37.166 49.667 50.499 83s20 73.666 20 120.999zM964.004 410.003l-375 -0.000976562c-16.667 0 -35 3.16699 -55 9.5s-38.667 16.333 -56 30s-31.833 31.334 -43.5 53.001s-17.5 48.167 -17.5 79.5v280c0 16.667 3 35.167 9 55.5s15.833 39 29.5 56
s31.334 31.333 53.001 43s48.5 17.5 80.5 17.5h375v-155h-375c-2 0 -3.66699 -0.166992 -5 -0.5s-2.66602 -0.5 -3.99902 -0.5c-1.33301 -0.666992 -2.33301 -1 -3 -1c-1.33301 -1.33301 -2.33301 -3.83301 -3 -7.5s-1 -6.16699 -1 -7.5v-280
c0 -4.66699 0.333008 -7.66699 1 -9c0 -1.33301 0.333008 -2 1 -2c1.33301 -2 3.66602 -3.5 6.99902 -4.5s5.66602 -1.5 6.99902 -1.5h375v-155z" />
    <glyph glyph-name="ordfeminine" unicode="&#xaa;" horiz-adv-x="1234" 
d="M1115 827c0 -20.667 -2.33301 -42.332 -7 -64.999s-12.167 -45.334 -22.5 -68.001s-23.5 -44.334 -39.5 -65.001s-35.333 -39 -58 -55s-48.834 -28.667 -78.501 -38s-63.5 -14 -101.5 -14h-401c-30.667 0 -63.834 5.33301 -99.501 16s-68.667 28 -99 52
s-55.666 55.5 -75.999 94.5s-30.5 86.5 -30.5 142.5c0 30.667 5.5 63.834 16.5 99.501s28.5 68.834 52.5 99.501s55.333 56.167 94 76.5s86 30.5 142 30.5h401v-209h-401c-19.333 0 -35.333 -3 -48 -9s-22.5 -13.833 -29.5 -23.5s-11.833 -20.334 -14.5 -32.001
s-4 -23.167 -4 -34.5c0 -30 9 -53.5 27 -70.5s41 -25.5 69 -25.5h401c19.333 0 35.333 3 48 9s22.834 13.667 30.501 23s13 19.833 16 31.5s4.5 23.167 4.5 34.5v301c0 31.333 -9.5 55.333 -28.5 72s-42.5 25 -70.5 25h-504v209h504c30.667 0 64 -5.5 100 -16.5
s69.333 -28.5 100 -52.5s56.167 -55.5 76.5 -94.5s30.5 -86.5 30.5 -142.5v-301z" />
    <glyph glyph-name="guillemotleft" unicode="&#xab;" horiz-adv-x="1426" 
d="M804 952l-465.001 -417l463 -404h-336l-360 315c-27.333 23.333 -41 53 -41 89c0 16 3.33301 31.833 10 47.5s16.334 29.167 29.001 40.5l368 329h332zM1337 952l-465 -417l463 -404h-336l-361 315c-27.333 24 -41 53.667 -41 89c0 16 3.5 31.833 10.5 47.5
s16.5 29.167 28.5 40.5l369 329h332z" />
    <glyph glyph-name="logicalnot" unicode="&#xac;" horiz-adv-x="1184" 
d="M1044 248h-234v352h-704v234h938v-586z" />
    <glyph glyph-name="uni00AD" unicode="&#xad;" horiz-adv-x="1170" 
d="M1054 600h-938v234h938v-234z" />
    <glyph glyph-name="registered" unicode="&#xae;" horiz-adv-x="1436" 
d="M1312 623c0 -60 -7.49902 -112.833 -22.499 -158.5s-35 -85.167 -60 -118.5s-53.333 -61.333 -85 -84s-64.334 -40.834 -98.001 -54.501s-66.834 -23.334 -99.501 -29.001s-62 -8.5 -88 -8.5h-282c-26 0 -55.167 2.83301 -87.5 8.5s-65.333 15.334 -99 29.001
s-66.5 31.834 -98.5 54.501s-60.5 50.667 -85.5 84s-45 72.833 -60 118.5s-22.5 98.5 -22.5 158.5v188c0 59.333 7.5 111.833 22.5 157.5s35 85.334 60 119.001s53.5 61.834 85.5 84.501s64.833 40.834 98.5 54.501s66.667 23.334 99 29.001s61.5 8.5 87.5 8.5h282
c26 0 55.333 -2.83301 88 -8.5s65.834 -15.334 99.501 -29.001s66.5 -31.834 98.5 -54.501s60.333 -50.834 85 -84.501s44.5 -73.334 59.5 -119.001s22.5 -98.167 22.5 -157.5v-188zM1036 815c0 -32 -4.49805 -59.998 -13.498 -83.998s-21 -44.5 -36 -61.5
s-32 -30.833 -51 -41.5s-38.167 -18.667 -57.5 -24l211 -180c19.333 21.333 35.333 48.166 48 80.499s19 71.833 19 118.5v188c0 123.333 -48.333 209.333 -145 258c-18.667 9.33301 -37 16.5 -55 21.5s-34.333 8.83301 -49 11.5c-17.333 2.66699 -33.333 4.66699 -48 6
h-282c-4.66699 0 -15.334 -0.666992 -32.001 -2s-36 -5 -58 -11s-45.167 -15.167 -69.5 -27.5s-46.666 -29.5 -66.999 -51.5s-37.166 -49.667 -50.499 -83s-20 -74 -20 -122v-188c0 -48 6.66699 -88.667 20 -122s30.166 -61 50.499 -83s42.666 -39.167 66.999 -51.5
s47.666 -21.5 69.999 -27.5s41.833 -9.66699 58.5 -11s27.667 -2 33 -2h280c5.33301 0 16 0.5 32 1.5s35 4.5 57 10.5l-297 258h-27v158h194c41.333 0 62 20.333 62 61v64h-313v-439h-156v516c0 21.333 7.66699 39.666 23 54.999s33.666 23 54.999 23h395
c24.667 0 46.334 -4.5 65.001 -13.5s34.5 -20.667 47.5 -35s22.833 -30.5 29.5 -48.5s10 -36 10 -54v-68z" />
    <glyph glyph-name="macron" unicode="&#xaf;" horiz-adv-x="1141" 
d="M235 1200v236h672v-236h-672z" />
    <glyph glyph-name="degree" unicode="&#xb0;" horiz-adv-x="730" 
d="M75 1083c0 40 7.5 77.667 22.5 113s35.667 66.166 62 92.499s57 47.166 92 62.499s72.5 23 112.5 23s77.667 -7.66699 113 -23s66.166 -36.166 92.499 -62.499s47.166 -57.166 62.499 -92.499s23 -73 23 -113s-7.66699 -77.5 -23 -112.5s-36.166 -65.5 -62.499 -91.5
s-57.166 -46.5 -92.499 -61.5s-73 -22.5 -113 -22.5s-77.5 7.5 -112.5 22.5s-65.667 35.5 -92 61.5s-47 56.5 -62 91.5s-22.5 72.5 -22.5 112.5zM255 1083c0 -30.667 10.333 -56.335 31 -77.002s46.667 -31 78 -31c15.333 0 29.666 2.83301 42.999 8.5s25 13.334 35 23.001
s17.833 21 23.5 34s8.5 27.167 8.5 42.5s-2.83301 29.833 -8.5 43.5s-13.5 25.5 -23.5 35.5s-21.667 17.833 -35 23.5s-27.666 8.5 -42.999 8.5c-31.333 0 -57.333 -10.667 -78 -32s-31 -47.666 -31 -78.999z" />
    <glyph glyph-name="plusminus" unicode="&#xb1;" horiz-adv-x="1190" 
d="M1064 600h-352v-229h-233v229h-353v234h353v229h233v-229h352v-234zM1064 0h-938v233h938v-233z" />
    <glyph glyph-name="twosuperior" unicode="&#xb2;" horiz-adv-x="830" 
d="M718 621h-610v233c0 22.667 4 45 12 67s19.833 41.833 35.5 59.5s35.167 32 58.5 43s50 16.5 80 16.5h242v56h-381v182h377c30 0 56.667 -5.5 80 -16.5s42.833 -25.333 58.5 -43s27.5 -37.5 35.5 -59.5s12 -44.333 12 -67v-48c0 -30 -5.5 -56.5 -16.5 -79.5
s-25.333 -42.5 -43 -58.5s-37.5 -28 -59.5 -36s-44.333 -12 -67 -12h-242v-55h428v-182z" />
    <glyph glyph-name="threesuperior" unicode="&#xb3;" horiz-adv-x="791" 
d="M626 858h-502v182h502v-182zM687 807c0 -30 -5.5 -56.667 -16.5 -80s-25.333 -42.833 -43 -58.5s-37.5 -27.5 -59.5 -35.5s-44.333 -12 -67 -12h-377v182h381v293h-381v182h377c30 0 56.667 -5.5 80 -16.5s42.833 -25.333 58.5 -43s27.5 -37.5 35.5 -59.5
s12 -44.333 12 -67v-285z" />
    <glyph glyph-name="acute" unicode="&#xb4;" horiz-adv-x="1141" 
d="M945 1346l-522 -187l-69 150l481 280z" />
    <glyph glyph-name="mu" unicode="&#xb5;" horiz-adv-x="1459" 
d="M1343 131c0 -18.667 -3.3291 -36.001 -9.99609 -52.001s-15.834 -29.833 -27.501 -41.5s-25.334 -20.834 -41.001 -27.501s-32.5 -10 -50.5 -10h-588c-34 0 -70 3.83301 -108 11.5s-75.667 20.834 -113 39.501v-520h-260v1550h260v-600c0 -44.667 7 -80.667 21 -108
s31.667 -48.666 53 -63.999s45.166 -26.5 71.499 -33.5s52.166 -12.167 77.499 -15.5h455v821h260v-950z" />
    <glyph glyph-name="paragraph" unicode="&#xb6;" horiz-adv-x="1932" 
d="M1302 1174c8 -33.333 12.0029 -68.334 12.0029 -105.001v-1069h-260v1069c0 34 -9 60 -27 78s-44.333 27 -79 27h-381c-34 0 -64 -5.5 -90 -16.5s-48.333 -26.167 -67 -45.5s-33.334 -42.666 -44.001 -69.999s-17.667 -57.333 -21 -90v-118
c0 -33.333 5.33301 -63.166 16 -89.499s25.667 -48.833 45 -67.5s42.666 -33.5 69.999 -44.5s57.666 -17.833 90.999 -20.5h383v-260h-383c-32 0 -66.167 3.66699 -102.5 11s-72.333 19 -108 35s-69.834 36.667 -102.501 62s-61.5 55.833 -86.5 91.5s-45 76.834 -60 123.501
s-22.5 99.667 -22.5 159v118c0 32 3.66699 66.167 11 102.5s19.166 72.333 35.499 108s37.166 69.834 62.499 102.501s55.833 61.5 91.5 86.5s76.834 45 123.501 60s99.334 22.5 158.001 22.5h383c34.667 0 72.834 -6.33301 114.501 -19s80.5 -32.334 116.5 -59.001v78h233
c36.667 0 76.167 -6.5 118.5 -19.5s81.833 -33.833 118.5 -62.5s67.167 -66.334 91.5 -113.001s36.5 -103.334 36.5 -170.001v-1069h-260v1069c0 34 -9 60 -27 78s-44.667 27 -80 27h-110z" />
    <glyph glyph-name="periodcentered" unicode="&#xb7;" horiz-adv-x="437" 
d="M347 719c0 -18 -3.5 -34.833 -10.5 -50.5s-16.333 -29.334 -28 -41.001s-25.334 -20.834 -41.001 -27.501s-32.167 -10 -49.5 -10c-18 0 -34.833 3.33301 -50.5 10s-29.334 15.834 -41.001 27.501s-20.834 25.334 -27.501 41.001s-10 32.5 -10 50.5
c0 17.333 3.33301 33.833 10 49.5s15.834 29.334 27.501 41.001s25.334 21 41.001 28s32.5 10.5 50.5 10.5c17.333 0 33.833 -3.5 49.5 -10.5s29.334 -16.333 41.001 -28s21 -25.334 28 -41.001s10.5 -32.167 10.5 -49.5z" />
    <glyph glyph-name="cedilla" unicode="&#xb8;" horiz-adv-x="1033" 
d="M550 -70c19.333 0 41.1631 -2.33496 65.4961 -7.00195s47.333 -13.5 69 -26.5s39.834 -31.167 54.501 -54.5s22 -54 22 -92s-9.5 -70 -28.5 -96s-43.667 -47 -74 -63s-64.333 -27.333 -102 -34s-75.167 -10 -112.5 -10c-34 0 -62.333 0.833008 -85 2.5
s-42.167 3.66699 -58.5 6s-30.666 4.83301 -42.999 7.5s-24.833 5 -37.5 7v176c27.333 -12.667 58.333 -23.334 93 -32.001s70.667 -13 108 -13c38 0 69.667 3.83301 95 11.5s38 20.834 38 39.501c0 10.667 -4 19.334 -12 26.001s-18 11.834 -30 15.501
s-24.667 6.16699 -38 7.5s-25.333 2 -36 2c-15.333 0 -31.666 -1 -48.999 -3s-32.666 -5 -45.999 -9l86 227h156z" />
    <glyph glyph-name="onesuperior" unicode="&#xb9;" horiz-adv-x="490" 
d="M364 621h-182v475h-95v182h277v-657z" />
    <glyph glyph-name="ordmasculine" unicode="&#xba;" horiz-adv-x="1250" 
d="M1132 827c0 -56 -10.167 -103.498 -30.5 -142.498s-45.833 -70.5 -76.5 -94.5s-64 -41.333 -100 -52s-69.333 -16 -100 -16h-402c-30.667 0 -63.834 5.33301 -99.501 16s-68.667 28 -99 52s-55.666 55.5 -75.999 94.5s-30.5 86.5 -30.5 142.5v301
c0 56 10.167 103.5 30.5 142.5s45.666 70.5 75.999 94.5s63.333 41.5 99 52.5s68.834 16.5 99.501 16.5h402c56 0 103.5 -10.167 142.5 -30.5s70.667 -45.833 95 -76.5s42 -63.834 53 -99.501s16.5 -68.834 16.5 -99.501v-301zM923 1128
c0 10.667 -1.50195 21.667 -4.50195 33s-8.16699 21.833 -15.5 31.5s-17.333 17.5 -30 23.5s-28.667 9 -48 9h-402c-10.667 0 -21.667 -1.33301 -33 -4s-21.666 -7.66699 -30.999 -15s-17 -17.333 -23 -30s-9 -28.667 -9 -48v-301c0 -30 8.83301 -53.833 26.5 -71.5
s40.834 -26.5 69.501 -26.5h402c11.333 0 22.833 1.5 34.5 4.5s22.167 8.16699 31.5 15.5s17 17.333 23 30s9 28.667 9 48v301z" />
    <glyph glyph-name="guillemotright" unicode="&#xbb;" horiz-adv-x="1426" 
d="M954 952l367.999 -329c12.667 -11.333 22.334 -24.833 29.001 -40.5s10 -31.5 10 -47.5c0 -36 -13.667 -65.667 -41 -89l-360 -315h-336l463 404l-465 417h332zM420.999 952l369 -329c12 -11.333 21.5 -24.833 28.5 -40.5s10.5 -31.5 10.5 -47.5
c0 -35.333 -13.667 -65 -41 -89l-361 -315h-336l463 404l-465 417h332z" />
    <glyph glyph-name="onequarter" unicode="&#xbc;" horiz-adv-x="1616" 
d="M1117 1303l-737 -1291h-239l737 1291h239zM372 621h-182v475h-94v182h276v-657zM1509 37h-183v657h183v-657zM1509 274h-517.999c-13.333 0 -25.5 2.33301 -36.5 7s-20.833 11.167 -29.5 19.5s-15.334 18 -20.001 29s-7 22.833 -7 35.5v329h183v-237h428v-183z" />
    <glyph glyph-name="onehalf" unicode="&#xbd;" horiz-adv-x="1551" 
d="M1117 1303l-737 -1291h-239l737 1291h239zM372 621h-182v475h-94v182h276v-657zM1457 37h-610v233c0 22.667 4 45.167 12 67.5s20 42.333 36 60s35.667 32 59 43s50 16.5 80 16.5h241v55h-381v182h377c30 0 56.667 -5.5 80 -16.5s42.833 -25.333 58.5 -43
s27.5 -37.5 35.5 -59.5s12 -44.333 12 -67v-47c0 -30 -5.5 -56.667 -16.5 -80s-25.333 -43 -43 -59s-37.5 -28 -59.5 -36s-44.333 -12 -67 -12h-242v-55h428v-182z" />
    <glyph glyph-name="threequarters" unicode="&#xbe;" horiz-adv-x="1881" 
d="M1382 1303l-738 -1291h-239l737 1291h240zM1773 37h-182v657h182v-657zM1773 274h-518.001c-12.667 0 -24.667 2.33301 -36 7s-21.166 11.167 -29.499 19.5s-14.833 18 -19.5 29s-7 22.833 -7 35.5v329h182v-237h428v-183zM615.999 858h-502v182h502v-182zM676.999 807
c0 -30 -5.5 -56.667 -16.5 -80s-25.333 -42.833 -43 -58.5s-37.5 -27.5 -59.5 -35.5s-44.333 -12 -67 -12h-377v182h381v293h-381v182h377c30 0 56.667 -5.5 80 -16.5s42.833 -25.333 58.5 -43s27.5 -37.5 35.5 -59.5s12 -44.333 12 -67v-285z" />
    <glyph glyph-name="questiondown" unicode="&#xbf;" horiz-adv-x="1354" 
d="M81 74c0 36.667 6.33789 76.332 19.0049 118.999s33.5 82.334 62.5 119.001s66.667 67.167 113 91.5s103.166 36.5 170.499 36.5h221v234h260v-365c0 -18 -3.33301 -34.833 -10 -50.5s-15.834 -29.5 -27.501 -41.5s-25.334 -21.5 -41.001 -28.5s-32.5 -10.5 -50.5 -10.5
h-352c-34 0 -60 -8.66699 -78 -26s-27 -43.333 -27 -78v-117c0 -69.333 35 -104 105 -104h833v-261h-833c-24.667 0 -50.834 2.83301 -78.501 8.5s-55 14.5 -82 26.5s-52.833 27.667 -77.5 47s-46.334 42.5 -65.001 69.5s-33.667 58.167 -45 93.5s-17 75.333 -17 120v117z
M669.005 894.998c0 18 3.33301 34.833 10 50.5s15.834 29.334 27.501 41.001s25.334 20.834 41.001 27.501s32.5 10 50.5 10c17.333 0 33.833 -3.33301 49.5 -10s29.334 -15.834 41.001 -27.501s21 -25.334 28 -41.001s10.5 -32.5 10.5 -50.5
c0 -17.333 -3.5 -33.833 -10.5 -49.5s-16.333 -29.334 -28 -41.001s-25.334 -21 -41.001 -28s-32.167 -10.5 -49.5 -10.5c-18 0 -34.833 3.5 -50.5 10.5s-29.334 16.333 -41.001 28s-20.834 25.334 -27.501 41.001s-10 32.167 -10 49.5z" />
    <glyph glyph-name="Agrave" unicode="&#xc0;" horiz-adv-x="1709" 
d="M1558 0l-259.999 0.000976562v352h-914v-352h-260v717c0 104.667 18 201 54 289s86 163.667 150 227s139.667 112.666 227 147.999s182.666 53 285.999 53h586c18 0 35 -3.33301 51 -10s30 -16 42 -28s21.333 -26 28 -42s10 -33 10 -51v-1303zM384.001 612.001
l913.999 -0.00195312v562h-457c-8 0 -24.833 -1.16699 -50.5 -3.5s-55.334 -8.16602 -89.001 -17.499s-69.167 -23.666 -106.5 -42.999s-71.666 -46 -102.999 -80s-57.166 -76.5 -77.499 -127.5s-30.5 -112.833 -30.5 -185.5v-105zM478 1999l482 -280l-70 -150l-522 187z
" />
    <glyph glyph-name="Aacute" unicode="&#xc1;" horiz-adv-x="1709" 
d="M1558 0l-259.999 0.000976562v352h-914v-352h-260v717c0 104.667 18 201 54 289s86 163.667 150 227s139.667 112.666 227 147.999s182.666 53 285.999 53h586c18 0 35 -3.33301 51 -10s30 -16 42 -28s21.333 -26 28 -42s10 -33 10 -51v-1303zM384.001 612.001
l913.999 -0.00195312v562h-457c-8 0 -24.833 -1.16699 -50.5 -3.5s-55.334 -8.16602 -89.001 -17.499s-69.167 -23.666 -106.5 -42.999s-71.666 -46 -102.999 -80s-57.166 -76.5 -77.499 -127.5s-30.5 -112.833 -30.5 -185.5v-105zM1412 1756l-522 -187l-69 150l481 280z
" />
    <glyph glyph-name="Acircumflex" unicode="&#xc2;" horiz-adv-x="1709" 
d="M1558 0l-259.999 0.000976562v352h-914v-352h-260v717c0 104.667 18 201 54 289s86 163.667 150 227s139.667 112.666 227 147.999s182.666 53 285.999 53h586c18 0 35 -3.33301 51 -10s30 -16 42 -28s21.333 -26 28 -42s10 -33 10 -51v-1303zM384.001 612.001
l913.999 -0.00195312v562h-457c-8 0 -24.833 -1.16699 -50.5 -3.5s-55.334 -8.16602 -89.001 -17.499s-69.167 -23.666 -106.5 -42.999s-71.666 -46 -102.999 -80s-57.166 -76.5 -77.499 -127.5s-30.5 -112.833 -30.5 -185.5v-105zM1189 1569l-348 180l-348 -180l-121 168
l469 266l469 -266z" />
    <glyph glyph-name="Atilde" unicode="&#xc3;" horiz-adv-x="1709" 
d="M1558 0l-259.999 0.000976562v352h-914v-352h-260v717c0 104.667 18 201 54 289s86 163.667 150 227s139.667 112.666 227 147.999s182.666 53 285.999 53h586c18 0 35 -3.33301 51 -10s30 -16 42 -28s21.333 -26 28 -42s10 -33 10 -51v-1303zM384.001 612.001
l913.999 -0.00195312v562h-457c-8 0 -24.833 -1.16699 -50.5 -3.5s-55.334 -8.16602 -89.001 -17.499s-69.167 -23.666 -106.5 -42.999s-71.666 -46 -102.999 -80s-57.166 -76.5 -77.499 -127.5s-30.5 -112.833 -30.5 -185.5v-105zM1234 1921
c0 -64 -6.66797 -117.999 -20.001 -161.999s-31.333 -79.5 -54 -106.5s-49.167 -46.333 -79.5 -58s-62.5 -17.5 -96.5 -17.5c-36 0 -66.333 6.33301 -91 19s-46.667 26.5 -66 41.5l-55 41.5c-17.333 12.667 -36.666 19 -57.999 19c-20 0 -35.833 -5 -47.5 -15
s-20.5 -21.833 -26.5 -35.5s-10 -27.167 -12 -40.5s-3.33301 -23.333 -4 -30h-177c0 56.667 6.83301 106.5 20.5 149.5s32 79 55 108s49.667 50.667 80 65s62.5 21.5 96.5 21.5c31.333 0 58.5 -6.33301 81.5 -19s44.5 -26.5 64.5 -41.5s39.5 -28.667 58.5 -41
s40.5 -18.5 64.5 -18.5c20 0 35.833 5 47.5 15s20.5 21.5 26.5 34.5s10 26.167 12 39.5s3.33301 23.666 4 30.999h176z" />
    <glyph glyph-name="Adieresis" unicode="&#xc4;" horiz-adv-x="1709" 
d="M1558 0l-259.999 0.000976562v352h-914v-352h-260v717c0 104.667 18 201 54 289s86 163.667 150 227s139.667 112.666 227 147.999s182.666 53 285.999 53h586c18 0 35 -3.33301 51 -10s30 -16 42 -28s21.333 -26 28 -42s10 -33 10 -51v-1303zM384.001 612.001
l913.999 -0.00195312v562h-457c-8 0 -24.833 -1.16699 -50.5 -3.5s-55.334 -8.16602 -89.001 -17.499s-69.167 -23.666 -106.5 -42.999s-71.666 -46 -102.999 -80s-57.166 -76.5 -77.499 -127.5s-30.5 -112.833 -30.5 -185.5v-105zM738 1725c0 -18 -3.5 -34.833 -10.5 -50.5
s-16.333 -29.334 -28 -41.001s-25.334 -20.834 -41.001 -27.501s-32.167 -10 -49.5 -10c-18 0 -34.833 3.33301 -50.5 10s-29.334 15.834 -41.001 27.501s-20.834 25.334 -27.501 41.001s-10 32.5 -10 50.5c0 17.333 3.33301 33.833 10 49.5s15.834 29.334 27.501 41.001
s25.334 21 41.001 28s32.5 10.5 50.5 10.5c17.333 0 33.833 -3.5 49.5 -10.5s29.334 -16.333 41.001 -28s21 -25.334 28 -41.001s10.5 -32.167 10.5 -49.5zM1201 1725c0 -18 -3.5 -34.833 -10.5 -50.5s-16.333 -29.334 -28 -41.001s-25.334 -20.834 -41.001 -27.501
s-32.167 -10 -49.5 -10c-18 0 -34.833 3.33301 -50.5 10s-29.334 15.834 -41.001 27.501s-20.834 25.334 -27.501 41.001s-10 32.5 -10 50.5c0 17.333 3.33301 33.833 10 49.5s15.834 29.334 27.501 41.001s25.334 21 41.001 28s32.5 10.5 50.5 10.5
c17.333 0 33.833 -3.5 49.5 -10.5s29.334 -16.333 41.001 -28s21 -25.334 28 -41.001s10.5 -32.167 10.5 -49.5z" />
    <glyph glyph-name="Aring" unicode="&#xc5;" horiz-adv-x="1709" 
d="M1558 0l-259.999 0.000976562v352h-914v-352h-260v717c0 104.667 18 201 54 289s86 163.667 150 227s139.667 112.666 227 147.999s182.666 53 285.999 53h586c18 0 35 -3.33301 51 -10s30 -16 42 -28s21.333 -26 28 -42s10 -33 10 -51v-1303zM384.001 612.001
l913.999 -0.00195312v562h-457c-8 0 -24.833 -1.16699 -50.5 -3.5s-55.334 -8.16602 -89.001 -17.499s-69.167 -23.666 -106.5 -42.999s-71.666 -46 -102.999 -80s-57.166 -76.5 -77.499 -127.5s-30.5 -112.833 -30.5 -185.5v-105zM550 1764
c0 32.667 7.1709 63.5 21.5039 92.5s34.166 54.333 59.499 76s55.833 38.834 91.5 51.501s75.167 19 118.5 19c47.333 0 89.166 -6.33301 125.499 -19s66.666 -29.834 90.999 -51.501s42.666 -47 54.999 -76s18.5 -59.833 18.5 -92.5s-6.66699 -63.5 -20 -92.5
s-32.5 -54.5 -57.5 -76.5s-55.5 -39.333 -91.5 -52s-76.333 -19 -121 -19c-46 0 -87 6.33301 -123 19s-66.5 30 -91.5 52s-44 47.5 -57 76.5s-19.5 59.833 -19.5 92.5zM742.004 1764c0 -27.333 8.5 -50.333 25.5 -69s41.5 -28 73.5 -28s56 9.33301 72 28s24 41.667 24 69
c0 26.667 -8 49.334 -24 68.001s-40 28 -72 28s-56.5 -9.33301 -73.5 -28s-25.5 -41.334 -25.5 -68.001z" />
    <glyph glyph-name="AE" unicode="&#xc6;" horiz-adv-x="2700" 
d="M2600 0l-937.999 0.00195312c-24 0 -49.5 2.66699 -76.5 8s-53.833 13.833 -80.5 25.5s-52.167 26.667 -76.5 45s-46 40.5 -65 66.5s-34.5 56.167 -46.5 90.5s-18.333 73.166 -19 116.499h-914v-352h-260v717c0 104.667 18 201 54 289s86 163.667 150 227
s139.667 112.666 227 147.999s182.666 53 285.999 53h586h10h1163v-260h-1042v-809c0 -34 9 -60 27 -78s44.333 -27 79 -27h936v-260zM384.001 612.002l913.999 -0.00195312v562h-457c-8 0 -24.833 -1.16699 -50.5 -3.5s-55.334 -8.16602 -89.001 -17.499
s-69.167 -23.666 -106.5 -42.999s-71.666 -46 -102.999 -80s-57.166 -76.5 -77.499 -127.5s-30.5 -112.833 -30.5 -185.5v-105zM2484 586h-822v262h822v-262z" />
    <glyph glyph-name="Ccedilla" unicode="&#xc7;" horiz-adv-x="1530" 
d="M1435 0l-514.001 -0.00390625l-27 -70c19.333 0 41.166 -2.33301 65.499 -7s47.333 -13.5 69 -26.5s39.834 -31.167 54.501 -54.5s22 -54 22 -92s-9.5 -70 -28.5 -96s-43.667 -47 -74 -63s-64.333 -27.333 -102 -34s-75.167 -10 -112.5 -10
c-34 0 -62.333 0.833008 -85 2.5s-42 3.66699 -58 6s-30.167 4.83301 -42.5 7.5s-24.833 5 -37.5 7v176c26.667 -12.667 57.5 -23.334 92.5 -32.001s70.833 -13 107.5 -13c38 0 69.667 3.83301 95 11.5s38 20.834 38 39.501c0 10.667 -4 19.334 -12 26.001
s-18 11.834 -30 15.501s-24.667 6.16699 -38 7.5s-25.333 2 -36 2c-15.333 0 -31.666 -1 -48.999 -3s-32.666 -5 -45.999 -9l78 209h-268c-24 0 -49.833 2.83301 -77.5 8.5s-55 14.5 -82 26.5s-52.833 27.5 -77.5 46.5s-46.5 42 -65.5 69s-34.167 58.333 -45.5 94
s-17 75.834 -17 120.501v704c0 24 2.83301 49.833 8.5 77.5s14.5 55 26.5 82s27.667 52.833 47 77.5s42.5 46.5 69.5 65.5s58.167 34.167 93.5 45.5s75.333 17 120 17h938v-260h-938c-34 0 -60 -9 -78 -27s-27 -44.667 -27 -80v-702c0 -33.333 9.16699 -59.166 27.5 -77.499
s44.166 -27.5 77.499 -27.5h938v-260z" />
    <glyph glyph-name="Egrave" unicode="&#xc8;" horiz-adv-x="1547" 
d="M1330 586h-821v262h821v-262zM1447 0l-938.002 0.000976562c-36 0 -75.333 6.33301 -118 19s-82.167 33.5 -118.5 62.5s-66.666 66.667 -90.999 113s-36.5 103.166 -36.5 170.499v938c0 18 3.33301 35 10 51s15.834 30 27.501 42s25.5 21.333 41.5 28s33.333 10 52 10
h1171v-260h-1042v-809c0 -34 9 -60 27 -78s44.333 -27 79 -27h936v-260zM455.998 1999l482 -280l-70 -150l-522 187z" />
    <glyph glyph-name="Eacute" unicode="&#xc9;" horiz-adv-x="1547" 
d="M1330 586h-821v262h821v-262zM1447 0l-938.002 0.000976562c-36 0 -75.333 6.33301 -118 19s-82.167 33.5 -118.5 62.5s-66.666 66.667 -90.999 113s-36.5 103.166 -36.5 170.499v938c0 18 3.33301 35 10 51s15.834 30 27.501 42s25.5 21.333 41.5 28s33.333 10 52 10
h1171v-260h-1042v-809c0 -34 9 -60 27 -78s44.333 -27 79 -27h936v-260zM1408 1756l-522 -187l-69 150l481 280z" />
    <glyph glyph-name="Ecircumflex" unicode="&#xca;" horiz-adv-x="1547" 
d="M1330 586h-821v262h821v-262zM1447 0l-938.002 0.000976562c-36 0 -75.333 6.33301 -118 19s-82.167 33.5 -118.5 62.5s-66.666 66.667 -90.999 113s-36.5 103.166 -36.5 170.499v938c0 18 3.33301 35 10 51s15.834 30 27.501 42s25.5 21.333 41.5 28s33.333 10 52 10
h1171v-260h-1042v-809c0 -34 9 -60 27 -78s44.333 -27 79 -27h936v-260zM1144 1569l-348 180l-348 -180l-121 168l469 266l469 -266z" />
    <glyph glyph-name="Edieresis" unicode="&#xcb;" horiz-adv-x="1547" 
d="M1330 586h-821v262h821v-262zM1447 0l-938.002 0.000976562c-36 0 -75.333 6.33301 -118 19s-82.167 33.5 -118.5 62.5s-66.666 66.667 -90.999 113s-36.5 103.166 -36.5 170.499v938c0 18 3.33301 35 10 51s15.834 30 27.501 42s25.5 21.333 41.5 28s33.333 10 52 10
h1171v-260h-1042v-809c0 -34 9 -60 27 -78s44.333 -27 79 -27h936v-260zM754.998 1725c0 -18 -3.5 -34.833 -10.5 -50.5s-16.333 -29.334 -28 -41.001s-25.334 -20.834 -41.001 -27.501s-32.167 -10 -49.5 -10c-18 0 -34.833 3.33301 -50.5 10
s-29.334 15.834 -41.001 27.501s-20.834 25.334 -27.501 41.001s-10 32.5 -10 50.5c0 17.333 3.33301 33.833 10 49.5s15.834 29.334 27.501 41.001s25.334 21 41.001 28s32.5 10.5 50.5 10.5c17.333 0 33.833 -3.5 49.5 -10.5s29.334 -16.333 41.001 -28
s21 -25.334 28 -41.001s10.5 -32.167 10.5 -49.5zM1218 1725c0 -18 -3.5 -34.833 -10.5 -50.5s-16.333 -29.334 -28 -41.001s-25.334 -20.834 -41.001 -27.501s-32.167 -10 -49.5 -10c-18 0 -34.833 3.33301 -50.5 10s-29.334 15.834 -41.001 27.501
s-20.834 25.334 -27.501 41.001s-10 32.5 -10 50.5c0 17.333 3.33301 33.833 10 49.5s15.834 29.334 27.501 41.001s25.334 21 41.001 28s32.5 10.5 50.5 10.5c17.333 0 33.833 -3.5 49.5 -10.5s29.334 -16.333 41.001 -28s21 -25.334 28 -41.001s10.5 -32.167 10.5 -49.5z
" />
    <glyph glyph-name="Igrave" unicode="&#xcc;" horiz-adv-x="566" 
d="M413 0h-260v1434h260v-1434zM-137 1999l482 -280l-70 -150l-522 187z" />
    <glyph glyph-name="Iacute" unicode="&#xcd;" horiz-adv-x="566" 
d="M413 0h-260v1434h260v-1434zM805 1756l-522 -187l-69 150l481 280z" />
    <glyph glyph-name="Icircumflex" unicode="&#xce;" horiz-adv-x="566" 
d="M413 0h-260v1434h260v-1434zM633 1569l-348 180l-348 -180l-121 168l469 266l469 -266z" />
    <glyph glyph-name="Idieresis" unicode="&#xcf;" horiz-adv-x="566" 
d="M413 0h-260v1434h260v-1434zM182 1725c0 -18 -3.5 -34.833 -10.5 -50.5s-16.333 -29.334 -28 -41.001s-25.334 -20.834 -41.001 -27.501s-32.167 -10 -49.5 -10c-18 0 -34.833 3.33301 -50.5 10s-29.334 15.834 -41.001 27.501s-20.834 25.334 -27.501 41.001
s-10 32.5 -10 50.5c0 17.333 3.33301 33.833 10 49.5s15.834 29.334 27.501 41.001s25.334 21 41.001 28s32.5 10.5 50.5 10.5c17.333 0 33.833 -3.5 49.5 -10.5s29.334 -16.333 41.001 -28s21 -25.334 28 -41.001s10.5 -32.167 10.5 -49.5zM645 1725
c0 -18 -3.5 -34.833 -10.5 -50.5s-16.333 -29.334 -28 -41.001s-25.334 -20.834 -41.001 -27.501s-32.167 -10 -49.5 -10c-18 0 -34.833 3.33301 -50.5 10s-29.334 15.834 -41.001 27.501s-20.834 25.334 -27.501 41.001s-10 32.5 -10 50.5c0 17.333 3.33301 33.833 10 49.5
s15.834 29.334 27.501 41.001s25.334 21 41.001 28s32.5 10.5 50.5 10.5c17.333 0 33.833 -3.5 49.5 -10.5s29.334 -16.333 41.001 -28s21 -25.334 28 -41.001s10.5 -32.167 10.5 -49.5z" />
    <glyph glyph-name="Eth" unicode="&#xd0;" horiz-adv-x="1920" 
d="M1816 600c0 -87.333 -15.833 -167.668 -47.5 -241.001s-74.834 -136.5 -129.501 -189.5s-118.167 -94.5 -190.5 -124.5s-149.166 -45 -230.499 -45h-705c-18 0 -34.833 3.33301 -50.5 10s-29.5 15.834 -41.5 27.501s-21.5 25.5 -28.5 41.5s-10.5 33.333 -10.5 52v469
h-338v234h338v469c0 18 3.5 35 10.5 51s16.5 30 28.5 42s25.833 21.333 41.5 28s32.5 10 50.5 10h705c78 0 153.167 -14.667 225.5 -44s136 -70.5 191 -123.5s99 -116.167 132 -189.5s49.5 -154.333 49.5 -243v-234zM644 599.998v-340h572c52 0 98.833 8.5 140.5 25.5
s77.334 40.5 107.001 70.5s52.5 65.833 68.5 107.5s24 87.167 24 136.5v234c0 51.333 -9.33301 98 -28 140s-43.5 78 -74.5 108s-66.833 53 -107.5 69s-83.334 23.667 -128.001 23h-574v-340h338v-234h-338z" />
    <glyph glyph-name="Ntilde" unicode="&#xd1;" horiz-adv-x="1735" 
d="M1584 111c0 -18.667 -3.5 -36.001 -10.5 -52.001s-16.333 -29.833 -28 -41.5s-25.5 -20.834 -41.5 -27.501s-33 -10 -51 -10c-16 0 -32.167 3 -48.5 9s-30.833 15.667 -43.5 29l-950 992v-1010h-260v1323c0 26.667 7.5 50.834 22.5 72.501s34.167 37.834 57.5 48.501
c24.667 10 50 12.5 76 7.5s48.333 -17.167 67 -36.5l950 -991v1010h260v-1323zM1261 1841c0 -64 -6.66797 -117.999 -20.001 -161.999s-31.333 -79.5 -54 -106.5s-49.167 -46.333 -79.5 -58s-62.5 -17.5 -96.5 -17.5c-36 0 -66.333 6.33301 -91 19s-46.667 26.5 -66 41.5
l-55 41.5c-17.333 12.667 -36.666 19 -57.999 19c-20 0 -35.833 -5 -47.5 -15s-20.5 -21.833 -26.5 -35.5s-10 -27.167 -12 -40.5s-3.33301 -23.333 -4 -30h-177c0 56.667 6.83301 106.5 20.5 149.5s32 79 55 108s49.667 50.667 80 65s62.5 21.5 96.5 21.5
c31.333 0 58.5 -6.33301 81.5 -19s44.5 -26.5 64.5 -41.5s39.5 -28.667 58.5 -41s40.5 -18.5 64.5 -18.5c20 0 35.833 5 47.5 15s20.5 21.5 26.5 34.5s10 26.167 12 39.5s3.33301 23.666 4 30.999h176z" />
    <glyph glyph-name="Ograve" unicode="&#xd2;" horiz-adv-x="1762" 
d="M1656 580c0 -87.333 -15 -167.666 -45 -240.999s-71.667 -136.666 -125 -189.999s-116.5 -94.833 -189.5 -124.5s-152.5 -44.5 -238.5 -44.5h-352c-86 0 -165.667 14.833 -239 44.5s-136.666 71.167 -189.999 124.5s-95.166 116.666 -125.499 189.999
s-45.5 153.666 -45.5 240.999v274c0 86.667 15.167 166.834 45.5 240.501s72.166 137 125.499 190s116.666 94.5 189.999 124.5s153 45 239 45h352c86 0 165.5 -15 238.5 -45s136.167 -71.5 189.5 -124.5s95 -116.333 125 -190s45 -153.834 45 -240.501v-274zM1396 854
c0 51.333 -8.16699 97.833 -24.5 139.5s-39.333 77.334 -69 107.001s-65.334 52.667 -107.001 69s-87.5 24.5 -137.5 24.5h-352c-50.667 0 -96.834 -8.16699 -138.501 -24.5s-77.5 -39.333 -107.5 -69s-53.167 -65.334 -69.5 -107.001s-24.5 -88.167 -24.5 -139.5v-274
c0 -51.333 8.16699 -97.833 24.5 -139.5s39.5 -77.334 69.5 -107.001s65.833 -52.667 107.5 -69s87.834 -24.5 138.501 -24.5h350c50.667 0 96.834 8.16699 138.501 24.5s77.5 39.333 107.5 69s53.167 65.334 69.5 107.001s24.5 88.167 24.5 139.5v274zM460 1999l482 -280
l-70 -150l-522 187z" />
    <glyph glyph-name="Oacute" unicode="&#xd3;" horiz-adv-x="1762" 
d="M1656 580c0 -87.333 -15 -167.666 -45 -240.999s-71.667 -136.666 -125 -189.999s-116.5 -94.833 -189.5 -124.5s-152.5 -44.5 -238.5 -44.5h-352c-86 0 -165.667 14.833 -239 44.5s-136.666 71.167 -189.999 124.5s-95.166 116.666 -125.499 189.999
s-45.5 153.666 -45.5 240.999v274c0 86.667 15.167 166.834 45.5 240.501s72.166 137 125.499 190s116.666 94.5 189.999 124.5s153 45 239 45h352c86 0 165.5 -15 238.5 -45s136.167 -71.5 189.5 -124.5s95 -116.333 125 -190s45 -153.834 45 -240.501v-274zM1396 854
c0 51.333 -8.16699 97.833 -24.5 139.5s-39.333 77.334 -69 107.001s-65.334 52.667 -107.001 69s-87.5 24.5 -137.5 24.5h-352c-50.667 0 -96.834 -8.16699 -138.501 -24.5s-77.5 -39.333 -107.5 -69s-53.167 -65.334 -69.5 -107.001s-24.5 -88.167 -24.5 -139.5v-274
c0 -51.333 8.16699 -97.833 24.5 -139.5s39.5 -77.334 69.5 -107.001s65.833 -52.667 107.5 -69s87.834 -24.5 138.501 -24.5h350c50.667 0 96.834 8.16699 138.501 24.5s77.5 39.333 107.5 69s53.167 65.334 69.5 107.001s24.5 88.167 24.5 139.5v274zM1391 1756l-522 -187
l-69 150l481 280z" />
    <glyph glyph-name="Ocircumflex" unicode="&#xd4;" horiz-adv-x="1762" 
d="M1656 580c0 -87.333 -15 -167.666 -45 -240.999s-71.667 -136.666 -125 -189.999s-116.5 -94.833 -189.5 -124.5s-152.5 -44.5 -238.5 -44.5h-352c-86 0 -165.667 14.833 -239 44.5s-136.666 71.167 -189.999 124.5s-95.166 116.666 -125.499 189.999
s-45.5 153.666 -45.5 240.999v274c0 86.667 15.167 166.834 45.5 240.501s72.166 137 125.499 190s116.666 94.5 189.999 124.5s153 45 239 45h352c86 0 165.5 -15 238.5 -45s136.167 -71.5 189.5 -124.5s95 -116.333 125 -190s45 -153.834 45 -240.501v-274zM1396 854
c0 51.333 -8.16699 97.833 -24.5 139.5s-39.333 77.334 -69 107.001s-65.334 52.667 -107.001 69s-87.5 24.5 -137.5 24.5h-352c-50.667 0 -96.834 -8.16699 -138.501 -24.5s-77.5 -39.333 -107.5 -69s-53.167 -65.334 -69.5 -107.001s-24.5 -88.167 -24.5 -139.5v-274
c0 -51.333 8.16699 -97.833 24.5 -139.5s39.5 -77.334 69.5 -107.001s65.833 -52.667 107.5 -69s87.834 -24.5 138.501 -24.5h350c50.667 0 96.834 8.16699 138.501 24.5s77.5 39.333 107.5 69s53.167 65.334 69.5 107.001s24.5 88.167 24.5 139.5v274zM1228 1569l-348 180
l-348 -180l-121 168l469 266l469 -266z" />
    <glyph glyph-name="Otilde" unicode="&#xd5;" horiz-adv-x="1762" 
d="M1656 580c0 -87.333 -15 -167.666 -45 -240.999s-71.667 -136.666 -125 -189.999s-116.5 -94.833 -189.5 -124.5s-152.5 -44.5 -238.5 -44.5h-352c-86 0 -165.667 14.833 -239 44.5s-136.666 71.167 -189.999 124.5s-95.166 116.666 -125.499 189.999
s-45.5 153.666 -45.5 240.999v274c0 86.667 15.167 166.834 45.5 240.501s72.166 137 125.499 190s116.666 94.5 189.999 124.5s153 45 239 45h352c86 0 165.5 -15 238.5 -45s136.167 -71.5 189.5 -124.5s95 -116.333 125 -190s45 -153.834 45 -240.501v-274zM1396 854
c0 51.333 -8.16699 97.833 -24.5 139.5s-39.333 77.334 -69 107.001s-65.334 52.667 -107.001 69s-87.5 24.5 -137.5 24.5h-352c-50.667 0 -96.834 -8.16699 -138.501 -24.5s-77.5 -39.333 -107.5 -69s-53.167 -65.334 -69.5 -107.001s-24.5 -88.167 -24.5 -139.5v-274
c0 -51.333 8.16699 -97.833 24.5 -139.5s39.5 -77.334 69.5 -107.001s65.833 -52.667 107.5 -69s87.834 -24.5 138.501 -24.5h350c50.667 0 96.834 8.16699 138.501 24.5s77.5 39.333 107.5 69s53.167 65.334 69.5 107.001s24.5 88.167 24.5 139.5v274zM1273 1941
c0 -64 -6.66797 -117.999 -20.001 -161.999s-31.333 -79.5 -54 -106.5s-49.167 -46.333 -79.5 -58s-62.5 -17.5 -96.5 -17.5c-36 0 -66.333 6.33301 -91 19s-46.667 26.5 -66 41.5l-55 41.5c-17.333 12.667 -36.666 19 -57.999 19c-20 0 -35.833 -5 -47.5 -15
s-20.5 -21.833 -26.5 -35.5s-10 -27.167 -12 -40.5s-3.33301 -23.333 -4 -30h-177c0 56.667 6.83301 106.5 20.5 149.5s32 79 55 108s49.667 50.667 80 65s62.5 21.5 96.5 21.5c31.333 0 58.5 -6.33301 81.5 -19s44.5 -26.5 64.5 -41.5s39.5 -28.667 58.5 -41
s40.5 -18.5 64.5 -18.5c20 0 35.833 5 47.5 15s20.5 21.5 26.5 34.5s10 26.167 12 39.5s3.33301 23.666 4 30.999h176z" />
    <glyph glyph-name="Odieresis" unicode="&#xd6;" horiz-adv-x="1762" 
d="M1656 580c0 -87.333 -15 -167.666 -45 -240.999s-71.667 -136.666 -125 -189.999s-116.5 -94.833 -189.5 -124.5s-152.5 -44.5 -238.5 -44.5h-352c-86 0 -165.667 14.833 -239 44.5s-136.666 71.167 -189.999 124.5s-95.166 116.666 -125.499 189.999
s-45.5 153.666 -45.5 240.999v274c0 86.667 15.167 166.834 45.5 240.501s72.166 137 125.499 190s116.666 94.5 189.999 124.5s153 45 239 45h352c86 0 165.5 -15 238.5 -45s136.167 -71.5 189.5 -124.5s95 -116.333 125 -190s45 -153.834 45 -240.501v-274zM1396 854
c0 51.333 -8.16699 97.833 -24.5 139.5s-39.333 77.334 -69 107.001s-65.334 52.667 -107.001 69s-87.5 24.5 -137.5 24.5h-352c-50.667 0 -96.834 -8.16699 -138.501 -24.5s-77.5 -39.333 -107.5 -69s-53.167 -65.334 -69.5 -107.001s-24.5 -88.167 -24.5 -139.5v-274
c0 -51.333 8.16699 -97.833 24.5 -139.5s39.5 -77.334 69.5 -107.001s65.833 -52.667 107.5 -69s87.834 -24.5 138.501 -24.5h350c50.667 0 96.834 8.16699 138.501 24.5s77.5 39.333 107.5 69s53.167 65.334 69.5 107.001s24.5 88.167 24.5 139.5v274zM777 1725
c0 -18 -3.5 -34.833 -10.5 -50.5s-16.333 -29.334 -28 -41.001s-25.334 -20.834 -41.001 -27.501s-32.167 -10 -49.5 -10c-18 0 -34.833 3.33301 -50.5 10s-29.334 15.834 -41.001 27.501s-20.834 25.334 -27.501 41.001s-10 32.5 -10 50.5c0 17.333 3.33301 33.833 10 49.5
s15.834 29.334 27.501 41.001s25.334 21 41.001 28s32.5 10.5 50.5 10.5c17.333 0 33.833 -3.5 49.5 -10.5s29.334 -16.333 41.001 -28s21 -25.334 28 -41.001s10.5 -32.167 10.5 -49.5zM1240 1725c0 -18 -3.5 -34.833 -10.5 -50.5s-16.333 -29.334 -28 -41.001
s-25.334 -20.834 -41.001 -27.501s-32.167 -10 -49.5 -10c-18 0 -34.833 3.33301 -50.5 10s-29.334 15.834 -41.001 27.501s-20.834 25.334 -27.501 41.001s-10 32.5 -10 50.5c0 17.333 3.33301 33.833 10 49.5s15.834 29.334 27.501 41.001s25.334 21 41.001 28
s32.5 10.5 50.5 10.5c17.333 0 33.833 -3.5 49.5 -10.5s29.334 -16.333 41.001 -28s21 -25.334 28 -41.001s10.5 -32.167 10.5 -49.5z" />
    <glyph glyph-name="multiply" unicode="&#xd7;" horiz-adv-x="1186" 
d="M1093 1069l-352 -352l352 -352h-295l-205 204l-205 -204h-295l353 352l-353 352h295l205 -205l205 205h295z" />
    <glyph glyph-name="Oslash" unicode="&#xd8;" horiz-adv-x="1764" 
d="M1482 1290c54.667 -53.333 97.6699 -117.001 129.003 -191.001s47 -155.667 47 -245v-274c0 -87.333 -15 -167.666 -45 -240.999s-71.667 -136.666 -125 -189.999s-116.5 -94.833 -189.5 -124.5s-152.5 -44.5 -238.5 -44.5h-352c-40 0 -78.833 3.33301 -116.5 10
s-73.834 16 -108.501 28l-97 -122h-297l195 247c-56 54 -99.333 118 -130 192s-46 155.667 -46 245v274c0 87.333 15.167 167.833 45.5 241.5s72.166 137 125.499 190s116.666 94.333 189.999 124s153 44.5 239 44.5h352c40 0 78.667 -3.33301 116 -10
s73 -16.334 107 -29.001l97 123h297zM1398 853.999c0 46 -6.83301 88.499 -20.5 127.499s-32.834 72.833 -57.501 101.5l-661 -841c8 -1.33301 15.833 -2 23.5 -2h25.5h350c50.667 0 96.834 8.16699 138.501 24.5s77.5 39.333 107.5 69s53.167 65.334 69.5 107.001
s24.5 88.167 24.5 139.5v274zM368.003 579.998c0 -48 6.83301 -90.999 20.5 -128.999s32.834 -71.667 57.501 -101l661 842c-8 1.33301 -15.667 2 -23 2h-24h-352c-50.667 0 -96.834 -8.16699 -138.501 -24.5s-77.5 -39.333 -107.5 -69s-53.167 -65.334 -69.5 -107.001
s-24.5 -88.167 -24.5 -139.5v-274z" />
    <glyph glyph-name="Ugrave" unicode="&#xd9;" horiz-adv-x="1707" 
d="M1556 131c0 -18.667 -3.33203 -36.001 -9.99902 -52.001s-16 -29.833 -28 -41.5s-26 -20.834 -42 -27.501s-33 -10 -51 -10h-586c-55.333 0 -111.333 6 -168 18s-111.5 30.5 -164.5 55.5s-102.833 56.833 -149.5 95.5s-87.5 84.5 -122.5 137.5s-62.5 113.667 -82.5 182
s-30 144.5 -30 228.5v717h260v-717c0 -73.333 10.167 -135.333 30.5 -186s46.166 -93 77.499 -127s65.666 -60.667 102.999 -80s72.833 -33.666 106.5 -42.999s63.334 -15.166 89.001 -17.499s42.5 -3.5 50.5 -3.5h457v1174h260v-1303zM458.001 1917l482 -280l-70 -150
l-522 187z" />
    <glyph glyph-name="Uacute" unicode="&#xda;" horiz-adv-x="1707" 
d="M1556 131c0 -18.667 -3.33203 -36.001 -9.99902 -52.001s-16 -29.833 -28 -41.5s-26 -20.834 -42 -27.501s-33 -10 -51 -10h-586c-55.333 0 -111.333 6 -168 18s-111.5 30.5 -164.5 55.5s-102.833 56.833 -149.5 95.5s-87.5 84.5 -122.5 137.5s-62.5 113.667 -82.5 182
s-30 144.5 -30 228.5v717h260v-717c0 -73.333 10.167 -135.333 30.5 -186s46.166 -93 77.499 -127s65.666 -60.667 102.999 -80s72.833 -33.666 106.5 -42.999s63.334 -15.166 89.001 -17.499s42.5 -3.5 50.5 -3.5h457v1174h260v-1303zM1348 1674l-522 -187l-69 150l481 280
z" />
    <glyph glyph-name="Ucircumflex" unicode="&#xdb;" horiz-adv-x="1707" 
d="M1556 131c0 -18.667 -3.33203 -36.001 -9.99902 -52.001s-16 -29.833 -28 -41.5s-26 -20.834 -42 -27.501s-33 -10 -51 -10h-586c-55.333 0 -111.333 6 -168 18s-111.5 30.5 -164.5 55.5s-102.833 56.833 -149.5 95.5s-87.5 84.5 -122.5 137.5s-62.5 113.667 -82.5 182
s-30 144.5 -30 228.5v717h260v-717c0 -73.333 10.167 -135.333 30.5 -186s46.166 -93 77.499 -127s65.666 -60.667 102.999 -80s72.833 -33.666 106.5 -42.999s63.334 -15.166 89.001 -17.499s42.5 -3.5 50.5 -3.5h457v1174h260v-1303zM1187 1569l-348 180l-348 -180
l-121 168l469 266l469 -266z" />
    <glyph glyph-name="Udieresis" unicode="&#xdc;" horiz-adv-x="1707" 
d="M1556 131c0 -18.667 -3.33203 -36.001 -9.99902 -52.001s-16 -29.833 -28 -41.5s-26 -20.834 -42 -27.501s-33 -10 -51 -10h-586c-55.333 0 -111.333 6 -168 18s-111.5 30.5 -164.5 55.5s-102.833 56.833 -149.5 95.5s-87.5 84.5 -122.5 137.5s-62.5 113.667 -82.5 182
s-30 144.5 -30 228.5v717h260v-717c0 -73.333 10.167 -135.333 30.5 -186s46.166 -93 77.499 -127s65.666 -60.667 102.999 -80s72.833 -33.666 106.5 -42.999s63.334 -15.166 89.001 -17.499s42.5 -3.5 50.5 -3.5h457v1174h260v-1303zM736.001 1657
c0 -18 -3.5 -34.833 -10.5 -50.5s-16.333 -29.334 -28 -41.001s-25.334 -20.834 -41.001 -27.501s-32.167 -10 -49.5 -10c-18 0 -34.833 3.33301 -50.5 10s-29.334 15.834 -41.001 27.501s-20.834 25.334 -27.501 41.001s-10 32.5 -10 50.5c0 17.333 3.33301 33.833 10 49.5
s15.834 29.334 27.501 41.001s25.334 21 41.001 28s32.5 10.5 50.5 10.5c17.333 0 33.833 -3.5 49.5 -10.5s29.334 -16.333 41.001 -28s21 -25.334 28 -41.001s10.5 -32.167 10.5 -49.5zM1199 1657c0 -18 -3.5 -34.833 -10.5 -50.5s-16.333 -29.334 -28 -41.001
s-25.334 -20.834 -41.001 -27.501s-32.167 -10 -49.5 -10c-18 0 -34.833 3.33301 -50.5 10s-29.334 15.834 -41.001 27.501s-20.834 25.334 -27.501 41.001s-10 32.5 -10 50.5c0 17.333 3.33301 33.833 10 49.5s15.834 29.334 27.501 41.001s25.334 21 41.001 28
s32.5 10.5 50.5 10.5c17.333 0 33.833 -3.5 49.5 -10.5s29.334 -16.333 41.001 -28s21 -25.334 28 -41.001s10.5 -32.167 10.5 -49.5z" />
    <glyph glyph-name="Yacute" unicode="&#xdd;" horiz-adv-x="1600" 
d="M1517 954c0 -59.333 -7.5 -112.33 -22.5 -158.997s-34.833 -87.834 -59.5 -123.501s-53.5 -66.167 -86.5 -91.5s-67.167 -46.166 -102.5 -62.499s-71.166 -28.166 -107.499 -35.499s-70.5 -11 -102.5 -11h-105v-471h-262v471h-104c-32 0 -66.167 3.66699 -102.5 11
s-72.333 19.166 -108 35.499s-69.834 37.166 -102.501 62.499s-61.5 55.833 -86.5 91.5s-45 77 -60 124s-22.5 99.833 -22.5 158.5v480h260v-480c0 -34 5.33301 -64.5 16 -91.5s25.667 -50.167 45 -69.5s42.833 -34.166 70.5 -44.499s58.5 -15.5 92.5 -15.5h469
c24.667 4 50 9.16699 76 15.5s49.667 17.166 71 32.499s39 36.666 53 63.999s21 63.666 21 108.999v480h260v-480zM1391 1612l-522 -187l-69 150l481 280z" />
    <glyph glyph-name="Thorn" unicode="&#xde;" horiz-adv-x="1662" 
d="M413 1235c17.333 5.33301 35 9.33105 53 11.998s35 4 51 4h588c58.667 0 111.334 -7.33301 158.001 -22s87.834 -34.5 123.501 -59.5s66 -53.833 91 -86.5s45.667 -67 62 -103s28.166 -72.167 35.499 -108.5s11 -70.833 11 -103.5v-117
c0 -59.333 -7.33301 -112.333 -22 -159s-34.5 -87.667 -59.5 -123s-53.833 -65.666 -86.5 -90.999s-66.834 -46 -102.501 -62s-71.667 -27.667 -108 -35s-70.5 -11 -102.5 -11h-588v260h588c33.333 2.66699 63.5 9.33398 90.5 20.001s50.167 25.334 69.5 44.001
s34.333 41.167 45 67.5s16 56.166 16 89.499v117c0 32.667 -5.16699 62.667 -15.5 90s-25 50.833 -44 70.5s-42.167 35 -69.5 46s-58 16.5 -92 16.5h-586c-34 0 -59.833 -8.5 -77.5 -25.5s-27.167 -40.5 -28.5 -70.5v-999h-260v1654h260v-315z" />
    <glyph glyph-name="germandbls" unicode="&#xdf;" horiz-adv-x="1604" 
d="M1552 362c0 -66.667 -11.999 -122.999 -35.999 -168.999s-54.167 -83.333 -90.5 -112s-75.666 -49.334 -117.999 -62.001s-81.833 -19 -118.5 -19h-700v260h700c34 0 60 8.83301 78 26.5s27 42.834 27 75.501c-2 70 -37 105 -105 105h-401
c-57.333 0 -105.833 9.83301 -145.5 29.5s-71.834 44.5 -96.501 74.5s-42.5 62.5 -53.5 97.5s-16.5 67.5 -16.5 97.5c0 56.667 10.333 104.834 31 144.501s46.667 71.834 78 96.501s65.166 42.5 101.499 53.5s70.166 16.5 101.499 16.5h51c69.333 0 104 34.333 104 103
c-2 69.333 -36.667 104 -104 104h-348c-35.333 0 -61.666 -8.83301 -78.999 -26.5s-26 -43.5 -26 -77.5v-1180h-260v1180c0 66.667 12 123 36 169s54.167 83.333 90.5 112s75.666 49.334 117.999 62.001s81.833 19 118.5 19h350c44 0 83.667 -5.5 119 -16.5
s66.5 -26 93.5 -45s50.167 -40.667 69.5 -65s35.166 -50 47.499 -77s21.333 -54.167 27 -81.5s8.5 -53 8.5 -77c0 -66.667 -12.167 -123.167 -36.5 -169.5s-54.666 -83.833 -90.999 -112.5s-75.833 -49.334 -118.5 -62.001s-82.334 -19 -119.001 -19h-49
c-13.333 0 -23.666 -1.66699 -30.999 -5s-12.666 -7.33301 -15.999 -12s-5.33301 -10 -6 -16s-0.666992 -11.333 0 -16c0 -10 1.5 -17.833 4.5 -23.5s6.83301 -9.83398 11.5 -12.501s10.167 -4.16699 16.5 -4.5s12.5 -0.5 18.5 -0.5h401c44 0 83.667 -5.66699 119 -17
s66.5 -26.333 93.5 -45s50 -40.334 69 -65.001s34.5 -50.5 46.5 -77.5s20.833 -54.333 26.5 -82s8.5 -53.834 8.5 -78.501z" />
    <glyph glyph-name="agrave" unicode="&#xe0;" 
d="M1238 358c0 -36 -6.33301 -74.832 -19 -116.499s-33.167 -80.334 -61.5 -116.001s-65.333 -65.5 -111 -89.5s-101.167 -36 -166.5 -36h-469c-36 -0 -74.833 6.33301 -116.5 19s-80.334 33.167 -116.001 61.5s-65.5 65.333 -89.5 111s-36 101.167 -36 166.5
c0 36 6.33301 75 19 117s33.167 80.833 61.5 116.5s65.333 65.5 111 89.5s101.167 36 166.5 36h469v-248h-469c-35.333 0 -62.666 -10.833 -81.999 -32.5s-29 -48.5 -29 -80.5c0 -34 11.167 -60.5 33.5 -79.5s48.833 -28.5 79.5 -28.5h467c35.333 0 62.666 10.667 81.999 32
s29 48 29 80v363c0 34 -10.5 61 -31.5 81s-47.5 30 -79.5 30h-571v247h571c36 0 74.833 -6.33301 116.5 -19s80.334 -33.167 116.001 -61.5s65.5 -65.333 89.5 -111s36 -101.167 36 -166.5v-365zM221 1650l482 -280l-70 -150l-522 187z" />
    <glyph glyph-name="aacute" unicode="&#xe1;" 
d="M1238 358c0 -36 -6.33301 -74.832 -19 -116.499s-33.167 -80.334 -61.5 -116.001s-65.333 -65.5 -111 -89.5s-101.167 -36 -166.5 -36h-469c-36 -0 -74.833 6.33301 -116.5 19s-80.334 33.167 -116.001 61.5s-65.5 65.333 -89.5 111s-36 101.167 -36 166.5
c0 36 6.33301 75 19 117s33.167 80.833 61.5 116.5s65.333 65.5 111 89.5s101.167 36 166.5 36h469v-248h-469c-35.333 0 -62.666 -10.833 -81.999 -32.5s-29 -48.5 -29 -80.5c0 -34 11.167 -60.5 33.5 -79.5s48.833 -28.5 79.5 -28.5h467c35.333 0 62.666 10.667 81.999 32
s29 48 29 80v363c0 34 -10.5 61 -31.5 81s-47.5 30 -79.5 30h-571v247h571c36 0 74.833 -6.33301 116.5 -19s80.334 -33.167 116.001 -61.5s65.5 -65.333 89.5 -111s36 -101.167 36 -166.5v-365zM1207 1407l-522 -187l-69 150l481 280z" />
    <glyph glyph-name="acircumflex" unicode="&#xe2;" 
d="M1238 358c0 -36 -6.33301 -74.832 -19 -116.499s-33.167 -80.334 -61.5 -116.001s-65.333 -65.5 -111 -89.5s-101.167 -36 -166.5 -36h-469c-36 -0 -74.833 6.33301 -116.5 19s-80.334 33.167 -116.001 61.5s-65.5 65.333 -89.5 111s-36 101.167 -36 166.5
c0 36 6.33301 75 19 117s33.167 80.833 61.5 116.5s65.333 65.5 111 89.5s101.167 36 166.5 36h469v-248h-469c-35.333 0 -62.666 -10.833 -81.999 -32.5s-29 -48.5 -29 -80.5c0 -34 11.167 -60.5 33.5 -79.5s48.833 -28.5 79.5 -28.5h467c35.333 0 62.666 10.667 81.999 32
s29 48 29 80v363c0 34 -10.5 61 -31.5 81s-47.5 30 -79.5 30h-571v247h571c36 0 74.833 -6.33301 116.5 -19s80.334 -33.167 116.001 -61.5s65.5 -65.333 89.5 -111s36 -101.167 36 -166.5v-365zM993 1220l-348 180l-348 -180l-121 168l469 266l469 -266z" />
    <glyph glyph-name="atilde" unicode="&#xe3;" 
d="M1238 358c0 -36 -6.33301 -74.832 -19 -116.499s-33.167 -80.334 -61.5 -116.001s-65.333 -65.5 -111 -89.5s-101.167 -36 -166.5 -36h-469c-36 -0 -74.833 6.33301 -116.5 19s-80.334 33.167 -116.001 61.5s-65.5 65.333 -89.5 111s-36 101.167 -36 166.5
c0 36 6.33301 75 19 117s33.167 80.833 61.5 116.5s65.333 65.5 111 89.5s101.167 36 166.5 36h469v-248h-469c-35.333 0 -62.666 -10.833 -81.999 -32.5s-29 -48.5 -29 -80.5c0 -34 11.167 -60.5 33.5 -79.5s48.833 -28.5 79.5 -28.5h467c35.333 0 62.666 10.667 81.999 32
s29 48 29 80v363c0 34 -10.5 61 -31.5 81s-47.5 30 -79.5 30h-571v247h571c36 0 74.833 -6.33301 116.5 -19s80.334 -33.167 116.001 -61.5s65.5 -65.333 89.5 -111s36 -101.167 36 -166.5v-365zM1038 1572c0 -64 -6.66797 -117.999 -20.001 -161.999
s-31.333 -79.5 -54 -106.5s-49.167 -46.333 -79.5 -58s-62.5 -17.5 -96.5 -17.5c-36 0 -66.333 6.33301 -91 19s-46.667 26.5 -66 41.5l-55 41.5c-17.333 12.667 -36.666 19 -57.999 19c-20 0 -35.833 -5 -47.5 -15s-20.5 -21.833 -26.5 -35.5s-10 -27.167 -12 -40.5
s-3.33301 -23.333 -4 -30h-177c0 56.667 6.83301 106.5 20.5 149.5s32 79 55 108s49.667 50.667 80 65s62.5 21.5 96.5 21.5c31.333 0 58.5 -6.33301 81.5 -19s44.5 -26.5 64.5 -41.5s39.5 -28.667 58.5 -41s40.5 -18.5 64.5 -18.5c20 0 35.833 5 47.5 15
s20.5 21.5 26.5 34.5s10 26.167 12 39.5s3.33301 23.666 4 30.999h176z" />
    <glyph glyph-name="adieresis" unicode="&#xe4;" 
d="M1238 358c0 -36 -6.33301 -74.832 -19 -116.499s-33.167 -80.334 -61.5 -116.001s-65.333 -65.5 -111 -89.5s-101.167 -36 -166.5 -36h-469c-36 -0 -74.833 6.33301 -116.5 19s-80.334 33.167 -116.001 61.5s-65.5 65.333 -89.5 111s-36 101.167 -36 166.5
c0 36 6.33301 75 19 117s33.167 80.833 61.5 116.5s65.333 65.5 111 89.5s101.167 36 166.5 36h469v-248h-469c-35.333 0 -62.666 -10.833 -81.999 -32.5s-29 -48.5 -29 -80.5c0 -34 11.167 -60.5 33.5 -79.5s48.833 -28.5 79.5 -28.5h467c35.333 0 62.666 10.667 81.999 32
s29 48 29 80v363c0 34 -10.5 61 -31.5 81s-47.5 30 -79.5 30h-571v247h571c36 0 74.833 -6.33301 116.5 -19s80.334 -33.167 116.001 -61.5s65.5 -65.333 89.5 -111s36 -101.167 36 -166.5v-365zM542 1376c0 -18 -3.5 -34.833 -10.5 -50.5s-16.333 -29.334 -28 -41.001
s-25.334 -20.834 -41.001 -27.501s-32.167 -10 -49.5 -10c-18 0 -34.833 3.33301 -50.5 10s-29.334 15.834 -41.001 27.501s-20.834 25.334 -27.501 41.001s-10 32.5 -10 50.5c0 17.333 3.33301 33.833 10 49.5s15.834 29.334 27.501 41.001s25.334 21 41.001 28
s32.5 10.5 50.5 10.5c17.333 0 33.833 -3.5 49.5 -10.5s29.334 -16.333 41.001 -28s21 -25.334 28 -41.001s10.5 -32.167 10.5 -49.5zM1005 1376c0 -18 -3.5 -34.833 -10.5 -50.5s-16.333 -29.334 -28 -41.001s-25.334 -20.834 -41.001 -27.501s-32.167 -10 -49.5 -10
c-18 0 -34.833 3.33301 -50.5 10s-29.334 15.834 -41.001 27.501s-20.834 25.334 -27.501 41.001s-10 32.5 -10 50.5c0 17.333 3.33301 33.833 10 49.5s15.834 29.334 27.501 41.001s25.334 21 41.001 28s32.5 10.5 50.5 10.5c17.333 0 33.833 -3.5 49.5 -10.5
s29.334 -16.333 41.001 -28s21 -25.334 28 -41.001s10.5 -32.167 10.5 -49.5z" />
    <glyph glyph-name="aring" unicode="&#xe5;" 
d="M1238 358c0 -36 -6.33301 -74.832 -19 -116.499s-33.167 -80.334 -61.5 -116.001s-65.333 -65.5 -111 -89.5s-101.167 -36 -166.5 -36h-469c-36 -0 -74.833 6.33301 -116.5 19s-80.334 33.167 -116.001 61.5s-65.5 65.333 -89.5 111s-36 101.167 -36 166.5
c0 36 6.33301 75 19 117s33.167 80.833 61.5 116.5s65.333 65.5 111 89.5s101.167 36 166.5 36h469v-248h-469c-35.333 0 -62.666 -10.833 -81.999 -32.5s-29 -48.5 -29 -80.5c0 -34 11.167 -60.5 33.5 -79.5s48.833 -28.5 79.5 -28.5h467c35.333 0 62.666 10.667 81.999 32
s29 48 29 80v363c0 34 -10.5 61 -31.5 81s-47.5 30 -79.5 30h-571v247h571c36 0 74.833 -6.33301 116.5 -19s80.334 -33.167 116.001 -61.5s65.5 -65.333 89.5 -111s36 -101.167 36 -166.5v-365zM354 1415c0 32.667 7.1709 63.5 21.5039 92.5s34.166 54.333 59.499 76
s55.833 38.834 91.5 51.501s75.167 19 118.5 19c47.333 0 89.166 -6.33301 125.499 -19s66.666 -29.834 90.999 -51.501s42.666 -47 54.999 -76s18.5 -59.833 18.5 -92.5s-6.66699 -63.5 -20 -92.5s-32.5 -54.5 -57.5 -76.5s-55.5 -39.333 -91.5 -52s-76.333 -19 -121 -19
c-46 0 -87 6.33301 -123 19s-66.5 30 -91.5 52s-44 47.5 -57 76.5s-19.5 59.833 -19.5 92.5zM546.004 1415c0 -27.333 8.5 -50.333 25.5 -69s41.5 -28 73.5 -28s56 9.33301 72 28s24 41.667 24 69c0 26.667 -8 49.334 -24 68.001s-40 28 -72 28s-56.5 -9.33301 -73.5 -28
s-25.5 -41.334 -25.5 -68.001z" />
    <glyph glyph-name="ae" unicode="&#xe6;" horiz-adv-x="2231" 
d="M2176 723c0 -36 -6.33496 -74.8311 -19.002 -116.498s-33.167 -80.334 -61.5 -116.001s-65.333 -65.5 -111 -89.5s-101.167 -36 -166.5 -36h-469v247h469c35.333 0 62.5 10.833 81.5 32.5s28.5 48.5 28.5 80.5c0 34 -10.667 60.667 -32 80s-47.333 29 -78 29h-469
c-35.333 0 -62.666 -10.833 -81.999 -32.5s-29 -47.834 -29 -78.501v-365v-10c2 -32 13.667 -56.667 35 -74s47.333 -26 78 -26h467v-248h-469c-36 0 -75 6.5 -117 19.5s-81 33.833 -117 62.5c-28.667 -24.667 -62.167 -44.5 -100.5 -59.5s-83.166 -22.5 -134.499 -22.5
h-469c-36 -0 -74.833 6.33301 -116.5 19s-80.334 33.167 -116.001 61.5s-65.5 65.333 -89.5 111s-36 101.167 -36 166.5c0 36 6.33301 75 19 117s33.167 80.833 61.5 116.5s65.333 65.5 111 89.5s101.167 36 166.5 36h469v-248h-469
c-35.333 0 -62.666 -10.833 -81.999 -32.5s-29 -48.5 -29 -80.5c0 -34 11.167 -60.5 33.5 -79.5s48.833 -28.5 79.5 -28.5h467c35.333 0 62.666 10.667 81.999 32s29 48 29 80v363c0 34 -10.5 61 -31.5 81s-47.5 30 -79.5 30h-571v247h571c36 0 74.833 -6.33301 116.5 -19
s80.5 -33.667 116.5 -63c28 25.333 61.5 45.333 100.5 60s84.167 22 135.5 22h469c36 0 74.833 -6.33301 116.5 -19s80.334 -33.167 116.001 -61.5s65.5 -65.333 89.5 -111s36 -101.167 36 -166.5z" />
    <glyph glyph-name="ccedilla" unicode="&#xe7;" horiz-adv-x="1262" 
d="M1169 0l-398 -0.00195312l-26 -70c19.333 0 41.166 -2.33301 65.499 -7s47.333 -13.5 69 -26.5s39.834 -31.167 54.501 -54.5s22 -54 22 -92s-9.5 -70 -28.5 -96s-43.667 -47 -74 -63s-64.5 -27.333 -102.5 -34s-75.667 -10 -113 -10c-34 0 -62.333 0.833008 -85 2.5
s-42 3.66699 -58 6s-30.167 4.83301 -42.5 7.5s-24.833 5 -37.5 7v176c26.667 -12.667 57.5 -23.334 92.5 -32.001s71.167 -13 108.5 -13c38 0 69.667 3.83301 95 11.5s38 20.834 38 39.501c0 10.667 -4 19.334 -12 26.001s-18 11.834 -30 15.501s-24.833 6.16699 -38.5 7.5
s-25.834 2 -36.501 2c-15.333 0 -31.5 -1 -48.5 -3s-32.167 -5 -45.5 -9l78 209h-152c-36 -0 -75.333 6.33301 -118 19s-82.167 33.5 -118.5 62.5s-66.666 66.667 -90.999 113s-36.5 103.166 -36.5 170.499v352c0 24.667 2.83301 50.667 8.5 78s14.5 54.5 26.5 81.5
s27.5 52.833 46.5 77.5s42 46.334 69 65.001s58.167 33.667 93.5 45s75.333 17 120 17h705v-260h-705c-34 0 -59.833 -8.66699 -77.5 -26s-26.5 -44 -26.5 -80v-350c0 -34 9 -60 27 -78s44.333 -27 79 -27h703v-260z" />
    <glyph glyph-name="egrave" unicode="&#xe8;" 
d="M1285 723c0 -36 -6.33203 -74.833 -18.999 -116.5s-33.167 -80.334 -61.5 -116.001s-65.333 -65.5 -111 -89.5s-101.167 -36 -166.5 -36h-469v247h469c35.333 0 62.666 10.833 81.999 32.5s29 48.5 29 80.5c0 34 -10.833 60.667 -32.5 80s-47.834 29 -78.501 29h-469
c-35.333 0 -62.666 -10.833 -81.999 -32.5s-29 -48.5 -29 -80.5v-363c0 -34.667 10.833 -61.667 32.5 -81s48.5 -29 80.5 -29h467v-248h-469c-36 0 -74.833 6.33301 -116.5 19s-80.334 33.167 -116.001 61.5s-65.5 65.333 -89.5 111s-36 101.167 -36 166.5v365
c0 36 6.33301 74.833 19 116.5s33.167 80.334 61.5 116.001s65.333 65.5 111 89.5s101.167 36 166.5 36h469c36 0 74.833 -6.33301 116.5 -19s80.334 -33.167 116.001 -61.5s65.5 -65.333 89.5 -111s36 -101.167 36 -166.5zM252.001 1650l482 -280l-70 -150l-522 187z" />
    <glyph glyph-name="eacute" unicode="&#xe9;" 
d="M1285 723c0 -36 -6.33203 -74.833 -18.999 -116.5s-33.167 -80.334 -61.5 -116.001s-65.333 -65.5 -111 -89.5s-101.167 -36 -166.5 -36h-469v247h469c35.333 0 62.666 10.833 81.999 32.5s29 48.5 29 80.5c0 34 -10.833 60.667 -32.5 80s-47.834 29 -78.501 29h-469
c-35.333 0 -62.666 -10.833 -81.999 -32.5s-29 -48.5 -29 -80.5v-363c0 -34.667 10.833 -61.667 32.5 -81s48.5 -29 80.5 -29h467v-248h-469c-36 0 -74.833 6.33301 -116.5 19s-80.334 33.167 -116.001 61.5s-65.5 65.333 -89.5 111s-36 101.167 -36 166.5v365
c0 36 6.33301 74.833 19 116.5s33.167 80.334 61.5 116.001s65.333 65.5 111 89.5s101.167 36 166.5 36h469c36 0 74.833 -6.33301 116.5 -19s80.334 -33.167 116.001 -61.5s65.5 -65.333 89.5 -111s36 -101.167 36 -166.5zM1213 1407l-522 -187l-69 150l481 280z" />
    <glyph glyph-name="ecircumflex" unicode="&#xea;" 
d="M1285 723c0 -36 -6.33203 -74.833 -18.999 -116.5s-33.167 -80.334 -61.5 -116.001s-65.333 -65.5 -111 -89.5s-101.167 -36 -166.5 -36h-469v247h469c35.333 0 62.666 10.833 81.999 32.5s29 48.5 29 80.5c0 34 -10.833 60.667 -32.5 80s-47.834 29 -78.501 29h-469
c-35.333 0 -62.666 -10.833 -81.999 -32.5s-29 -48.5 -29 -80.5v-363c0 -34.667 10.833 -61.667 32.5 -81s48.5 -29 80.5 -29h467v-248h-469c-36 0 -74.833 6.33301 -116.5 19s-80.334 33.167 -116.001 61.5s-65.5 65.333 -89.5 111s-36 101.167 -36 166.5v365
c0 36 6.33301 74.833 19 116.5s33.167 80.334 61.5 116.001s65.333 65.5 111 89.5s101.167 36 166.5 36h469c36 0 74.833 -6.33301 116.5 -19s80.334 -33.167 116.001 -61.5s65.5 -65.333 89.5 -111s36 -101.167 36 -166.5zM1040 1220l-348 180l-348 -180l-121 168l469 266
l469 -266z" />
    <glyph glyph-name="edieresis" unicode="&#xeb;" 
d="M1285 723c0 -36 -6.33203 -74.833 -18.999 -116.5s-33.167 -80.334 -61.5 -116.001s-65.333 -65.5 -111 -89.5s-101.167 -36 -166.5 -36h-469v247h469c35.333 0 62.666 10.833 81.999 32.5s29 48.5 29 80.5c0 34 -10.833 60.667 -32.5 80s-47.834 29 -78.501 29h-469
c-35.333 0 -62.666 -10.833 -81.999 -32.5s-29 -48.5 -29 -80.5v-363c0 -34.667 10.833 -61.667 32.5 -81s48.5 -29 80.5 -29h467v-248h-469c-36 0 -74.833 6.33301 -116.5 19s-80.334 33.167 -116.001 61.5s-65.5 65.333 -89.5 111s-36 101.167 -36 166.5v365
c0 36 6.33301 74.833 19 116.5s33.167 80.334 61.5 116.001s65.333 65.5 111 89.5s101.167 36 166.5 36h469c36 0 74.833 -6.33301 116.5 -19s80.334 -33.167 116.001 -61.5s65.5 -65.333 89.5 -111s36 -101.167 36 -166.5zM589.001 1376c0 -18 -3.5 -34.833 -10.5 -50.5
s-16.333 -29.334 -28 -41.001s-25.334 -20.834 -41.001 -27.501s-32.167 -10 -49.5 -10c-18 0 -34.833 3.33301 -50.5 10s-29.334 15.834 -41.001 27.501s-20.834 25.334 -27.501 41.001s-10 32.5 -10 50.5c0 17.333 3.33301 33.833 10 49.5s15.834 29.334 27.501 41.001
s25.334 21 41.001 28s32.5 10.5 50.5 10.5c17.333 0 33.833 -3.5 49.5 -10.5s29.334 -16.333 41.001 -28s21 -25.334 28 -41.001s10.5 -32.167 10.5 -49.5zM1052 1376c0 -18 -3.5 -34.833 -10.5 -50.5s-16.333 -29.334 -28 -41.001s-25.334 -20.834 -41.001 -27.501
s-32.167 -10 -49.5 -10c-18 0 -34.833 3.33301 -50.5 10s-29.334 15.834 -41.001 27.501s-20.834 25.334 -27.501 41.001s-10 32.5 -10 50.5c0 17.333 3.33301 33.833 10 49.5s15.834 29.334 27.501 41.001s25.334 21 41.001 28s32.5 10.5 50.5 10.5
c17.333 0 33.833 -3.5 49.5 -10.5s29.334 -16.333 41.001 -28s21 -25.334 28 -41.001s10.5 -32.167 10.5 -49.5z" />
    <glyph glyph-name="igrave" unicode="&#xec;" horiz-adv-x="513" 
d="M386 0h-260v1081h260v-1081zM-154 1650l482 -280l-70 -150l-522 187z" />
    <glyph glyph-name="iacute" unicode="&#xed;" horiz-adv-x="513" 
d="M386 0h-260v1081h260v-1081zM788 1407l-522 -187l-69 150l481 280z" />
    <glyph glyph-name="icircumflex" unicode="&#xee;" horiz-adv-x="513" 
d="M386 0h-260v1081h260v-1081zM607 1159l-348 180l-348 -180l-121 168l469 266l469 -266z" />
    <glyph glyph-name="idieresis" unicode="&#xef;" horiz-adv-x="513" 
d="M386 0h-260v1081h260v-1081zM156 1376c0 -18 -3.5 -34.833 -10.5 -50.5s-16.333 -29.334 -28 -41.001s-25.334 -20.834 -41.001 -27.501s-32.167 -10 -49.5 -10c-18 0 -34.833 3.33301 -50.5 10s-29.334 15.834 -41.001 27.501s-20.834 25.334 -27.501 41.001
s-10 32.5 -10 50.5c0 17.333 3.33301 33.833 10 49.5s15.834 29.334 27.501 41.001s25.334 21 41.001 28s32.5 10.5 50.5 10.5c17.333 0 33.833 -3.5 49.5 -10.5s29.334 -16.333 41.001 -28s21 -25.334 28 -41.001s10.5 -32.167 10.5 -49.5zM619 1376
c0 -18 -3.5 -34.833 -10.5 -50.5s-16.333 -29.334 -28 -41.001s-25.334 -20.834 -41.001 -27.501s-32.167 -10 -49.5 -10c-18 0 -34.833 3.33301 -50.5 10s-29.334 15.834 -41.001 27.501s-20.834 25.334 -27.501 41.001s-10 32.5 -10 50.5c0 17.333 3.33301 33.833 10 49.5
s15.834 29.334 27.501 41.001s25.334 21 41.001 28s32.5 10.5 50.5 10.5c17.333 0 33.833 -3.5 49.5 -10.5s29.334 -16.333 41.001 -28s21 -25.334 28 -41.001s10.5 -32.167 10.5 -49.5z" />
    <glyph glyph-name="eth" unicode="&#xf0;" horiz-adv-x="1414" 
d="M1298 365c0 -44.667 -5.66211 -84.833 -16.9951 -120.5s-26.333 -67 -45 -94s-40.334 -50 -65.001 -69s-50.5 -34.5 -77.5 -46.5s-54.333 -20.833 -82 -26.5s-53.834 -8.5 -78.501 -8.5h-469c-44.667 0 -84.667 5.66699 -120 17s-66.5 26.5 -93.5 45.5
s-50 40.833 -69 65.5s-34.5 50.5 -46.5 77.5s-20.833 54.333 -26.5 82s-8.5 53.5 -8.5 77.5v352c0 66.667 12.167 123.167 36.5 169.5s54.666 84 90.999 113s75.833 49.833 118.5 62.5s82 19 118 19h469v-260h-467c-34.667 0 -61 -8.83301 -79 -26.5s-27 -43.5 -27 -77.5
v-350c0 -35.333 8.83301 -62 26.5 -80s43.5 -27 77.5 -27h469c35.333 0 61.666 9 78.999 27s26 44 26 78v821c0 33.333 -5 63.5 -15 90.5s-24.5 50.167 -43.5 69.5s-42.333 34.333 -70 45s-58.834 16 -93.501 16h-131v262h131c50 0 95.833 -5.5 137.5 -16.5s79 -26 112 -45
s62.167 -41.333 87.5 -67s47 -53.167 65 -82.5l237 119l105 -209l-266 -133c1.33301 -8 2.33301 -16.167 3 -24.5s1 -16.5 1 -24.5v-821z" />
    <glyph glyph-name="ntilde" unicode="&#xf1;" horiz-adv-x="1426" 
d="M1320 0h-260v600c0 34 -5.83301 64.5 -17.5 91.5s-27.5 50.167 -47.5 69.5s-43.5 34.166 -70.5 44.499s-56.167 15.5 -87.5 15.5h-455v-821h-260v952c0 18 3.33301 34.833 10 50.5s16 29.334 28 41.001s26 20.834 42 27.501s33 10 51 10h586
c32.667 0 67.167 -3.66699 103.5 -11s72.333 -19.166 108 -35.499s69.667 -37 102 -62s61 -55.333 86 -91s44.833 -76.834 59.5 -123.501s22 -99.334 22 -158.001v-600zM1114 1572c0 -64 -6.66797 -117.999 -20.001 -161.999s-31.333 -79.5 -54 -106.5
s-49.167 -46.333 -79.5 -58s-62.5 -17.5 -96.5 -17.5c-36 0 -66.333 6.33301 -91 19s-46.667 26.5 -66 41.5l-55 41.5c-17.333 12.667 -36.666 19 -57.999 19c-20 0 -35.833 -5 -47.5 -15s-20.5 -21.833 -26.5 -35.5s-10 -27.167 -12 -40.5s-3.33301 -23.333 -4 -30h-177
c0 56.667 6.83301 106.5 20.5 149.5s32 79 55 108s49.667 50.667 80 65s62.5 21.5 96.5 21.5c31.333 0 58.5 -6.33301 81.5 -19s44.5 -26.5 64.5 -41.5s39.5 -28.667 58.5 -41s40.5 -18.5 64.5 -18.5c20 0 35.833 5 47.5 15s20.5 21.5 26.5 34.5s10 26.167 12 39.5
s3.33301 23.666 4 30.999h176z" />
    <glyph glyph-name="ograve" unicode="&#xf2;" horiz-adv-x="1397" 
d="M1298 365c0 -44.667 -5.66699 -84.8311 -17 -120.498s-26.333 -67 -45 -94s-40.334 -50 -65.001 -69s-50.5 -34.5 -77.5 -46.5s-54.333 -20.833 -82 -26.5s-53.834 -8.5 -78.501 -8.5h-469c-36 0 -75.333 6.33301 -118 19s-82.167 33.5 -118.5 62.5
s-66.666 66.667 -90.999 113s-36.5 103.166 -36.5 170.499v352c0 66.667 12.167 123.167 36.5 169.5s54.666 84 90.999 113s75.833 49.833 118.5 62.5s82 19 118 19h469c66.667 0 123.334 -12 170.001 -36s84.334 -54.167 113.001 -90.5s49.5 -75.833 62.5 -118.5
s19.5 -82.334 19.5 -119.001v-352zM1038 715.003c0 36 -8.99902 62.667 -26.999 80s-44 26 -78 26h-467c-34.667 0 -61 -8.83301 -79 -26.5s-27 -43.5 -27 -77.5v-352c0 -34 9 -60 27 -78s44.333 -27 79 -27h467c35.333 0 61.666 9 78.999 27s26 44 26 78v350zM274.001 1650
l482 -280l-70 -150l-522 187z" />
    <glyph glyph-name="oacute" unicode="&#xf3;" horiz-adv-x="1397" 
d="M1298 365c0 -44.667 -5.66699 -84.8311 -17 -120.498s-26.333 -67 -45 -94s-40.334 -50 -65.001 -69s-50.5 -34.5 -77.5 -46.5s-54.333 -20.833 -82 -26.5s-53.834 -8.5 -78.501 -8.5h-469c-36 0 -75.333 6.33301 -118 19s-82.167 33.5 -118.5 62.5
s-66.666 66.667 -90.999 113s-36.5 103.166 -36.5 170.499v352c0 66.667 12.167 123.167 36.5 169.5s54.666 84 90.999 113s75.833 49.833 118.5 62.5s82 19 118 19h469c66.667 0 123.334 -12 170.001 -36s84.334 -54.167 113.001 -90.5s49.5 -75.833 62.5 -118.5
s19.5 -82.334 19.5 -119.001v-352zM1038 715.003c0 36 -8.99902 62.667 -26.999 80s-44 26 -78 26h-467c-34.667 0 -61 -8.83301 -79 -26.5s-27 -43.5 -27 -77.5v-352c0 -34 9 -60 27 -78s44.333 -27 79 -27h467c35.333 0 61.666 9 78.999 27s26 44 26 78v350zM1230 1407
l-522 -187l-69 150l481 280z" />
    <glyph glyph-name="ocircumflex" unicode="&#xf4;" horiz-adv-x="1397" 
d="M1298 365c0 -44.667 -5.66699 -84.8311 -17 -120.498s-26.333 -67 -45 -94s-40.334 -50 -65.001 -69s-50.5 -34.5 -77.5 -46.5s-54.333 -20.833 -82 -26.5s-53.834 -8.5 -78.501 -8.5h-469c-36 0 -75.333 6.33301 -118 19s-82.167 33.5 -118.5 62.5
s-66.666 66.667 -90.999 113s-36.5 103.166 -36.5 170.499v352c0 66.667 12.167 123.167 36.5 169.5s54.666 84 90.999 113s75.833 49.833 118.5 62.5s82 19 118 19h469c66.667 0 123.334 -12 170.001 -36s84.334 -54.167 113.001 -90.5s49.5 -75.833 62.5 -118.5
s19.5 -82.334 19.5 -119.001v-352zM1038 715.003c0 36 -8.99902 62.667 -26.999 80s-44 26 -78 26h-467c-34.667 0 -61 -8.83301 -79 -26.5s-27 -43.5 -27 -77.5v-352c0 -34 9 -60 27 -78s44.333 -27 79 -27h467c35.333 0 61.666 9 78.999 27s26 44 26 78v350zM1046 1220
l-348 180l-348 -180l-121 168l469 266l469 -266z" />
    <glyph glyph-name="otilde" unicode="&#xf5;" horiz-adv-x="1397" 
d="M1298 365c0 -44.667 -5.66699 -84.8311 -17 -120.498s-26.333 -67 -45 -94s-40.334 -50 -65.001 -69s-50.5 -34.5 -77.5 -46.5s-54.333 -20.833 -82 -26.5s-53.834 -8.5 -78.501 -8.5h-469c-36 0 -75.333 6.33301 -118 19s-82.167 33.5 -118.5 62.5
s-66.666 66.667 -90.999 113s-36.5 103.166 -36.5 170.499v352c0 66.667 12.167 123.167 36.5 169.5s54.666 84 90.999 113s75.833 49.833 118.5 62.5s82 19 118 19h469c66.667 0 123.334 -12 170.001 -36s84.334 -54.167 113.001 -90.5s49.5 -75.833 62.5 -118.5
s19.5 -82.334 19.5 -119.001v-352zM1038 715.003c0 36 -8.99902 62.667 -26.999 80s-44 26 -78 26h-467c-34.667 0 -61 -8.83301 -79 -26.5s-27 -43.5 -27 -77.5v-352c0 -34 9 -60 27 -78s44.333 -27 79 -27h467c35.333 0 61.666 9 78.999 27s26 44 26 78v350zM1091 1572
c0 -64 -6.66797 -117.999 -20.001 -161.999s-31.333 -79.5 -54 -106.5s-49.167 -46.333 -79.5 -58s-62.5 -17.5 -96.5 -17.5c-36 0 -66.333 6.33301 -91 19s-46.667 26.5 -66 41.5l-55 41.5c-17.333 12.667 -36.666 19 -57.999 19c-20 0 -35.833 -5 -47.5 -15
s-20.5 -21.833 -26.5 -35.5s-10 -27.167 -12 -40.5s-3.33301 -23.333 -4 -30h-177c0 56.667 6.83301 106.5 20.5 149.5s32 79 55 108s49.667 50.667 80 65s62.5 21.5 96.5 21.5c31.333 0 58.5 -6.33301 81.5 -19s44.5 -26.5 64.5 -41.5s39.5 -28.667 58.5 -41
s40.5 -18.5 64.5 -18.5c20 0 35.833 5 47.5 15s20.5 21.5 26.5 34.5s10 26.167 12 39.5s3.33301 23.666 4 30.999h176z" />
    <glyph glyph-name="odieresis" unicode="&#xf6;" horiz-adv-x="1397" 
d="M1298 365c0 -44.667 -5.66699 -84.8311 -17 -120.498s-26.333 -67 -45 -94s-40.334 -50 -65.001 -69s-50.5 -34.5 -77.5 -46.5s-54.333 -20.833 -82 -26.5s-53.834 -8.5 -78.501 -8.5h-469c-36 0 -75.333 6.33301 -118 19s-82.167 33.5 -118.5 62.5
s-66.666 66.667 -90.999 113s-36.5 103.166 -36.5 170.499v352c0 66.667 12.167 123.167 36.5 169.5s54.666 84 90.999 113s75.833 49.833 118.5 62.5s82 19 118 19h469c66.667 0 123.334 -12 170.001 -36s84.334 -54.167 113.001 -90.5s49.5 -75.833 62.5 -118.5
s19.5 -82.334 19.5 -119.001v-352zM1038 715.003c0 36 -8.99902 62.667 -26.999 80s-44 26 -78 26h-467c-34.667 0 -61 -8.83301 -79 -26.5s-27 -43.5 -27 -77.5v-352c0 -34 9 -60 27 -78s44.333 -27 79 -27h467c35.333 0 61.666 9 78.999 27s26 44 26 78v350zM595.001 1376
c0 -18 -3.5 -34.833 -10.5 -50.5s-16.333 -29.334 -28 -41.001s-25.334 -20.834 -41.001 -27.501s-32.167 -10 -49.5 -10c-18 0 -34.833 3.33301 -50.5 10s-29.334 15.834 -41.001 27.501s-20.834 25.334 -27.501 41.001s-10 32.5 -10 50.5c0 17.333 3.33301 33.833 10 49.5
s15.834 29.334 27.501 41.001s25.334 21 41.001 28s32.5 10.5 50.5 10.5c17.333 0 33.833 -3.5 49.5 -10.5s29.334 -16.333 41.001 -28s21 -25.334 28 -41.001s10.5 -32.167 10.5 -49.5zM1058 1376c0 -18 -3.5 -34.833 -10.5 -50.5s-16.333 -29.334 -28 -41.001
s-25.334 -20.834 -41.001 -27.501s-32.167 -10 -49.5 -10c-18 0 -34.833 3.33301 -50.5 10s-29.334 15.834 -41.001 27.501s-20.834 25.334 -27.501 41.001s-10 32.5 -10 50.5c0 17.333 3.33301 33.833 10 49.5s15.834 29.334 27.501 41.001s25.334 21 41.001 28
s32.5 10.5 50.5 10.5c17.333 0 33.833 -3.5 49.5 -10.5s29.334 -16.333 41.001 -28s21 -25.334 28 -41.001s10.5 -32.167 10.5 -49.5z" />
    <glyph glyph-name="divide" unicode="&#xf7;" horiz-adv-x="1137" 
d="M698 1069c0 -18 -3.33301 -34.833 -10 -50.5s-15.834 -29.334 -27.501 -41.001s-25.334 -20.834 -41.001 -27.501s-32.5 -10 -50.5 -10s-34.833 3.33301 -50.5 10s-29.334 15.834 -41.001 27.501s-20.834 25.334 -27.501 41.001s-10 32.5 -10 50.5
s3.33301 34.833 10 50.5s15.834 29.334 27.501 41.001s25.334 20.834 41.001 27.501s32.5 10 50.5 10s34.833 -3.33301 50.5 -10s29.334 -15.834 41.001 -27.501s20.834 -25.334 27.501 -41.001s10 -32.5 10 -50.5zM1038 600h-938v234h938v-234zM698 365
c0 -18 -3.33301 -34.833 -10 -50.5s-15.834 -29.334 -27.501 -41.001s-25.334 -20.834 -41.001 -27.501s-32.5 -10 -50.5 -10s-34.833 3.33301 -50.5 10s-29.334 15.834 -41.001 27.501s-20.834 25.334 -27.501 41.001s-10 32.5 -10 50.5s3.33301 34.833 10 50.5
s15.834 29.334 27.501 41.001s25.334 20.834 41.001 27.501s32.5 10 50.5 10s34.833 -3.33301 50.5 -10s29.334 -15.834 41.001 -27.501s20.834 -25.334 27.501 -41.001s10 -32.5 10 -50.5z" />
    <glyph glyph-name="oslash" unicode="&#xf8;" horiz-adv-x="1397" 
d="M1175 995c22 -18.667 40.833 -39.499 56.5 -62.499s28.334 -46.833 38.001 -71.5s16.834 -49.334 21.501 -74.001s7 -48 7 -70v-352c0 -44.667 -5.66699 -84.834 -17 -120.501s-26.333 -67 -45 -94s-40.334 -50 -65.001 -69s-50.5 -34.5 -77.5 -46.5
s-54.333 -20.833 -82 -26.5s-53.834 -8.5 -78.501 -8.5h-469h-14l-76 -104h-289l138 188c-35.333 28.667 -64.666 65.834 -87.999 111.501s-35 102.167 -35 169.5v352c0 66.667 12.167 123.167 36.5 169.5s54.666 84 90.999 113s75.833 49.833 118.5 62.5s82 19 118 19h469
h15l75 105h291zM360 365.001c0 -27.333 6 -50 18 -68l379 524h-291c-34.667 0 -61 -8.83301 -79 -26.5s-27 -43.5 -27 -77.5v-352zM1038 715.001c0 28 -6.33203 50.333 -18.999 67l-381 -522h295c35.333 0 61.666 9 78.999 27s26 44 26 78v350z" />
    <glyph glyph-name="ugrave" unicode="&#xf9;" horiz-adv-x="1426" 
d="M1304 131c0 -18.667 -3.33203 -36.001 -9.99902 -52.001s-15.834 -29.833 -27.501 -41.5s-25.334 -20.834 -41.001 -27.501s-32.5 -10 -50.5 -10h-588c-32 0 -66.167 3.66699 -102.5 11s-72.166 19.166 -107.499 35.499s-69.5 37 -102.5 62s-61.833 55.333 -86.5 91
s-44.5 76.834 -59.5 123.501s-22.5 99.334 -22.5 158.001v600h260v-600c0 -34 5.83301 -64.5 17.5 -91.5s27.5 -50.167 47.5 -69.5s43.5 -34.166 70.5 -44.499s56.167 -15.5 87.5 -15.5h455v821h260v-950zM284.001 1589l482 -280l-70 -150l-522 187z" />
    <glyph glyph-name="uacute" unicode="&#xfa;" horiz-adv-x="1426" 
d="M1304 131c0 -18.667 -3.33203 -36.001 -9.99902 -52.001s-15.834 -29.833 -27.501 -41.5s-25.334 -20.834 -41.001 -27.501s-32.5 -10 -50.5 -10h-588c-32 0 -66.167 3.66699 -102.5 11s-72.166 19.166 -107.499 35.499s-69.5 37 -102.5 62s-61.833 55.333 -86.5 91
s-44.5 76.834 -59.5 123.501s-22.5 99.334 -22.5 158.001v600h260v-600c0 -34 5.83301 -64.5 17.5 -91.5s27.5 -50.167 47.5 -69.5s43.5 -34.166 70.5 -44.499s56.167 -15.5 87.5 -15.5h455v821h260v-950zM1236 1346l-522 -187l-69 150l481 280z" />
    <glyph glyph-name="ucircumflex" unicode="&#xfb;" horiz-adv-x="1426" 
d="M1304 131c0 -18.667 -3.33203 -36.001 -9.99902 -52.001s-15.834 -29.833 -27.501 -41.5s-25.334 -20.834 -41.001 -27.501s-32.5 -10 -50.5 -10h-588c-32 0 -66.167 3.66699 -102.5 11s-72.166 19.166 -107.499 35.499s-69.5 37 -102.5 62s-61.833 55.333 -86.5 91
s-44.5 76.834 -59.5 123.501s-22.5 99.334 -22.5 158.001v600h260v-600c0 -34 5.83301 -64.5 17.5 -91.5s27.5 -50.167 47.5 -69.5s43.5 -34.166 70.5 -44.499s56.167 -15.5 87.5 -15.5h455v821h260v-950zM1052 1220l-348 180l-348 -180l-121 168l469 266l469 -266z" />
    <glyph glyph-name="udieresis" unicode="&#xfc;" horiz-adv-x="1426" 
d="M1304 131c0 -18.667 -3.33203 -36.001 -9.99902 -52.001s-15.834 -29.833 -27.501 -41.5s-25.334 -20.834 -41.001 -27.501s-32.5 -10 -50.5 -10h-588c-32 0 -66.167 3.66699 -102.5 11s-72.166 19.166 -107.499 35.499s-69.5 37 -102.5 62s-61.833 55.333 -86.5 91
s-44.5 76.834 -59.5 123.501s-22.5 99.334 -22.5 158.001v600h260v-600c0 -34 5.83301 -64.5 17.5 -91.5s27.5 -50.167 47.5 -69.5s43.5 -34.166 70.5 -44.499s56.167 -15.5 87.5 -15.5h455v821h260v-950zM601.001 1376c0 -18 -3.5 -34.833 -10.5 -50.5
s-16.333 -29.334 -28 -41.001s-25.334 -20.834 -41.001 -27.501s-32.167 -10 -49.5 -10c-18 0 -34.833 3.33301 -50.5 10s-29.334 15.834 -41.001 27.501s-20.834 25.334 -27.501 41.001s-10 32.5 -10 50.5c0 17.333 3.33301 33.833 10 49.5s15.834 29.334 27.501 41.001
s25.334 21 41.001 28s32.5 10.5 50.5 10.5c17.333 0 33.833 -3.5 49.5 -10.5s29.334 -16.333 41.001 -28s21 -25.334 28 -41.001s10.5 -32.167 10.5 -49.5zM1064 1376c0 -18 -3.5 -34.833 -10.5 -50.5s-16.333 -29.334 -28 -41.001s-25.334 -20.834 -41.001 -27.501
s-32.167 -10 -49.5 -10c-18 0 -34.833 3.33301 -50.5 10s-29.334 15.834 -41.001 27.501s-20.834 25.334 -27.501 41.001s-10 32.5 -10 50.5c0 17.333 3.33301 33.833 10 49.5s15.834 29.334 27.501 41.001s25.334 21 41.001 28s32.5 10.5 50.5 10.5
c17.333 0 33.833 -3.5 49.5 -10.5s29.334 -16.333 41.001 -28s21 -25.334 28 -41.001s10.5 -32.167 10.5 -49.5z" />
    <glyph glyph-name="yacute" unicode="&#xfd;" horiz-adv-x="1440" 
d="M1314 -104c0 -44.667 -5.66602 -84.833 -16.999 -120.5s-26.333 -67 -45 -94s-40.334 -50 -65.001 -69s-50.5 -34.5 -77.5 -46.5s-54.167 -20.833 -81.5 -26.5s-53.333 -8.5 -78 -8.5h-469v260h469c34.667 0 60.667 9 78 27s26 44 26 78v1185h260v-1185z
M950.001 0.000976562l-469.001 0.000976562c-37.333 0 -77.166 6.33301 -119.499 19s-81.833 33.5 -118.5 62.5s-67 66.667 -91 113s-36 103.166 -36 170.499v716h260v-716c0 -34 9 -60 27 -78s44.667 -27 80 -27h467v-260zM1248 1265l-522 -187l-69 150l481 280z" />
    <glyph glyph-name="thorn" unicode="&#xfe;" horiz-adv-x="1424" 
d="M1324 365c0 -44.667 -5.66602 -84.832 -16.999 -120.499s-26.333 -67 -45 -94s-40.334 -50 -65.001 -69s-50.5 -34.5 -77.5 -46.5s-54.167 -20.833 -81.5 -26.5s-53.333 -8.5 -78 -8.5h-469v260h469c34.667 0 60.667 9 78 27s26 44 26 78v350
c0 36 -8.83301 62.667 -26.5 80s-43.5 26 -77.5 26h-467c-69.333 0 -105 -31.333 -107 -94v-1065h-260v1876h260v-473c17.333 5.33301 35 9.33301 53 12s35.333 4 52 4h469c44.667 0 84.667 -5.66699 120 -17s66.5 -26.333 93.5 -45s50 -40.334 69 -65.001
s34.5 -50.5 46.5 -77.5s20.833 -54.167 26.5 -81.5s8.5 -53.333 8.5 -78v-352z" />
    <glyph glyph-name="ydieresis" unicode="&#xff;" horiz-adv-x="1440" 
d="M1314 -104c0 -44.667 -5.66602 -84.833 -16.999 -120.5s-26.333 -67 -45 -94s-40.334 -50 -65.001 -69s-50.5 -34.5 -77.5 -46.5s-54.167 -20.833 -81.5 -26.5s-53.333 -8.5 -78 -8.5h-469v260h469c34.667 0 60.667 9 78 27s26 44 26 78v1185h260v-1185z
M950.001 0.000976562l-469.001 0.000976562c-37.333 0 -77.166 6.33301 -119.499 19s-81.833 33.5 -118.5 62.5s-67 66.667 -91 113s-36 103.166 -36 170.499v716h260v-716c0 -34 9 -60 27 -78s44.667 -27 80 -27h467v-260zM611 1376c0 -18 -3.5 -34.833 -10.5 -50.5
s-16.333 -29.334 -28 -41.001s-25.334 -20.834 -41.001 -27.501s-32.167 -10 -49.5 -10c-18 0 -34.833 3.33301 -50.5 10s-29.334 15.834 -41.001 27.501s-20.834 25.334 -27.501 41.001s-10 32.5 -10 50.5c0 17.333 3.33301 33.833 10 49.5s15.834 29.334 27.501 41.001
s25.334 21 41.001 28s32.5 10.5 50.5 10.5c17.333 0 33.833 -3.5 49.5 -10.5s29.334 -16.333 41.001 -28s21 -25.334 28 -41.001s10.5 -32.167 10.5 -49.5zM1074 1376c0 -18 -3.5 -34.833 -10.5 -50.5s-16.333 -29.334 -28 -41.001s-25.334 -20.834 -41.001 -27.501
s-32.167 -10 -49.5 -10c-18 0 -34.833 3.33301 -50.5 10s-29.334 15.834 -41.001 27.501s-20.834 25.334 -27.501 41.001s-10 32.5 -10 50.5c0 17.333 3.33301 33.833 10 49.5s15.834 29.334 27.501 41.001s25.334 21 41.001 28s32.5 10.5 50.5 10.5
c17.333 0 33.833 -3.5 49.5 -10.5s29.334 -16.333 41.001 -28s21 -25.334 28 -41.001s10.5 -32.167 10.5 -49.5z" />
    <glyph glyph-name="Amacron" unicode="&#x100;" horiz-adv-x="1709" 
d="M1558 0l-259.999 0.000976562v352h-914v-352h-260v717c0 104.667 18 201 54 289s86 163.667 150 227s139.667 112.666 227 147.999s182.666 53 285.999 53h586c18 0 35 -3.33301 51 -10s30 -16 42 -28s21.333 -26 28 -42s10 -33 10 -51v-1303zM384.001 612.001
l913.999 -0.00195312v562h-457c-8 0 -24.833 -1.16699 -50.5 -3.5s-55.334 -8.16602 -89.001 -17.499s-69.167 -23.666 -106.5 -42.999s-71.666 -46 -102.999 -80s-57.166 -76.5 -77.499 -127.5s-30.5 -112.833 -30.5 -185.5v-105zM518 1550v236h672v-236h-672z" />
    <glyph glyph-name="amacron" unicode="&#x101;" 
d="M1238 358c0 -36 -6.33301 -74.832 -19 -116.499s-33.167 -80.334 -61.5 -116.001s-65.333 -65.5 -111 -89.5s-101.167 -36 -166.5 -36h-469c-36 -0 -74.833 6.33301 -116.5 19s-80.334 33.167 -116.001 61.5s-65.5 65.333 -89.5 111s-36 101.167 -36 166.5
c0 36 6.33301 75 19 117s33.167 80.833 61.5 116.5s65.333 65.5 111 89.5s101.167 36 166.5 36h469v-248h-469c-35.333 0 -62.666 -10.833 -81.999 -32.5s-29 -48.5 -29 -80.5c0 -34 11.167 -60.5 33.5 -79.5s48.833 -28.5 79.5 -28.5h467c35.333 0 62.666 10.667 81.999 32
s29 48 29 80v363c0 34 -10.5 61 -31.5 81s-47.5 30 -79.5 30h-571v247h571c36 0 74.833 -6.33301 116.5 -19s80.334 -33.167 116.001 -61.5s65.5 -65.333 89.5 -111s36 -101.167 36 -166.5v-365zM333 1200v236h672v-236h-672z" />
    <glyph glyph-name="Abreve" unicode="&#x102;" horiz-adv-x="1709" 
d="M1558 0l-259.999 0.000976562v352h-914v-352h-260v717c0 104.667 18 201 54 289s86 163.667 150 227s139.667 112.666 227 147.999s182.666 53 285.999 53h586c18 0 35 -3.33301 51 -10s30 -16 42 -28s21.333 -26 28 -42s10 -33 10 -51v-1303zM384.001 612.001
l913.999 -0.00195312v562h-457c-8 0 -24.833 -1.16699 -50.5 -3.5s-55.334 -8.16602 -89.001 -17.499s-69.167 -23.666 -106.5 -42.999s-71.666 -46 -102.999 -80s-57.166 -76.5 -77.499 -127.5s-30.5 -112.833 -30.5 -185.5v-105zM1261 1902
c-1.33301 -16.667 -4.16504 -37.5 -8.49805 -62.5s-12.166 -51.667 -23.499 -80s-26.5 -56.666 -45.5 -84.999s-43.5 -53.833 -73.5 -76.5s-65.833 -41.167 -107.5 -55.5s-91.167 -21.5 -148.5 -21.5s-107 7.16699 -149 21.5s-77.833 32.833 -107.5 55.5
s-54.167 48.167 -73.5 76.5s-34.5 56.666 -45.5 84.999s-19 55 -24 80s-7.83301 45.833 -8.5 62.5h189c4 -12 10.167 -26.333 18.5 -43s20.666 -32.667 36.999 -48s37.666 -28.5 63.999 -39.5s59.5 -16.5 99.5 -16.5c39.333 0 72.166 5.5 98.499 16.5
s47.833 24.167 64.5 39.5s29.5 31.333 38.5 48s15.5 31 19.5 43h186z" />
    <glyph glyph-name="abreve" unicode="&#x103;" 
d="M1238 358c0 -36 -6.33301 -74.832 -19 -116.499s-33.167 -80.334 -61.5 -116.001s-65.333 -65.5 -111 -89.5s-101.167 -36 -166.5 -36h-469c-36 -0 -74.833 6.33301 -116.5 19s-80.334 33.167 -116.001 61.5s-65.5 65.333 -89.5 111s-36 101.167 -36 166.5
c0 36 6.33301 75 19 117s33.167 80.833 61.5 116.5s65.333 65.5 111 89.5s101.167 36 166.5 36h469v-248h-469c-35.333 0 -62.666 -10.833 -81.999 -32.5s-29 -48.5 -29 -80.5c0 -34 11.167 -60.5 33.5 -79.5s48.833 -28.5 79.5 -28.5h467c35.333 0 62.666 10.667 81.999 32
s29 48 29 80v363c0 34 -10.5 61 -31.5 81s-47.5 30 -79.5 30h-571v247h571c36 0 74.833 -6.33301 116.5 -19s80.334 -33.167 116.001 -61.5s65.5 -65.333 89.5 -111s36 -101.167 36 -166.5v-365zM1076 1552c-1.33301 -16.667 -4.16504 -37.5 -8.49805 -62.5
s-12.166 -51.667 -23.499 -80s-26.5 -56.666 -45.5 -84.999s-43.5 -53.833 -73.5 -76.5s-65.833 -41.167 -107.5 -55.5s-91.167 -21.5 -148.5 -21.5s-107 7.16699 -149 21.5s-77.833 32.833 -107.5 55.5s-54.167 48.167 -73.5 76.5s-34.5 56.666 -45.5 84.999s-19 55 -24 80
s-7.83301 45.833 -8.5 62.5h189c4 -12 10.167 -26.333 18.5 -43s20.666 -32.667 36.999 -48s37.666 -28.5 63.999 -39.5s59.5 -16.5 99.5 -16.5c39.333 0 72.166 5.5 98.499 16.5s47.833 24.167 64.5 39.5s29.5 31.333 38.5 48s15.5 31 19.5 43h186z" />
    <glyph glyph-name="Aogonek" unicode="&#x104;" horiz-adv-x="1709" 
d="M1558 0h-48.998c-34 -28 -60.667 -58.5 -80 -91.5s-29 -64.5 -29 -94.5c0 -25.333 8.66699 -43 26 -53s45 -15 83 -15c16.667 0 35.167 1.66699 55.5 5s40.5 7.66602 60.5 12.999s39.167 10.833 57.5 16.5s33.5 11.167 45.5 16.5v-186
c-12 -3.33301 -26.5 -7.66602 -43.5 -12.999s-37 -10.333 -60 -15s-49.167 -8.66699 -78.5 -12s-62.333 -5 -99 -5c-36 0 -69.667 3.33301 -101 10s-58.833 17.334 -82.5 32.001s-42.334 34 -56.001 58s-20.5 53.333 -20.5 88c0 18 2.16699 37.833 6.5 59.5
s11.5 43.5 21.5 65.5s22.833 43.5 38.5 64.5s35.167 39.833 58.5 56.5h-14v352h-914v-352h-260v717c0 104.667 18 201 54 289s86 163.667 150 227s139.667 112.666 227 147.999s182.666 53 285.999 53h586c18 0 35 -3.33301 51 -10s30 -16 42 -28s21.333 -26 28 -42
s10 -33 10 -51v-1303zM384.002 612l913.999 -0.00195312v562h-457c-8 0 -24.833 -1.16699 -50.5 -3.5s-55.334 -8.16602 -89.001 -17.499s-69.167 -23.666 -106.5 -42.999s-71.666 -46 -102.999 -80s-57.166 -76.5 -77.499 -127.5s-30.5 -112.833 -30.5 -185.5v-105z" />
    <glyph glyph-name="aogonek" unicode="&#x105;" 
d="M1238 358c0 -35.333 -6.16895 -73.502 -18.502 -114.502s-32.333 -79.333 -60 -115s-63.667 -65.667 -108 -90s-98.166 -37.166 -161.499 -38.499c-34 -28 -60.5 -58.5 -79.5 -91.5s-28.5 -64.5 -28.5 -94.5c0 -25.333 8.5 -43 25.5 -53s44.5 -15 82.5 -15
c16.667 0 35.334 1.66699 56.001 5s41 7.66602 61 12.999s39 10.833 57 16.5s33 11.167 45 16.5v-186c-12 -3.33301 -26.5 -7.66602 -43.5 -12.999s-36.833 -10.333 -59.5 -15s-48.667 -8.66699 -78 -12s-62.333 -5 -99 -5c-36 0 -69.833 3.33301 -101.5 10
s-59.167 17.334 -82.5 32.001s-41.833 34 -55.5 58s-20.5 53.333 -20.5 88c0 18 2.16699 37.833 6.5 59.5s11.333 43.5 21 65.5s22.5 43.5 38.5 64.5s35.667 39.833 59 56.5h-283c-36 -0 -74.833 6.33301 -116.5 19s-80.334 33.167 -116.001 61.5s-65.5 65.333 -89.5 111
s-36 101.167 -36 166.5c0 36 6.33301 75 19 117s33.167 80.833 61.5 116.5s65.333 65.5 111 89.5s101.167 36 166.5 36h469v-248h-469c-35.333 0 -62.666 -10.833 -81.999 -32.5s-29 -48.5 -29 -80.5c0 -34 11.167 -60.5 33.5 -79.5s48.833 -28.5 79.5 -28.5h467
c35.333 0 62.666 10.667 81.999 32s29 48 29 80v363c0 34 -10.5 61 -31.5 81s-47.5 30 -79.5 30h-571v247h571c36 0 74.833 -6.33301 116.5 -19s80.334 -33.167 116.001 -61.5s65.5 -65.333 89.5 -111s36 -101.167 36 -166.5v-365z" />
    <glyph glyph-name="Cacute" unicode="&#x106;" horiz-adv-x="1530" 
d="M1435 0l-937.999 -0.00195312c-24 0 -49.833 2.83301 -77.5 8.5s-55 14.5 -82 26.5s-52.833 27.5 -77.5 46.5s-46.5 42 -65.5 69s-34.167 58.333 -45.5 94s-17 75.834 -17 120.501v704c0 24 2.83301 49.833 8.5 77.5s14.5 55 26.5 82s27.667 52.833 47 77.5
s42.5 46.5 69.5 65.5s58.167 34.167 93.5 45.5s75.333 17 120 17h938v-260h-938c-34 0 -60 -9 -78 -27s-27 -44.667 -27 -80v-702c0 -33.333 9.16699 -59.166 27.5 -77.499s44.166 -27.5 77.499 -27.5h938v-260zM1367 1696l-522 -187l-69 150l481 280z" />
    <glyph glyph-name="cacute" unicode="&#x107;" horiz-adv-x="1262" 
d="M1169 0h-705.001c-36 -0 -75.333 6.33301 -118 19s-82.167 33.5 -118.5 62.5s-66.666 66.667 -90.999 113s-36.5 103.166 -36.5 170.499v352c0 24.667 2.83301 50.667 8.5 78s14.5 54.5 26.5 81.5s27.5 52.833 46.5 77.5s42 46.334 69 65.001s58.167 33.667 93.5 45
s75.333 17 120 17h705v-260h-705c-34 0 -59.833 -8.66699 -77.5 -26s-26.5 -44 -26.5 -80v-350c0 -34 9 -60 27 -78s44.333 -27 79 -27h703v-260zM1240 1346l-522 -187l-69 150l481 280z" />
    <glyph glyph-name="Ccircumflex" unicode="&#x108;" horiz-adv-x="1530" 
d="M1435 0l-937.999 -0.00195312c-24 0 -49.833 2.83301 -77.5 8.5s-55 14.5 -82 26.5s-52.833 27.5 -77.5 46.5s-46.5 42 -65.5 69s-34.167 58.333 -45.5 94s-17 75.834 -17 120.501v704c0 24 2.83301 49.833 8.5 77.5s14.5 55 26.5 82s27.667 52.833 47 77.5
s42.5 46.5 69.5 65.5s58.167 34.167 93.5 45.5s75.333 17 120 17h938v-260h-938c-34 0 -60 -9 -78 -27s-27 -44.667 -27 -80v-702c0 -33.333 9.16699 -59.166 27.5 -77.499s44.166 -27.5 77.499 -27.5h938v-260zM1150 1509l-348 180l-348 -180l-121 168l469 266l469 -266z
" />
    <glyph glyph-name="ccircumflex" unicode="&#x109;" horiz-adv-x="1262" 
d="M1169 0h-705.001c-36 -0 -75.333 6.33301 -118 19s-82.167 33.5 -118.5 62.5s-66.666 66.667 -90.999 113s-36.5 103.166 -36.5 170.499v352c0 24.667 2.83301 50.667 8.5 78s14.5 54.5 26.5 81.5s27.5 52.833 46.5 77.5s42 46.334 69 65.001s58.167 33.667 93.5 45
s75.333 17 120 17h705v-260h-705c-34 0 -59.833 -8.66699 -77.5 -26s-26.5 -44 -26.5 -80v-350c0 -34 9 -60 27 -78s44.333 -27 79 -27h703v-260zM1005 1159l-348 180l-348 -180l-121 168l469 266l469 -266z" />
    <glyph glyph-name="Cdotaccent" unicode="&#x10a;" horiz-adv-x="1530" 
d="M1435 0l-937.999 -0.00195312c-24 0 -49.833 2.83301 -77.5 8.5s-55 14.5 -82 26.5s-52.833 27.5 -77.5 46.5s-46.5 42 -65.5 69s-34.167 58.333 -45.5 94s-17 75.834 -17 120.501v704c0 24 2.83301 49.833 8.5 77.5s14.5 55 26.5 82s27.667 52.833 47 77.5
s42.5 46.5 69.5 65.5s58.167 34.167 93.5 45.5s75.333 17 120 17h938v-260h-938c-34 0 -60 -9 -78 -27s-27 -44.667 -27 -80v-702c0 -33.333 9.16699 -59.166 27.5 -77.499s44.166 -27.5 77.499 -27.5h938v-260zM927.001 1665c0 -18 -3.5 -34.833 -10.5 -50.5
s-16.333 -29.334 -28 -41.001s-25.334 -20.834 -41.001 -27.501s-32.167 -10 -49.5 -10c-18 0 -34.833 3.33301 -50.5 10s-29.334 15.834 -41.001 27.501s-20.834 25.334 -27.501 41.001s-10 32.5 -10 50.5c0 17.333 3.33301 33.833 10 49.5s15.834 29.334 27.501 41.001
s25.334 21 41.001 28s32.5 10.5 50.5 10.5c17.333 0 33.833 -3.5 49.5 -10.5s29.334 -16.333 41.001 -28s21 -25.334 28 -41.001s10.5 -32.167 10.5 -49.5z" />
    <glyph glyph-name="cdotaccent" unicode="&#x10b;" horiz-adv-x="1262" 
d="M1169 0h-705.001c-36 -0 -75.333 6.33301 -118 19s-82.167 33.5 -118.5 62.5s-66.666 66.667 -90.999 113s-36.5 103.166 -36.5 170.499v352c0 24.667 2.83301 50.667 8.5 78s14.5 54.5 26.5 81.5s27.5 52.833 46.5 77.5s42 46.334 69 65.001s58.167 33.667 93.5 45
s75.333 17 120 17h705v-260h-705c-34 0 -59.833 -8.66699 -77.5 -26s-26.5 -44 -26.5 -80v-350c0 -34 9 -60 27 -78s44.333 -27 79 -27h703v-260zM795.999 1315c0 -18 -3.5 -34.833 -10.5 -50.5s-16.333 -29.334 -28 -41.001s-25.334 -20.834 -41.001 -27.501
s-32.167 -10 -49.5 -10c-18 0 -34.833 3.33301 -50.5 10s-29.334 15.834 -41.001 27.501s-20.834 25.334 -27.501 41.001s-10 32.5 -10 50.5c0 17.333 3.33301 33.833 10 49.5s15.834 29.334 27.501 41.001s25.334 21 41.001 28s32.5 10.5 50.5 10.5
c17.333 0 33.833 -3.5 49.5 -10.5s29.334 -16.333 41.001 -28s21 -25.334 28 -41.001s10.5 -32.167 10.5 -49.5z" />
    <glyph glyph-name="Ccaron" unicode="&#x10c;" horiz-adv-x="1530" 
d="M1435 0l-937.999 -0.00195312c-24 0 -49.833 2.83301 -77.5 8.5s-55 14.5 -82 26.5s-52.833 27.5 -77.5 46.5s-46.5 42 -65.5 69s-34.167 58.333 -45.5 94s-17 75.834 -17 120.501v704c0 24 2.83301 49.833 8.5 77.5s14.5 55 26.5 82s27.667 52.833 47 77.5
s42.5 46.5 69.5 65.5s58.167 34.167 93.5 45.5s75.333 17 120 17h938v-260h-938c-34 0 -60 -9 -78 -27s-27 -44.667 -27 -80v-702c0 -33.333 9.16699 -59.166 27.5 -77.499s44.166 -27.5 77.499 -27.5h938v-260zM471.001 1923l348 -180l348 180l121 -168l-469 -266l-469 266
z" />
    <glyph glyph-name="ccaron" unicode="&#x10d;" horiz-adv-x="1262" 
d="M1169 0h-705.001c-36 -0 -75.333 6.33301 -118 19s-82.167 33.5 -118.5 62.5s-66.666 66.667 -90.999 113s-36.5 103.166 -36.5 170.499v352c0 24.667 2.83301 50.667 8.5 78s14.5 54.5 26.5 81.5s27.5 52.833 46.5 77.5s42 46.334 69 65.001s58.167 33.667 93.5 45
s75.333 17 120 17h705v-260h-705c-34 0 -59.833 -8.66699 -77.5 -26s-26.5 -44 -26.5 -80v-350c0 -34 9 -60 27 -78s44.333 -27 79 -27h703v-260zM341.999 1573l348 -180l348 180l121 -168l-469 -266l-469 266z" />
    <glyph glyph-name="Dcaron" unicode="&#x10e;" horiz-adv-x="1686" 
d="M1582 600c0 -87.333 -15.167 -167.667 -45.5 -241s-72.166 -136.5 -125.499 -189.5s-116.666 -94.5 -189.999 -124.5s-153 -45 -239 -45h-702c-18.667 -0 -36 3.33301 -52 10s-29.833 15.834 -41.5 27.501s-20.834 25.5 -27.501 41.5s-10 33.333 -10 52v1172
c0 18 3.33301 35 10 51s15.834 30 27.501 42s25.5 21.333 41.5 28s33.333 10 52 10h702c86 0 165.667 -15 239 -45s136.666 -71.5 189.999 -124.5s95.166 -116.333 125.499 -190s45.5 -153.834 45.5 -240.501v-234zM1322 833.999c0 50.667 -8.16699 96.999 -24.5 138.999
s-39.5 77.833 -69.5 107.5s-65.833 52.667 -107.5 69s-87.834 24.5 -138.501 24.5h-573v-914h573c50.667 0 96.834 8.16699 138.501 24.5s77.5 39.333 107.5 69s53.167 65.334 69.5 107.001s24.5 88.167 24.5 139.5v234zM495 1923l348 -180l348 180l121 -168l-469 -266
l-469 266z" />
    <glyph glyph-name="dcaron" unicode="&#x10f;" horiz-adv-x="1743" 
d="M1299 365c0 -44.667 -5.66309 -84.833 -16.9961 -120.5s-26.333 -67 -45 -94s-40.334 -50 -65.001 -69s-50.5 -34.5 -77.5 -46.5s-54.333 -20.833 -82 -26.5s-53.834 -8.5 -78.501 -8.5h-469c-44.667 0 -84.667 5.66699 -120 17s-66.5 26.5 -93.5 45.5
s-50 40.833 -69 65.5s-34.5 50.5 -46.5 77.5s-20.833 54.333 -26.5 82s-8.5 53.5 -8.5 77.5v352c0 66.667 12.167 123.167 36.5 169.5s54.666 84 90.999 113s75.833 49.833 118.5 62.5s82 19 118 19h469v-260h-467c-34.667 0 -61 -8.83301 -79 -26.5s-27 -43.5 -27 -77.5
v-350c0 -35.333 8.83301 -62 26.5 -80s43.5 -27 77.5 -27h469c35.333 0 61.666 9 78.999 27s26 44 26 78v1173h260v-1173zM1570 963.001h-147l74 401h196z" />
    <glyph glyph-name="Dcroat" unicode="&#x110;" horiz-adv-x="1920" 
d="M1816 600c0 -87.333 -15.833 -167.668 -47.5 -241.001s-74.834 -136.5 -129.501 -189.5s-118.167 -94.5 -190.5 -124.5s-149.166 -45 -230.499 -45h-705c-18 0 -34.833 3.33301 -50.5 10s-29.5 15.834 -41.5 27.501s-21.5 25.5 -28.5 41.5s-10.5 33.333 -10.5 52v469
h-338v234h338v469c0 18 3.5 35 10.5 51s16.5 30 28.5 42s25.833 21.333 41.5 28s32.5 10 50.5 10h705c78 0 153.167 -14.667 225.5 -44s136 -70.5 191 -123.5s99 -116.167 132 -189.5s49.5 -154.333 49.5 -243v-234zM644 599.998v-340h572c52 0 98.833 8.5 140.5 25.5
s77.334 40.5 107.001 70.5s52.5 65.833 68.5 107.5s24 87.167 24 136.5v234c0 51.333 -9.33301 98 -28 140s-43.5 78 -74.5 108s-66.833 53 -107.5 69s-83.334 23.667 -128.001 23h-574v-340h338v-234h-338z" />
    <glyph glyph-name="dcroat" unicode="&#x111;" horiz-adv-x="1414" 
d="M1298 1438l207.004 0.000976562v-234h-207v-839c0 -44.667 -5.66699 -84.834 -17 -120.501s-26.333 -67 -45 -94s-40.334 -50 -65.001 -69s-50.5 -34.5 -77.5 -46.5s-54.333 -20.833 -82 -26.5s-53.834 -8.5 -78.501 -8.5h-469c-44.667 0 -84.667 5.66699 -120 17
s-66.5 26.5 -93.5 45.5s-50 40.833 -69 65.5s-34.5 50.5 -46.5 77.5s-20.833 54.333 -26.5 82s-8.5 53.5 -8.5 77.5v352c0 66.667 12.167 123.167 36.5 169.5s54.666 84 90.999 113s75.833 49.833 118.5 62.5s82 19 118 19h469v-260h-467c-34.667 0 -61 -8.83301 -79 -26.5
s-27 -43.5 -27 -77.5v-350c0 -35.333 8.83301 -62 26.5 -80s43.5 -27 77.5 -27h469c35.333 0 61.666 9 78.999 27s26 44 26 78v839h-213v234h213v100h260v-100z" />
    <glyph glyph-name="Emacron" unicode="&#x112;" horiz-adv-x="1547" 
d="M1330 586h-821v262h821v-262zM1447 0l-938.002 0.000976562c-36 0 -75.333 6.33301 -118 19s-82.167 33.5 -118.5 62.5s-66.666 66.667 -90.999 113s-36.5 103.166 -36.5 170.499v938c0 18 3.33301 35 10 51s15.834 30 27.501 42s25.5 21.333 41.5 28s33.333 10 52 10
h1171v-260h-1042v-809c0 -34 9 -60 27 -78s44.333 -27 79 -27h936v-260zM478.998 1550v236h672v-236h-672z" />
    <glyph glyph-name="emacron" unicode="&#x113;" 
d="M1285 723c0 -36 -6.33203 -74.833 -18.999 -116.5s-33.167 -80.334 -61.5 -116.001s-65.333 -65.5 -111 -89.5s-101.167 -36 -166.5 -36h-469v247h469c35.333 0 62.666 10.833 81.999 32.5s29 48.5 29 80.5c0 34 -10.833 60.667 -32.5 80s-47.834 29 -78.501 29h-469
c-35.333 0 -62.666 -10.833 -81.999 -32.5s-29 -48.5 -29 -80.5v-363c0 -34.667 10.833 -61.667 32.5 -81s48.5 -29 80.5 -29h467v-248h-469c-36 0 -74.833 6.33301 -116.5 19s-80.334 33.167 -116.001 61.5s-65.5 65.333 -89.5 111s-36 101.167 -36 166.5v365
c0 36 6.33301 74.833 19 116.5s33.167 80.334 61.5 116.001s65.333 65.5 111 89.5s101.167 36 166.5 36h469c36 0 74.833 -6.33301 116.5 -19s80.334 -33.167 116.001 -61.5s65.5 -65.333 89.5 -111s36 -101.167 36 -166.5zM333.001 1200v236h672v-236h-672z" />
    <glyph glyph-name="Ebreve" unicode="&#x114;" horiz-adv-x="1547" 
d="M1330 586h-821v262h821v-262zM1447 0l-938.002 0.000976562c-36 0 -75.333 6.33301 -118 19s-82.167 33.5 -118.5 62.5s-66.666 66.667 -90.999 113s-36.5 103.166 -36.5 170.499v938c0 18 3.33301 35 10 51s15.834 30 27.501 42s25.5 21.333 41.5 28s33.333 10 52 10
h1171v-260h-1042v-809c0 -34 9 -60 27 -78s44.333 -27 79 -27h936v-260zM1222 1902c-1.33301 -16.667 -4.16504 -37.5 -8.49805 -62.5s-12.166 -51.667 -23.499 -80s-26.5 -56.666 -45.5 -84.999s-43.5 -53.833 -73.5 -76.5s-65.833 -41.167 -107.5 -55.5
s-91.167 -21.5 -148.5 -21.5s-107 7.16699 -149 21.5s-77.833 32.833 -107.5 55.5s-54.167 48.167 -73.5 76.5s-34.5 56.666 -45.5 84.999s-19 55 -24 80s-7.83301 45.833 -8.5 62.5h189c4 -12 10.167 -26.333 18.5 -43s20.666 -32.667 36.999 -48
s37.666 -28.5 63.999 -39.5s59.5 -16.5 99.5 -16.5c39.333 0 72.166 5.5 98.499 16.5s47.833 24.167 64.5 39.5s29.5 31.333 38.5 48s15.5 31 19.5 43h186z" />
    <glyph glyph-name="ebreve" unicode="&#x115;" 
d="M1285 723c0 -36 -6.33203 -74.833 -18.999 -116.5s-33.167 -80.334 -61.5 -116.001s-65.333 -65.5 -111 -89.5s-101.167 -36 -166.5 -36h-469v247h469c35.333 0 62.666 10.833 81.999 32.5s29 48.5 29 80.5c0 34 -10.833 60.667 -32.5 80s-47.834 29 -78.501 29h-469
c-35.333 0 -62.666 -10.833 -81.999 -32.5s-29 -48.5 -29 -80.5v-363c0 -34.667 10.833 -61.667 32.5 -81s48.5 -29 80.5 -29h467v-248h-469c-36 0 -74.833 6.33301 -116.5 19s-80.334 33.167 -116.001 61.5s-65.5 65.333 -89.5 111s-36 101.167 -36 166.5v365
c0 36 6.33301 74.833 19 116.5s33.167 80.334 61.5 116.001s65.333 65.5 111 89.5s101.167 36 166.5 36h469c36 0 74.833 -6.33301 116.5 -19s80.334 -33.167 116.001 -61.5s65.5 -65.333 89.5 -111s36 -101.167 36 -166.5zM1076 1552
c-1.33301 -16.667 -4.16504 -37.5 -8.49805 -62.5s-12.166 -51.667 -23.499 -80s-26.5 -56.666 -45.5 -84.999s-43.5 -53.833 -73.5 -76.5s-65.833 -41.167 -107.5 -55.5s-91.167 -21.5 -148.5 -21.5s-107 7.16699 -149 21.5s-77.833 32.833 -107.5 55.5
s-54.167 48.167 -73.5 76.5s-34.5 56.666 -45.5 84.999s-19 55 -24 80s-7.83301 45.833 -8.5 62.5h189c4 -12 10.167 -26.333 18.5 -43s20.666 -32.667 36.999 -48s37.666 -28.5 63.999 -39.5s59.5 -16.5 99.5 -16.5c39.333 0 72.166 5.5 98.499 16.5
s47.833 24.167 64.5 39.5s29.5 31.333 38.5 48s15.5 31 19.5 43h186z" />
    <glyph glyph-name="Edotaccent" unicode="&#x116;" horiz-adv-x="1547" 
d="M1330 586h-821v262h821v-262zM1447 0l-938.002 0.000976562c-36 0 -75.333 6.33301 -118 19s-82.167 33.5 -118.5 62.5s-66.666 66.667 -90.999 113s-36.5 103.166 -36.5 170.499v938c0 18 3.33301 35 10 51s15.834 30 27.501 42s25.5 21.333 41.5 28s33.333 10 52 10
h1171v-260h-1042v-809c0 -34 9 -60 27 -78s44.333 -27 79 -27h936v-260zM943.998 1665c0 -18 -3.5 -34.833 -10.5 -50.5s-16.333 -29.334 -28 -41.001s-25.334 -20.834 -41.001 -27.501s-32.167 -10 -49.5 -10c-18 0 -34.833 3.33301 -50.5 10
s-29.334 15.834 -41.001 27.501s-20.834 25.334 -27.501 41.001s-10 32.5 -10 50.5c0 17.333 3.33301 33.833 10 49.5s15.834 29.334 27.501 41.001s25.334 21 41.001 28s32.5 10.5 50.5 10.5c17.333 0 33.833 -3.5 49.5 -10.5s29.334 -16.333 41.001 -28
s21 -25.334 28 -41.001s10.5 -32.167 10.5 -49.5z" />
    <glyph glyph-name="edotaccent" unicode="&#x117;" 
d="M1285 723c0 -36 -6.33203 -74.833 -18.999 -116.5s-33.167 -80.334 -61.5 -116.001s-65.333 -65.5 -111 -89.5s-101.167 -36 -166.5 -36h-469v247h469c35.333 0 62.666 10.833 81.999 32.5s29 48.5 29 80.5c0 34 -10.833 60.667 -32.5 80s-47.834 29 -78.501 29h-469
c-35.333 0 -62.666 -10.833 -81.999 -32.5s-29 -48.5 -29 -80.5v-363c0 -34.667 10.833 -61.667 32.5 -81s48.5 -29 80.5 -29h467v-248h-469c-36 0 -74.833 6.33301 -116.5 19s-80.334 33.167 -116.001 61.5s-65.5 65.333 -89.5 111s-36 101.167 -36 166.5v365
c0 36 6.33301 74.833 19 116.5s33.167 80.334 61.5 116.001s65.333 65.5 111 89.5s101.167 36 166.5 36h469c36 0 74.833 -6.33301 116.5 -19s80.334 -33.167 116.001 -61.5s65.5 -65.333 89.5 -111s36 -101.167 36 -166.5zM798.001 1315c0 -18 -3.5 -34.833 -10.5 -50.5
s-16.333 -29.334 -28 -41.001s-25.334 -20.834 -41.001 -27.501s-32.167 -10 -49.5 -10c-18 0 -34.833 3.33301 -50.5 10s-29.334 15.834 -41.001 27.501s-20.834 25.334 -27.501 41.001s-10 32.5 -10 50.5c0 17.333 3.33301 33.833 10 49.5s15.834 29.334 27.501 41.001
s25.334 21 41.001 28s32.5 10.5 50.5 10.5c17.333 0 33.833 -3.5 49.5 -10.5s29.334 -16.333 41.001 -28s21 -25.334 28 -41.001s10.5 -32.167 10.5 -49.5z" />
    <glyph glyph-name="Eogonek" unicode="&#x118;" horiz-adv-x="1547" 
d="M1447 0h-219.004c-34 -28 -60.5 -58.5 -79.5 -91.5s-28.5 -64.5 -28.5 -94.5c0 -25.333 8.5 -43 25.5 -53s44.5 -15 82.5 -15c16.667 0 35.334 1.66699 56.001 5s41 7.66602 61 12.999s39 10.833 57 16.5s33 11.167 45 16.5v-186
c-12 -3.33301 -26.5 -7.66602 -43.5 -12.999s-36.833 -10.333 -59.5 -15s-48.667 -8.66699 -78 -12s-62.333 -5 -99 -5c-36 0 -69.833 3.33301 -101.5 10s-59.167 17.334 -82.5 32.001s-41.833 34 -55.5 58s-20.5 53.333 -20.5 88c0 18 2.16699 37.833 6.5 59.5
s11.333 43.5 21 65.5s22.334 43.5 38.001 64.5s35.167 39.833 58.5 56.5h-522c-36 0 -75.333 6.33301 -118 19s-82.167 33.5 -118.5 62.5s-66.666 66.667 -90.999 113s-36.5 103.166 -36.5 170.499v938c0 18 3.33301 35 10 51s15.834 30 27.501 42s25.5 21.333 41.5 28
s33.333 10 52 10h1171v-260h-1042v-809c0 -34 9 -60 27 -78s44.333 -27 79 -27h936v-260zM1330 586h-821v262h821v-262z" />
    <glyph glyph-name="eogonek" unicode="&#x119;" 
d="M1285 723c0 -36 -6.33301 -74.834 -19 -116.501s-33.167 -80.334 -61.5 -116.001s-65.333 -65.5 -111 -89.5s-101.167 -36 -166.5 -36h-469v247h469c35.333 0 62.666 10.833 81.999 32.5s29 48.5 29 80.5c0 34 -10.833 60.667 -32.5 80s-47.834 29 -78.501 29h-469
c-35.333 0 -62.666 -10.833 -81.999 -32.5s-29 -48.5 -29 -80.5v-363c0 -34.667 10.833 -61.667 32.5 -81s48.5 -29 80.5 -29h467v-248h-78c-34 -28 -60.5 -58.5 -79.5 -91.5s-28.5 -64.5 -28.5 -94.5c0 -25.333 8.5 -43 25.5 -53s44.5 -15 82.5 -15
c16.667 0 35.334 1.66699 56.001 5s41 7.66602 61 12.999s39 10.833 57 16.5s33 11.167 45 16.5v-186c-12 -3.33301 -26.5 -7.66602 -43.5 -12.999s-36.833 -10.333 -59.5 -15s-48.667 -8.66699 -78 -12s-62.333 -5 -99 -5c-36 0 -69.833 3.33301 -101.5 10
s-59.167 17.334 -82.5 32.001s-41.833 34 -55.5 58s-20.5 53.333 -20.5 88c0 18 2.16699 37.833 6.5 59.5s11.333 43.5 21 65.5s22.5 43.5 38.5 64.5s35.667 39.833 59 56.5h-195c-36 0 -74.833 6.33301 -116.5 19s-80.334 33.167 -116.001 61.5s-65.5 65.333 -89.5 111
s-36 101.167 -36 166.5v365c0 36 6.33301 74.833 19 116.5s33.167 80.334 61.5 116.001s65.333 65.5 111 89.5s101.167 36 166.5 36h469c36 0 74.833 -6.33301 116.5 -19s80.334 -33.167 116.001 -61.5s65.5 -65.333 89.5 -111s36 -101.167 36 -166.5z" />
    <glyph glyph-name="Ecaron" unicode="&#x11a;" horiz-adv-x="1547" 
d="M1330 586h-821v262h821v-262zM1447 0l-938.002 0.000976562c-36 0 -75.333 6.33301 -118 19s-82.167 33.5 -118.5 62.5s-66.666 66.667 -90.999 113s-36.5 103.166 -36.5 170.499v938c0 18 3.33301 35 10 51s15.834 30 27.501 42s25.5 21.333 41.5 28s33.333 10 52 10
h1171v-260h-1042v-809c0 -34 9 -60 27 -78s44.333 -27 79 -27h936v-260zM466.998 1923l348 -180l348 180l121 -168l-469 -266l-469 266z" />
    <glyph glyph-name="ecaron" unicode="&#x11b;" 
d="M1285 723c0 -36 -6.33203 -74.833 -18.999 -116.5s-33.167 -80.334 -61.5 -116.001s-65.333 -65.5 -111 -89.5s-101.167 -36 -166.5 -36h-469v247h469c35.333 0 62.666 10.833 81.999 32.5s29 48.5 29 80.5c0 34 -10.833 60.667 -32.5 80s-47.834 29 -78.501 29h-469
c-35.333 0 -62.666 -10.833 -81.999 -32.5s-29 -48.5 -29 -80.5v-363c0 -34.667 10.833 -61.667 32.5 -81s48.5 -29 80.5 -29h467v-248h-469c-36 0 -74.833 6.33301 -116.5 19s-80.334 33.167 -116.001 61.5s-65.5 65.333 -89.5 111s-36 101.167 -36 166.5v365
c0 36 6.33301 74.833 19 116.5s33.167 80.334 61.5 116.001s65.333 65.5 111 89.5s101.167 36 166.5 36h469c36 0 74.833 -6.33301 116.5 -19s80.334 -33.167 116.001 -61.5s65.5 -65.333 89.5 -111s36 -101.167 36 -166.5zM321.001 1573l348 -180l348 180l121 -168
l-469 -266l-469 266z" />
    <glyph glyph-name="Gcircumflex" unicode="&#x11c;" horiz-adv-x="1686" 
d="M1566 131c0 -18.667 -3.33203 -36.001 -9.99902 -52.001s-15.834 -29.833 -27.501 -41.5s-25.5 -20.834 -41.5 -27.501s-33.333 -10 -52 -10h-938c-24 0 -49.833 2.83301 -77.5 8.5s-55 14.5 -82 26.5s-52.833 27.5 -77.5 46.5s-46.5 42 -65.5 69
s-34.167 58.333 -45.5 94s-17 75.834 -17 120.501v704c0 24 2.83301 49.833 8.5 77.5s14.5 55 26.5 82s27.667 52.833 47 77.5s42.5 46.5 69.5 65.5s58.167 34.167 93.5 45.5s75.333 17 120 17h1057v-260h-1057c-34 0 -60 -9 -78 -27s-27 -44.667 -27 -80v-702
c0 -33.333 9.16699 -59.166 27.5 -77.499s44.166 -27.5 77.499 -27.5h809v326h-692v262h821c18.667 0 36 -3.5 52 -10.5s29.833 -16.5 41.5 -28.5s20.834 -25.833 27.501 -41.5s10 -32.5 10 -50.5v-586zM1232 1509l-348 180l-348 -180l-121 168l469 266l469 -266z" />
    <glyph glyph-name="gcircumflex" unicode="&#x11d;" horiz-adv-x="1414" 
d="M1298 -104c0 -44.667 -5.66602 -84.835 -16.999 -120.502s-26.333 -67 -45 -94s-40.334 -50 -65.001 -69s-50.5 -34.5 -77.5 -46.5s-54.333 -20.833 -82 -26.5s-53.834 -8.5 -78.501 -8.5h-469v260h469c35.333 0 61.666 9 78.999 27s26 44 26 78v821
c0 34 -8.66699 59.833 -26 77.5s-43.666 26.5 -78.999 26.5h-469c-32 0 -57.333 -9.83301 -76 -29.5s-28 -44.5 -28 -74.5v-352c0 -34 9 -60 27 -78s44.333 -27 79 -27h467v-260h-469c-24.667 0 -50.667 2.83301 -78 8.5s-54.5 14.5 -81.5 26.5s-52.833 27.5 -77.5 46.5
s-46.334 42 -65.001 69s-33.667 58.333 -45 94s-17 75.834 -17 120.501v352c0 24.667 2.83301 50.667 8.5 78s14.5 54.5 26.5 81.5s27.5 52.833 46.5 77.5s42 46.334 69 65.001s58.167 33.667 93.5 45s75.333 17 120 17h469c24.667 0 50.834 -2.83301 78.501 -8.5
s55 -14.5 82 -26.5s52.833 -27.5 77.5 -46.5s46.334 -42 65.001 -69s33.667 -58.167 45 -93.5s17 -75.333 17 -120v-821zM1054 1159l-348 180l-348 -180l-121 168l469 266l469 -266z" />
    <glyph glyph-name="Gbreve" unicode="&#x11e;" horiz-adv-x="1686" 
d="M1566 131c0 -18.667 -3.33203 -36.001 -9.99902 -52.001s-15.834 -29.833 -27.501 -41.5s-25.5 -20.834 -41.5 -27.501s-33.333 -10 -52 -10h-938c-24 0 -49.833 2.83301 -77.5 8.5s-55 14.5 -82 26.5s-52.833 27.5 -77.5 46.5s-46.5 42 -65.5 69
s-34.167 58.333 -45.5 94s-17 75.834 -17 120.501v704c0 24 2.83301 49.833 8.5 77.5s14.5 55 26.5 82s27.667 52.833 47 77.5s42.5 46.5 69.5 65.5s58.167 34.167 93.5 45.5s75.333 17 120 17h1057v-260h-1057c-34 0 -60 -9 -78 -27s-27 -44.667 -27 -80v-702
c0 -33.333 9.16699 -59.166 27.5 -77.499s44.166 -27.5 77.499 -27.5h809v326h-692v262h821c18.667 0 36 -3.5 52 -10.5s29.833 -16.5 41.5 -28.5s20.834 -25.833 27.501 -41.5s10 -32.5 10 -50.5v-586zM1291 1902c-1.33301 -16.667 -4.16504 -37.5 -8.49805 -62.5
s-12.166 -51.667 -23.499 -80s-26.5 -56.666 -45.5 -84.999s-43.5 -53.833 -73.5 -76.5s-65.833 -41.167 -107.5 -55.5s-91.167 -21.5 -148.5 -21.5s-107 7.16699 -149 21.5s-77.833 32.833 -107.5 55.5s-54.167 48.167 -73.5 76.5s-34.5 56.666 -45.5 84.999s-19 55 -24 80
s-7.83301 45.833 -8.5 62.5h189c4 -12 10.167 -26.333 18.5 -43s20.666 -32.667 36.999 -48s37.666 -28.5 63.999 -39.5s59.5 -16.5 99.5 -16.5c39.333 0 72.166 5.5 98.499 16.5s47.833 24.167 64.5 39.5s29.5 31.333 38.5 48s15.5 31 19.5 43h186z" />
    <glyph glyph-name="gbreve" unicode="&#x11f;" horiz-adv-x="1414" 
d="M1298 -104c0 -44.667 -5.66602 -84.835 -16.999 -120.502s-26.333 -67 -45 -94s-40.334 -50 -65.001 -69s-50.5 -34.5 -77.5 -46.5s-54.333 -20.833 -82 -26.5s-53.834 -8.5 -78.501 -8.5h-469v260h469c35.333 0 61.666 9 78.999 27s26 44 26 78v821
c0 34 -8.66699 59.833 -26 77.5s-43.666 26.5 -78.999 26.5h-469c-32 0 -57.333 -9.83301 -76 -29.5s-28 -44.5 -28 -74.5v-352c0 -34 9 -60 27 -78s44.333 -27 79 -27h467v-260h-469c-24.667 0 -50.667 2.83301 -78 8.5s-54.5 14.5 -81.5 26.5s-52.833 27.5 -77.5 46.5
s-46.334 42 -65.001 69s-33.667 58.333 -45 94s-17 75.834 -17 120.501v352c0 24.667 2.83301 50.667 8.5 78s14.5 54.5 26.5 81.5s27.5 52.833 46.5 77.5s42 46.334 69 65.001s58.167 33.667 93.5 45s75.333 17 120 17h469c24.667 0 50.834 -2.83301 78.501 -8.5
s55 -14.5 82 -26.5s52.833 -27.5 77.5 -46.5s46.334 -42 65.001 -69s33.667 -58.167 45 -93.5s17 -75.333 17 -120v-821zM1113 1552c-1.33301 -16.667 -4.16504 -37.5 -8.49805 -62.5s-12.166 -51.667 -23.499 -80s-26.5 -56.666 -45.5 -84.999s-43.5 -53.833 -73.5 -76.5
s-65.833 -41.167 -107.5 -55.5s-91.167 -21.5 -148.5 -21.5s-107 7.16699 -149 21.5s-77.833 32.833 -107.5 55.5s-54.167 48.167 -73.5 76.5s-34.5 56.666 -45.5 84.999s-19 55 -24 80s-7.83301 45.833 -8.5 62.5h189c4 -12 10.167 -26.333 18.5 -43
s20.666 -32.667 36.999 -48s37.666 -28.5 63.999 -39.5s59.5 -16.5 99.5 -16.5c39.333 0 72.166 5.5 98.499 16.5s47.833 24.167 64.5 39.5s29.5 31.333 38.5 48s15.5 31 19.5 43h186z" />
    <glyph glyph-name="Gdotaccent" unicode="&#x120;" horiz-adv-x="1686" 
d="M1566 131c0 -18.667 -3.33203 -36.001 -9.99902 -52.001s-15.834 -29.833 -27.501 -41.5s-25.5 -20.834 -41.5 -27.501s-33.333 -10 -52 -10h-938c-24 0 -49.833 2.83301 -77.5 8.5s-55 14.5 -82 26.5s-52.833 27.5 -77.5 46.5s-46.5 42 -65.5 69
s-34.167 58.333 -45.5 94s-17 75.834 -17 120.501v704c0 24 2.83301 49.833 8.5 77.5s14.5 55 26.5 82s27.667 52.833 47 77.5s42.5 46.5 69.5 65.5s58.167 34.167 93.5 45.5s75.333 17 120 17h1057v-260h-1057c-34 0 -60 -9 -78 -27s-27 -44.667 -27 -80v-702
c0 -33.333 9.16699 -59.166 27.5 -77.499s44.166 -27.5 77.499 -27.5h809v326h-692v262h821c18.667 0 36 -3.5 52 -10.5s29.833 -16.5 41.5 -28.5s20.834 -25.833 27.501 -41.5s10 -32.5 10 -50.5v-586zM1013 1665c0 -18 -3.5 -34.833 -10.5 -50.5
s-16.333 -29.334 -28 -41.001s-25.334 -20.834 -41.001 -27.501s-32.167 -10 -49.5 -10c-18 0 -34.833 3.33301 -50.5 10s-29.334 15.834 -41.001 27.501s-20.834 25.334 -27.501 41.001s-10 32.5 -10 50.5c0 17.333 3.33301 33.833 10 49.5s15.834 29.334 27.501 41.001
s25.334 21 41.001 28s32.5 10.5 50.5 10.5c17.333 0 33.833 -3.5 49.5 -10.5s29.334 -16.333 41.001 -28s21 -25.334 28 -41.001s10.5 -32.167 10.5 -49.5z" />
    <glyph glyph-name="gdotaccent" unicode="&#x121;" horiz-adv-x="1414" 
d="M1298 -104c0 -44.667 -5.66602 -84.835 -16.999 -120.502s-26.333 -67 -45 -94s-40.334 -50 -65.001 -69s-50.5 -34.5 -77.5 -46.5s-54.333 -20.833 -82 -26.5s-53.834 -8.5 -78.501 -8.5h-469v260h469c35.333 0 61.666 9 78.999 27s26 44 26 78v821
c0 34 -8.66699 59.833 -26 77.5s-43.666 26.5 -78.999 26.5h-469c-32 0 -57.333 -9.83301 -76 -29.5s-28 -44.5 -28 -74.5v-352c0 -34 9 -60 27 -78s44.333 -27 79 -27h467v-260h-469c-24.667 0 -50.667 2.83301 -78 8.5s-54.5 14.5 -81.5 26.5s-52.833 27.5 -77.5 46.5
s-46.334 42 -65.001 69s-33.667 58.333 -45 94s-17 75.834 -17 120.501v352c0 24.667 2.83301 50.667 8.5 78s14.5 54.5 26.5 81.5s27.5 52.833 46.5 77.5s42 46.334 69 65.001s58.167 33.667 93.5 45s75.333 17 120 17h469c24.667 0 50.834 -2.83301 78.501 -8.5
s55 -14.5 82 -26.5s52.833 -27.5 77.5 -46.5s46.334 -42 65.001 -69s33.667 -58.167 45 -93.5s17 -75.333 17 -120v-821zM835.001 1315c0 -18 -3.5 -34.833 -10.5 -50.5s-16.333 -29.334 -28 -41.001s-25.334 -20.834 -41.001 -27.501s-32.167 -10 -49.5 -10
c-18 0 -34.833 3.33301 -50.5 10s-29.334 15.834 -41.001 27.501s-20.834 25.334 -27.501 41.001s-10 32.5 -10 50.5c0 17.333 3.33301 33.833 10 49.5s15.834 29.334 27.501 41.001s25.334 21 41.001 28s32.5 10.5 50.5 10.5c17.333 0 33.833 -3.5 49.5 -10.5
s29.334 -16.333 41.001 -28s21 -25.334 28 -41.001s10.5 -32.167 10.5 -49.5z" />
    <glyph glyph-name="Gcommaaccent" unicode="&#x122;" horiz-adv-x="1686" 
d="M1566 131c0 -18.667 -3.33203 -36.001 -9.99902 -52.001s-15.834 -29.833 -27.501 -41.5s-25.5 -20.834 -41.5 -27.501s-33.333 -10 -52 -10h-938c-24 0 -49.833 2.83301 -77.5 8.5s-55 14.5 -82 26.5s-52.833 27.5 -77.5 46.5s-46.5 42 -65.5 69
s-34.167 58.333 -45.5 94s-17 75.834 -17 120.501v704c0 24 2.83301 49.833 8.5 77.5s14.5 55 26.5 82s27.667 52.833 47 77.5s42.5 46.5 69.5 65.5s58.167 34.167 93.5 45.5s75.333 17 120 17h1057v-260h-1057c-34 0 -60 -9 -78 -27s-27 -44.667 -27 -80v-702
c0 -33.333 9.16699 -59.166 27.5 -77.499s44.166 -27.5 77.499 -27.5h809v326h-692v262h821c18.667 0 36 -3.5 52 -10.5s29.833 -16.5 41.5 -28.5s20.834 -25.833 27.501 -41.5s10 -32.5 10 -50.5v-586zM856.001 -582.001h-148l74 402h197z" />
    <glyph glyph-name="gcommaaccent" unicode="&#x123;" horiz-adv-x="1414" 
d="M1298 -104c0 -44.667 -5.66602 -84.835 -16.999 -120.502s-26.333 -67 -45 -94s-40.334 -50 -65.001 -69s-50.5 -34.5 -77.5 -46.5s-54.333 -20.833 -82 -26.5s-53.834 -8.5 -78.501 -8.5h-469v260h469c35.333 0 61.666 9 78.999 27s26 44 26 78v821
c0 34 -8.66699 59.833 -26 77.5s-43.666 26.5 -78.999 26.5h-469c-32 0 -57.333 -9.83301 -76 -29.5s-28 -44.5 -28 -74.5v-352c0 -34 9 -60 27 -78s44.333 -27 79 -27h467v-260h-469c-24.667 0 -50.667 2.83301 -78 8.5s-54.5 14.5 -81.5 26.5s-52.833 27.5 -77.5 46.5
s-46.334 42 -65.001 69s-33.667 58.333 -45 94s-17 75.834 -17 120.501v352c0 24.667 2.83301 50.667 8.5 78s14.5 54.5 26.5 81.5s27.5 52.833 46.5 77.5s42 46.334 69 65.001s58.167 33.667 93.5 45s75.333 17 120 17h469c24.667 0 50.834 -2.83301 78.501 -8.5
s55 -14.5 82 -26.5s52.833 -27.5 77.5 -46.5s46.334 -42 65.001 -69s33.667 -58.167 45 -93.5s17 -75.333 17 -120v-821zM696.001 1671h145l-74 -401h-196z" />
    <glyph glyph-name="Hcircumflex" unicode="&#x124;" horiz-adv-x="1739" 
d="M413 848h913v586h260v-1434h-260v586h-913v-586h-260v1434h260v-586zM1218 1509l-348 180l-348 -180l-121 168l469 266l469 -266z" />
    <glyph glyph-name="hcircumflex" unicode="&#x125;" horiz-adv-x="1440" 
d="M1324 0h-260.001v717c0 34 -8.66699 59.833 -26 77.5s-43.333 26.5 -78 26.5h-469v260h469c24.667 0 50.667 -2.83301 78 -8.5s54.5 -14.5 81.5 -26.5s52.833 -27.5 77.5 -46.5s46.334 -42 65.001 -69s33.667 -58.167 45 -93.5s17 -75.333 17 -120v-717zM385.999 0h-260
v1538h260v-1538zM1232 1159l-348 180l-348 -180l-121 168l469 266l469 -266z" />
    <glyph glyph-name="Hbar" unicode="&#x126;" horiz-adv-x="1739" 
d="M413 1184h913v250h260v-250h103v-234h-103v-950h-260v586h-913v-586h-260v950h-103v234h103v250h260v-250zM1326 848v102h-913v-102h913z" />
    <glyph glyph-name="hbar" unicode="&#x127;" horiz-adv-x="1440" 
d="M386 1438h148v-234h-148v-1204h-260v1204h-151v234h151v100h260v-100zM1324 0h-260.001v717c0 34 -8.66699 59.833 -26 77.5s-43.333 26.5 -78 26.5h-469v260h469c24.667 0 50.667 -2.83301 78 -8.5s54.5 -14.5 81.5 -26.5s52.833 -27.5 77.5 -46.5
s46.334 -42 65.001 -69s33.667 -58.167 45 -93.5s17 -75.333 17 -120v-717z" />
    <glyph glyph-name="Itilde" unicode="&#x128;" horiz-adv-x="566" 
d="M413 0h-260v1434h260v-1434zM678 1861c0 -64 -6.66797 -117.999 -20.001 -161.999s-31.333 -79.5 -54 -106.5s-49.167 -46.333 -79.5 -58s-62.5 -17.5 -96.5 -17.5c-36 0 -66.333 6.33301 -91 19s-46.667 26.5 -66 41.5l-55 41.5c-17.333 12.667 -36.666 19 -57.999 19
c-20 0 -35.833 -5 -47.5 -15s-20.5 -21.833 -26.5 -35.5s-10 -27.167 -12 -40.5s-3.33301 -23.333 -4 -30h-177c0 56.667 6.83301 106.5 20.5 149.5s32 79 55 108s49.667 50.667 80 65s62.5 21.5 96.5 21.5c31.333 0 58.5 -6.33301 81.5 -19s44.5 -26.5 64.5 -41.5
s39.5 -28.667 58.5 -41s40.5 -18.5 64.5 -18.5c20 0 35.833 5 47.5 15s20.5 21.5 26.5 34.5s10 26.167 12 39.5s3.33301 23.666 4 30.999h176z" />
    <glyph glyph-name="itilde" unicode="&#x129;" horiz-adv-x="513" 
d="M386 0h-260v1081h260v-1081zM652 1511c0 -64 -6.66797 -117.999 -20.001 -161.999s-31.333 -79.5 -54 -106.5s-49.167 -46.333 -79.5 -58s-62.5 -17.5 -96.5 -17.5c-36 0 -66.333 6.33301 -91 19s-46.667 26.5 -66 41.5l-55 41.5c-17.333 12.667 -36.666 19 -57.999 19
c-20 0 -35.833 -5 -47.5 -15s-20.5 -21.833 -26.5 -35.5s-10 -27.167 -12 -40.5s-3.33301 -23.333 -4 -30h-177c0 56.667 6.83301 106.5 20.5 149.5s32 79 55 108s49.667 50.667 80 65s62.5 21.5 96.5 21.5c31.333 0 58.5 -6.33301 81.5 -19s44.5 -26.5 64.5 -41.5
s39.5 -28.667 58.5 -41s40.5 -18.5 64.5 -18.5c20 0 35.833 5 47.5 15s20.5 21.5 26.5 34.5s10 26.167 12 39.5s3.33301 23.666 4 30.999h176z" />
    <glyph glyph-name="Imacron" unicode="&#x12a;" horiz-adv-x="566" 
d="M413 0h-260v1434h260v-1434zM-51 1550v236h672v-236h-672z" />
    <glyph glyph-name="imacron" unicode="&#x12b;" horiz-adv-x="513" 
d="M386 0h-260v1081h260v-1081zM-77 1200v236h672v-236h-672z" />
    <glyph glyph-name="Ibreve" unicode="&#x12c;" horiz-adv-x="566" 
d="M413 0h-260v1434h260v-1434zM692 1902c-1.33301 -16.667 -4.16504 -37.5 -8.49805 -62.5s-12.166 -51.667 -23.499 -80s-26.5 -56.666 -45.5 -84.999s-43.5 -53.833 -73.5 -76.5s-65.833 -41.167 -107.5 -55.5s-91.167 -21.5 -148.5 -21.5s-107 7.16699 -149 21.5
s-77.833 32.833 -107.5 55.5s-54.167 48.167 -73.5 76.5s-34.5 56.666 -45.5 84.999s-19 55 -24 80s-7.83301 45.833 -8.5 62.5h189c4 -12 10.167 -26.333 18.5 -43s20.666 -32.667 36.999 -48s37.666 -28.5 63.999 -39.5s59.5 -16.5 99.5 -16.5
c39.333 0 72.166 5.5 98.499 16.5s47.833 24.167 64.5 39.5s29.5 31.333 38.5 48s15.5 31 19.5 43h186z" />
    <glyph glyph-name="ibreve" unicode="&#x12d;" horiz-adv-x="513" 
d="M386 0h-260v1081h260v-1081zM666 1552c-1.33301 -16.667 -4.16504 -37.5 -8.49805 -62.5s-12.166 -51.667 -23.499 -80s-26.5 -56.666 -45.5 -84.999s-43.5 -53.833 -73.5 -76.5s-65.833 -41.167 -107.5 -55.5s-91.167 -21.5 -148.5 -21.5s-107 7.16699 -149 21.5
s-77.833 32.833 -107.5 55.5s-54.167 48.167 -73.5 76.5s-34.5 56.666 -45.5 84.999s-19 55 -24 80s-7.83301 45.833 -8.5 62.5h189c4 -12 10.167 -26.333 18.5 -43s20.666 -32.667 36.999 -48s37.666 -28.5 63.999 -39.5s59.5 -16.5 99.5 -16.5
c39.333 0 72.166 5.5 98.499 16.5s47.833 24.167 64.5 39.5s29.5 31.333 38.5 48s15.5 31 19.5 43h186z" />
    <glyph glyph-name="Iogonek" unicode="&#x12e;" horiz-adv-x="566" 
d="M413 0l-48.999 -0.000976562c-34 -28 -60.667 -58.5 -80 -91.5s-29 -64.5 -29 -94.5c0 -25.333 8.66699 -43 26 -53s45 -15 83 -15c16.667 0 35.167 1.66699 55.5 5s40.5 7.66602 60.5 12.999s39.167 10.833 57.5 16.5s33.5 11.167 45.5 16.5v-186
c-12 -3.33301 -26.5 -7.66602 -43.5 -12.999s-37 -10.333 -60 -15s-49.167 -8.66699 -78.5 -12s-62.333 -5 -99 -5c-36 0 -69.667 3.33301 -101 10s-58.833 17.334 -82.5 32.001s-42.334 34 -56.001 58s-20.5 53.333 -20.5 88c0 18 2.16699 37.833 6.5 59.5
s11.5 43.5 21.5 65.5s22.833 43.5 38.5 64.5s35.167 39.833 58.5 56.5h-14v1434h260v-1434z" />
    <glyph glyph-name="iogonek" unicode="&#x12f;" horiz-adv-x="513" 
d="M386 0l-45.001 -0.000976562c-34 -28 -60.5 -58.5 -79.5 -91.5s-28.5 -64.5 -28.5 -94.5c0 -25.333 8.5 -43 25.5 -53s44.5 -15 82.5 -15c16.667 0 35.334 1.66699 56.001 5s41 7.66602 61 12.999s39 10.833 57 16.5s33 11.167 45 16.5v-186
c-12 -3.33301 -26.5 -7.66602 -43.5 -12.999s-36.833 -10.333 -59.5 -15s-48.667 -8.66699 -78 -12s-62.333 -5 -99 -5c-36 0 -69.833 3.33301 -101.5 10s-59.167 17.334 -82.5 32.001s-41.833 34 -55.5 58s-20.5 53.333 -20.5 88c0 18 2.16699 37.833 6.5 59.5
s11.5 43.5 21.5 65.5s22.833 43.5 38.5 64.5s35.167 39.833 58.5 56.5h-19v1081h260v-1081zM385.999 1303h-260v235h260v-235z" />
    <glyph glyph-name="Idotaccent" unicode="&#x130;" horiz-adv-x="566" 
d="M413 0h-260v1434h260v-1434zM414 1665c0 -18 -3.5 -34.833 -10.5 -50.5s-16.333 -29.334 -28 -41.001s-25.334 -20.834 -41.001 -27.501s-32.167 -10 -49.5 -10c-18 0 -34.833 3.33301 -50.5 10s-29.334 15.834 -41.001 27.501s-20.834 25.334 -27.501 41.001
s-10 32.5 -10 50.5c0 17.333 3.33301 33.833 10 49.5s15.834 29.334 27.501 41.001s25.334 21 41.001 28s32.5 10.5 50.5 10.5c17.333 0 33.833 -3.5 49.5 -10.5s29.334 -16.333 41.001 -28s21 -25.334 28 -41.001s10.5 -32.167 10.5 -49.5z" />
    <glyph glyph-name="dotlessi" unicode="&#x131;" horiz-adv-x="513" 
d="M386 0h-260v1081h260v-1081z" />
    <glyph glyph-name="IJ" unicode="&#x132;" horiz-adv-x="2010" 
d="M413 0h-260v1434h260v-1434zM1863 365c0 -52 -8.99902 -100.331 -26.999 -144.998s-43.167 -83.334 -75.5 -116.001s-70.833 -58.167 -115.5 -76.5s-93.334 -27.5 -146.001 -27.5h-953v260h953c32 0 57 9.16699 75 27.5s27 44.166 27 77.499v1069h262v-1069z" />
    <glyph glyph-name="ij" unicode="&#x133;" horiz-adv-x="965" 
d="M386 1303h-260v235h260v-235zM386 0h-260v1081h260v-1081zM839 1303h-260v235h260v-235zM839 -104c0 -44.667 -5.66602 -84.833 -16.999 -120.5s-26.333 -67 -45 -94s-40.334 -50 -65.001 -69s-50.5 -34.5 -77.5 -46.5s-54.167 -20.833 -81.5 -26.5
s-53.333 -8.5 -78 -8.5h-469v260h469c34.667 0 60.667 9 78 27s26 44 26 78v1185h260v-1185z" />
    <glyph glyph-name="Jcircumflex" unicode="&#x134;" horiz-adv-x="1504" 
d="M1357 365c0 -52 -8.99902 -100.331 -26.999 -144.998s-43.167 -83.334 -75.5 -116.001s-70.833 -58.167 -115.5 -76.5s-93.334 -27.5 -146.001 -27.5h-953v260h953c32 0 57 9.16699 75 27.5s27 44.166 27 77.499v1069h262v-1069zM1574 1509l-348 180l-348 -180l-121 168
l469 266l469 -266z" />
    <glyph glyph-name="jcircumflex" unicode="&#x135;" horiz-adv-x="513" 
d="M386 -104c0 -44.667 -5.66602 -84.833 -16.999 -120.5s-26.333 -67 -45 -94s-40.334 -50 -65.001 -69s-50.5 -34.5 -77.5 -46.5s-54.167 -20.833 -81.5 -26.5s-53.333 -8.5 -78 -8.5h-469v260h469c34.667 0 60.667 9 78 27s26 44 26 78v1185h260v-1185zM607.001 1159
l-348 180l-348 -180l-121 168l469 266l469 -266z" />
    <glyph glyph-name="Kcommaaccent" unicode="&#x136;" horiz-adv-x="1666" 
d="M1654 0h-369l-585 586h-183v262h183l585 586h369l-737 -717zM413 0h-260v1434h260v-1434zM743 -582h-148l74 402h197z" />
    <glyph glyph-name="kcommaaccent" unicode="&#x137;" horiz-adv-x="1416" 
d="M1392 0l-374.999 0.000976562l-524 506c-29.333 26.667 -43 60 -41 100c1.33301 18.667 6.16602 36.167 14.499 52.5s19.833 30.166 34.5 41.499l475 383h416l-612 -493zM386.001 0.000976562h-260v1538h260v-1538zM639.001 -581.999h-148l74 402h197z" />
    <glyph glyph-name="kgreenlandic" unicode="&#x138;" horiz-adv-x="1416" 
d="M1392 0l-374.999 0.000976562l-524 506c-29.333 26.667 -43 60 -41 100c1.33301 18.667 6.16602 36.167 14.499 52.5s19.833 30.166 34.5 41.499l475 383h416l-612 -493zM386.001 0.000976562h-260v1538h260v-1538z" />
    <glyph glyph-name="Lacute" unicode="&#x139;" horiz-adv-x="1508" 
d="M1468 0l-1186 -0.000976562c-18.667 0 -36 3.33301 -52 10s-29.833 15.834 -41.5 27.501s-20.834 25.5 -27.501 41.5s-10 33.333 -10 52v1303h260v-1174h1057v-260zM811.001 1696l-522 -187l-69 150l481 280z" />
    <glyph glyph-name="lacute" unicode="&#x13a;" horiz-adv-x="642" 
d="M597 0l-116.001 0.000976562c-37.333 0 -77.166 6.33301 -119.499 19s-81.833 33.5 -118.5 62.5s-67 66.667 -91 113s-36 103.166 -36 170.499v1173h260v-1173c0 -32 10 -57.5 30 -76.5s45 -28.5 75 -28.5h116v-260zM783.999 1784l-522 -187l-69 150l481 280z" />
    <glyph glyph-name="Lcommaaccent" unicode="&#x13b;" horiz-adv-x="1508" 
d="M1468 0l-1186 -0.000976562c-18.667 0 -36 3.33301 -52 10s-29.833 15.834 -41.5 27.501s-20.834 25.5 -27.501 41.5s-10 33.333 -10 52v1303h260v-1174h1057v-260zM765.001 -582.001h-148l74 402h197z" />
    <glyph glyph-name="lcommaaccent" unicode="&#x13c;" horiz-adv-x="642" 
d="M597 0l-116.001 0.000976562c-37.333 0 -77.166 6.33301 -119.499 19s-81.833 33.5 -118.5 62.5s-67 66.667 -91 113s-36 103.166 -36 170.499v1173h260v-1173c0 -32 10 -57.5 30 -76.5s45 -28.5 75 -28.5h116v-260zM332.999 -581.999h-148l74 402h197z" />
    <glyph glyph-name="Lcaron" unicode="&#x13d;" horiz-adv-x="1508" 
d="M1468 0l-1186 -0.000976562c-18.667 0 -36 3.33301 -52 10s-29.833 15.834 -41.5 27.501s-20.834 25.5 -27.501 41.5s-10 33.333 -10 52v1303h260v-1174h1057v-260zM765.001 1313h-147l74 401h196z" />
    <glyph glyph-name="lcaron" unicode="&#x13e;" horiz-adv-x="971" 
d="M597 0l-116.001 0.000976562c-37.333 0 -77.166 6.33301 -119.499 19s-81.833 33.5 -118.5 62.5s-67 66.667 -91 113s-36 103.166 -36 170.499v1173h260v-1173c0 -32 10 -57.5 30 -76.5s45 -28.5 75 -28.5h116v-260zM797.999 963.001h-147l74 401h196z" />
    <glyph glyph-name="Ldot" unicode="&#x13f;" horiz-adv-x="1752" 
d="M1468 0l-1186 -0.000976562c-18.667 0 -36 3.33301 -52 10s-29.833 15.834 -41.5 27.501s-20.834 25.5 -27.501 41.5s-10 33.333 -10 52v1303h260v-1174h1057v-260zM1662 718.999c0 -18 -3.5 -34.833 -10.5 -50.5s-16.333 -29.334 -28 -41.001
s-25.334 -20.834 -41.001 -27.501s-32.167 -10 -49.5 -10c-18 0 -34.833 3.33301 -50.5 10s-29.334 15.834 -41.001 27.501s-20.834 25.334 -27.501 41.001s-10 32.5 -10 50.5c0 17.333 3.33301 33.833 10 49.5s15.834 29.334 27.501 41.001s25.334 21 41.001 28
s32.5 10.5 50.5 10.5c17.333 0 33.833 -3.5 49.5 -10.5s29.334 -16.333 41.001 -28s21 -25.334 28 -41.001s10.5 -32.167 10.5 -49.5z" />
    <glyph glyph-name="ldotaccent" unicode="&#x140;" horiz-adv-x="808" 
d="M597 0l-116.001 0.000976562c-37.333 0 -77.166 6.33301 -119.499 19s-81.833 33.5 -118.5 62.5s-67 66.667 -91 113s-36 103.166 -36 170.499v1173h260v-1173c0 -32 10 -57.5 30 -76.5s45 -28.5 75 -28.5h116v-260zM717.999 719.001c0 -18 -3.5 -34.833 -10.5 -50.5
s-16.333 -29.334 -28 -41.001s-25.334 -20.834 -41.001 -27.501s-32.167 -10 -49.5 -10c-18 0 -34.833 3.33301 -50.5 10s-29.334 15.834 -41.001 27.501s-20.834 25.334 -27.501 41.001s-10 32.5 -10 50.5c0 17.333 3.33301 33.833 10 49.5s15.834 29.334 27.501 41.001
s25.334 21 41.001 28s32.5 10.5 50.5 10.5c17.333 0 33.833 -3.5 49.5 -10.5s29.334 -16.333 41.001 -28s21 -25.334 28 -41.001s10.5 -32.167 10.5 -49.5z" />
    <glyph glyph-name="Lslash" unicode="&#x141;" horiz-adv-x="1676" 
d="M874 805l-294.999 -148.001v-397h1057v-260h-1186c-18.667 0 -36 3.33301 -52 10s-29.833 15.834 -41.5 27.501s-20.834 25.5 -27.501 41.5s-10 33.333 -10 52v395l-264 -131v275l264 131v633h260v-502l295 147v-274z" />
    <glyph glyph-name="lslash" unicode="&#x142;" horiz-adv-x="941" 
d="M876 805l-294.999 -148.001v-292c0 -32 9.83301 -57.5 29.5 -76.5s44.5 -28.5 74.5 -28.5h117v-260h-117c-24.667 0 -50.667 2.83301 -78 8.5s-54.5 14.5 -81.5 26.5s-52.833 27.5 -77.5 46.5s-46.334 42 -65.001 69s-33.667 58.333 -45 94s-17 75.834 -17 120.501v161
l-264 -131v275l264 131v737h260v-606l295 147v-274z" />
    <glyph glyph-name="Nacute" unicode="&#x143;" horiz-adv-x="1735" 
d="M1584 111c0 -18.667 -3.5 -36.001 -10.5 -52.001s-16.333 -29.833 -28 -41.5s-25.5 -20.834 -41.5 -27.501s-33 -10 -51 -10c-16 0 -32.167 3 -48.5 9s-30.833 15.667 -43.5 29l-950 992v-1010h-260v1323c0 26.667 7.5 50.834 22.5 72.501s34.167 37.834 57.5 48.501
c24.667 10 50 12.5 76 7.5s48.333 -17.167 67 -36.5l950 -991v1010h260v-1323zM1379 1696l-522 -187l-69 150l481 280z" />
    <glyph glyph-name="nacute" unicode="&#x144;" horiz-adv-x="1426" 
d="M1320 0h-260v600c0 34 -5.83301 64.5 -17.5 91.5s-27.5 50.167 -47.5 69.5s-43.5 34.166 -70.5 44.499s-56.167 15.5 -87.5 15.5h-455v-821h-260v952c0 18 3.33301 34.833 10 50.5s16 29.334 28 41.001s26 20.834 42 27.501s33 10 51 10h586
c32.667 0 67.167 -3.66699 103.5 -11s72.333 -19.166 108 -35.499s69.667 -37 102 -62s61 -55.333 86 -91s44.833 -76.834 59.5 -123.501s22 -99.334 22 -158.001v-600zM1224 1346l-522 -187l-69 150l481 280z" />
    <glyph glyph-name="Ncommaaccent" unicode="&#x145;" horiz-adv-x="1735" 
d="M1584 111c0 -18.667 -3.5 -36.001 -10.5 -52.001s-16.333 -29.833 -28 -41.5s-25.5 -20.834 -41.5 -27.501s-33 -10 -51 -10c-16 0 -32.167 3 -48.5 9s-30.833 15.667 -43.5 29l-950 992v-1010h-260v1323c0 26.667 7.5 50.834 22.5 72.501s34.167 37.834 57.5 48.501
c24.667 10 50 12.5 76 7.5s48.333 -17.167 67 -36.5l950 -991v1010h260v-1323zM880 -582.001h-148l74 402h197z" />
    <glyph glyph-name="ncommaaccent" unicode="&#x146;" horiz-adv-x="1426" 
d="M1320 0h-260v600c0 34 -5.83301 64.5 -17.5 91.5s-27.5 50.167 -47.5 69.5s-43.5 34.166 -70.5 44.499s-56.167 15.5 -87.5 15.5h-455v-821h-260v952c0 18 3.33301 34.833 10 50.5s16 29.334 28 41.001s26 20.834 42 27.501s33 10 51 10h586
c32.667 0 67.167 -3.66699 103.5 -11s72.333 -19.166 108 -35.499s69.667 -37 102 -62s61 -55.333 86 -91s44.833 -76.834 59.5 -123.501s22 -99.334 22 -158.001v-600zM725 -582h-148l74 402h197z" />
    <glyph glyph-name="Ncaron" unicode="&#x147;" horiz-adv-x="1735" 
d="M1584 111c0 -18.667 -3.5 -36.001 -10.5 -52.001s-16.333 -29.833 -28 -41.5s-25.5 -20.834 -41.5 -27.501s-33 -10 -51 -10c-16 0 -32.167 3 -48.5 9s-30.833 15.667 -43.5 29l-950 992v-1010h-260v1323c0 26.667 7.5 50.834 22.5 72.501s34.167 37.834 57.5 48.501
c24.667 10 50 12.5 76 7.5s48.333 -17.167 67 -36.5l950 -991v1010h260v-1323zM520 1923l348 -180l348 180l121 -168l-469 -266l-469 266z" />
    <glyph glyph-name="ncaron" unicode="&#x148;" horiz-adv-x="1426" 
d="M1320 0h-260v600c0 34 -5.83301 64.5 -17.5 91.5s-27.5 50.167 -47.5 69.5s-43.5 34.166 -70.5 44.499s-56.167 15.5 -87.5 15.5h-455v-821h-260v952c0 18 3.33301 34.833 10 50.5s16 29.334 28 41.001s26 20.834 42 27.501s33 10 51 10h586
c32.667 0 67.167 -3.66699 103.5 -11s72.333 -19.166 108 -35.499s69.667 -37 102 -62s61 -55.333 86 -91s44.833 -76.834 59.5 -123.501s22 -99.334 22 -158.001v-600zM364 1573l348 -180l348 180l121 -168l-469 -266l-469 266z" />
    <glyph glyph-name="napostrophe" unicode="&#x149;" horiz-adv-x="1643" 
d="M216 963h-147l74 401h196zM1537 0h-260v600c0 34 -5.83301 64.5 -17.5 91.5s-27.5 50.167 -47.5 69.5s-43.5 34.166 -70.5 44.499s-56.167 15.5 -87.5 15.5h-455v-821h-260v952c0 18 3.33301 34.833 10 50.5s16 29.334 28 41.001s26 20.834 42 27.501s33 10 51 10h586
c32.667 0 67.167 -3.66699 103.5 -11s72.333 -19.166 108 -35.499s69.667 -37 102 -62s61 -55.333 86 -91s44.833 -76.834 59.5 -123.501s22 -99.334 22 -158.001v-600z" />
    <glyph glyph-name="Eng" unicode="&#x14a;" horiz-adv-x="1735" 
d="M1584 -217c0 -52 -8.99902 -100.333 -26.999 -145s-43.167 -83.334 -75.5 -116.001s-70.833 -58.167 -115.5 -76.5s-93.334 -27.5 -146.001 -27.5h-952v260h952c32 0 57 9.16699 75 27.5s27 44.166 27 77.499v276l-911 951v-1010h-260v1323
c0 26.667 7.5 50.834 22.5 72.501s34.167 37.834 57.5 48.501c24.667 10 50 12.5 76 7.5s48.333 -17.167 67 -36.5l948 -989l2 1008h260v-1651z" />
    <glyph glyph-name="eng" unicode="&#x14b;" horiz-adv-x="1426" 
d="M1316 -217c0 -44.667 -5.66602 -84.667 -16.999 -120s-26.333 -66.5 -45 -93.5s-40.334 -50.167 -65.001 -69.5s-50.5 -35 -77.5 -47s-54.167 -20.833 -81.5 -26.5s-53.333 -8.5 -78 -8.5h-469v260h469c34.667 0 60.667 9 78 27s26 44 26 78l4 817
c0 34 -5.83301 64.5 -17.5 91.5s-27.5 50.167 -47.5 69.5s-43.5 34.166 -70.5 44.499s-56.167 15.5 -87.5 15.5h-455v-821h-260v952c0 18 3.33301 34.833 10 50.5s16 29.334 28 41.001s26 20.834 42 27.501s33 10 51 10h586c32.667 0 67.167 -3.66699 103.5 -11
s72.333 -19.166 108 -35.499s69.667 -37 102 -62s61 -55.333 86 -91s44.833 -76.834 59.5 -123.501s22 -99.334 22 -158.001z" />
    <glyph glyph-name="Omacron" unicode="&#x14c;" horiz-adv-x="1762" 
d="M1656 580c0 -87.333 -15 -167.666 -45 -240.999s-71.667 -136.666 -125 -189.999s-116.5 -94.833 -189.5 -124.5s-152.5 -44.5 -238.5 -44.5h-352c-86 0 -165.667 14.833 -239 44.5s-136.666 71.167 -189.999 124.5s-95.166 116.666 -125.499 189.999
s-45.5 153.666 -45.5 240.999v274c0 86.667 15.167 166.834 45.5 240.501s72.166 137 125.499 190s116.666 94.5 189.999 124.5s153 45 239 45h352c86 0 165.5 -15 238.5 -45s136.167 -71.5 189.5 -124.5s95 -116.333 125 -190s45 -153.834 45 -240.501v-274zM1396 854
c0 51.333 -8.16699 97.833 -24.5 139.5s-39.333 77.334 -69 107.001s-65.334 52.667 -107.001 69s-87.5 24.5 -137.5 24.5h-352c-50.667 0 -96.834 -8.16699 -138.501 -24.5s-77.5 -39.333 -107.5 -69s-53.167 -65.334 -69.5 -107.001s-24.5 -88.167 -24.5 -139.5v-274
c0 -51.333 8.16699 -97.833 24.5 -139.5s39.5 -77.334 69.5 -107.001s65.833 -52.667 107.5 -69s87.834 -24.5 138.501 -24.5h350c50.667 0 96.834 8.16699 138.501 24.5s77.5 39.333 107.5 69s53.167 65.334 69.5 107.001s24.5 88.167 24.5 139.5v274zM544 1550v236h672
v-236h-672z" />
    <glyph glyph-name="omacron" unicode="&#x14d;" horiz-adv-x="1397" 
d="M1298 365c0 -44.667 -5.66699 -84.8311 -17 -120.498s-26.333 -67 -45 -94s-40.334 -50 -65.001 -69s-50.5 -34.5 -77.5 -46.5s-54.333 -20.833 -82 -26.5s-53.834 -8.5 -78.501 -8.5h-469c-36 0 -75.333 6.33301 -118 19s-82.167 33.5 -118.5 62.5
s-66.666 66.667 -90.999 113s-36.5 103.166 -36.5 170.499v352c0 66.667 12.167 123.167 36.5 169.5s54.666 84 90.999 113s75.833 49.833 118.5 62.5s82 19 118 19h469c66.667 0 123.334 -12 170.001 -36s84.334 -54.167 113.001 -90.5s49.5 -75.833 62.5 -118.5
s19.5 -82.334 19.5 -119.001v-352zM1038 715.003c0 36 -8.99902 62.667 -26.999 80s-44 26 -78 26h-467c-34.667 0 -61 -8.83301 -79 -26.5s-27 -43.5 -27 -77.5v-352c0 -34 9 -60 27 -78s44.333 -27 79 -27h467c35.333 0 61.666 9 78.999 27s26 44 26 78v350zM362.001 1200
v236h672v-236h-672z" />
    <glyph glyph-name="Obreve" unicode="&#x14e;" horiz-adv-x="1762" 
d="M1656 580c0 -87.333 -15 -167.666 -45 -240.999s-71.667 -136.666 -125 -189.999s-116.5 -94.833 -189.5 -124.5s-152.5 -44.5 -238.5 -44.5h-352c-86 0 -165.667 14.833 -239 44.5s-136.666 71.167 -189.999 124.5s-95.166 116.666 -125.499 189.999
s-45.5 153.666 -45.5 240.999v274c0 86.667 15.167 166.834 45.5 240.501s72.166 137 125.499 190s116.666 94.5 189.999 124.5s153 45 239 45h352c86 0 165.5 -15 238.5 -45s136.167 -71.5 189.5 -124.5s95 -116.333 125 -190s45 -153.834 45 -240.501v-274zM1396 854
c0 51.333 -8.16699 97.833 -24.5 139.5s-39.333 77.334 -69 107.001s-65.334 52.667 -107.001 69s-87.5 24.5 -137.5 24.5h-352c-50.667 0 -96.834 -8.16699 -138.501 -24.5s-77.5 -39.333 -107.5 -69s-53.167 -65.334 -69.5 -107.001s-24.5 -88.167 -24.5 -139.5v-274
c0 -51.333 8.16699 -97.833 24.5 -139.5s39.5 -77.334 69.5 -107.001s65.833 -52.667 107.5 -69s87.834 -24.5 138.501 -24.5h350c50.667 0 96.834 8.16699 138.501 24.5s77.5 39.333 107.5 69s53.167 65.334 69.5 107.001s24.5 88.167 24.5 139.5v274zM1287 1902
c-1.33301 -16.667 -4.16504 -37.5 -8.49805 -62.5s-12.166 -51.667 -23.499 -80s-26.5 -56.666 -45.5 -84.999s-43.5 -53.833 -73.5 -76.5s-65.833 -41.167 -107.5 -55.5s-91.167 -21.5 -148.5 -21.5s-107 7.16699 -149 21.5s-77.833 32.833 -107.5 55.5
s-54.167 48.167 -73.5 76.5s-34.5 56.666 -45.5 84.999s-19 55 -24 80s-7.83301 45.833 -8.5 62.5h189c4 -12 10.167 -26.333 18.5 -43s20.666 -32.667 36.999 -48s37.666 -28.5 63.999 -39.5s59.5 -16.5 99.5 -16.5c39.333 0 72.166 5.5 98.499 16.5
s47.833 24.167 64.5 39.5s29.5 31.333 38.5 48s15.5 31 19.5 43h186z" />
    <glyph glyph-name="obreve" unicode="&#x14f;" horiz-adv-x="1397" 
d="M1298 365c0 -44.667 -5.66699 -84.8311 -17 -120.498s-26.333 -67 -45 -94s-40.334 -50 -65.001 -69s-50.5 -34.5 -77.5 -46.5s-54.333 -20.833 -82 -26.5s-53.834 -8.5 -78.501 -8.5h-469c-36 0 -75.333 6.33301 -118 19s-82.167 33.5 -118.5 62.5
s-66.666 66.667 -90.999 113s-36.5 103.166 -36.5 170.499v352c0 66.667 12.167 123.167 36.5 169.5s54.666 84 90.999 113s75.833 49.833 118.5 62.5s82 19 118 19h469c66.667 0 123.334 -12 170.001 -36s84.334 -54.167 113.001 -90.5s49.5 -75.833 62.5 -118.5
s19.5 -82.334 19.5 -119.001v-352zM1038 715.003c0 36 -8.99902 62.667 -26.999 80s-44 26 -78 26h-467c-34.667 0 -61 -8.83301 -79 -26.5s-27 -43.5 -27 -77.5v-352c0 -34 9 -60 27 -78s44.333 -27 79 -27h467c35.333 0 61.666 9 78.999 27s26 44 26 78v350zM1105 1552
c-1.33301 -16.667 -4.16504 -37.5 -8.49805 -62.5s-12.166 -51.667 -23.499 -80s-26.5 -56.666 -45.5 -84.999s-43.5 -53.833 -73.5 -76.5s-65.833 -41.167 -107.5 -55.5s-91.167 -21.5 -148.5 -21.5s-107 7.16699 -149 21.5s-77.833 32.833 -107.5 55.5
s-54.167 48.167 -73.5 76.5s-34.5 56.666 -45.5 84.999s-19 55 -24 80s-7.83301 45.833 -8.5 62.5h189c4 -12 10.167 -26.333 18.5 -43s20.666 -32.667 36.999 -48s37.666 -28.5 63.999 -39.5s59.5 -16.5 99.5 -16.5c39.333 0 72.166 5.5 98.499 16.5
s47.833 24.167 64.5 39.5s29.5 31.333 38.5 48s15.5 31 19.5 43h186z" />
    <glyph glyph-name="Ohungarumlaut" unicode="&#x150;" horiz-adv-x="1762" 
d="M1656 580c0 -87.333 -15 -167.666 -45 -240.999s-71.667 -136.666 -125 -189.999s-116.5 -94.833 -189.5 -124.5s-152.5 -44.5 -238.5 -44.5h-352c-86 0 -165.667 14.833 -239 44.5s-136.666 71.167 -189.999 124.5s-95.166 116.666 -125.499 189.999
s-45.5 153.666 -45.5 240.999v274c0 86.667 15.167 166.834 45.5 240.501s72.166 137 125.499 190s116.666 94.5 189.999 124.5s153 45 239 45h352c86 0 165.5 -15 238.5 -45s136.167 -71.5 189.5 -124.5s95 -116.333 125 -190s45 -153.834 45 -240.501v-274zM1396 854
c0 51.333 -8.16699 97.833 -24.5 139.5s-39.333 77.334 -69 107.001s-65.334 52.667 -107.001 69s-87.5 24.5 -137.5 24.5h-352c-50.667 0 -96.834 -8.16699 -138.501 -24.5s-77.5 -39.333 -107.5 -69s-53.167 -65.334 -69.5 -107.001s-24.5 -88.167 -24.5 -139.5v-274
c0 -51.333 8.16699 -97.833 24.5 -139.5s39.5 -77.334 69.5 -107.001s65.833 -52.667 107.5 -69s87.834 -24.5 138.501 -24.5h350c50.667 0 96.834 8.16699 138.501 24.5s77.5 39.333 107.5 69s53.167 65.334 69.5 107.001s24.5 88.167 24.5 139.5v274zM1046 1696l-379 -187
l-55 92l321 287zM1476 1696l-379 -187l-51 92l317 287z" />
    <glyph glyph-name="ohungarumlaut" unicode="&#x151;" horiz-adv-x="1397" 
d="M1298 365c0 -44.667 -5.66699 -84.8311 -17 -120.498s-26.333 -67 -45 -94s-40.334 -50 -65.001 -69s-50.5 -34.5 -77.5 -46.5s-54.333 -20.833 -82 -26.5s-53.834 -8.5 -78.501 -8.5h-469c-36 0 -75.333 6.33301 -118 19s-82.167 33.5 -118.5 62.5
s-66.666 66.667 -90.999 113s-36.5 103.166 -36.5 170.499v352c0 66.667 12.167 123.167 36.5 169.5s54.666 84 90.999 113s75.833 49.833 118.5 62.5s82 19 118 19h469c66.667 0 123.334 -12 170.001 -36s84.334 -54.167 113.001 -90.5s49.5 -75.833 62.5 -118.5
s19.5 -82.334 19.5 -119.001v-352zM1038 715.003c0 36 -8.99902 62.667 -26.999 80s-44 26 -78 26h-467c-34.667 0 -61 -8.83301 -79 -26.5s-27 -43.5 -27 -77.5v-352c0 -34 9 -60 27 -78s44.333 -27 79 -27h467c35.333 0 61.666 9 78.999 27s26 44 26 78v350zM864.001 1346
l-379 -187l-55 92l321 287zM1294 1346l-379 -187l-51 92l317 287z" />
    <glyph glyph-name="OE" unicode="&#x152;" horiz-adv-x="2796" 
d="M2699 0l-937.998 0.00195312c-23.333 0 -48 2.5 -74 7.5s-51.833 12.667 -77.5 23s-50.5 24 -74.5 41s-45.667 37.5 -65 61.5c-52.667 -48 -113.834 -85.5 -183.501 -112.5s-145.834 -40.5 -228.501 -40.5h-352c-86 0 -165.667 14.833 -239 44.5
s-136.666 71.167 -189.999 124.5s-95.166 116.666 -125.499 189.999s-45.5 153.666 -45.5 240.999v274c0 86.667 15.167 166.834 45.5 240.501s72.166 137 125.499 190s116.666 94.5 189.999 124.5s153 45 239 45h352c66 0 128.167 -8.83301 186.5 -26.5
s111.5 -42.834 159.5 -75.501c10.667 24.667 26.667 44.5 48 59.5s46.333 22.5 75 22.5h1172v-260h-1043v-809c0 -34 9 -60 27 -78s44.667 -27 80 -27h936v-260zM1396 854.002c0 51.333 -8.16699 97.833 -24.5 139.5s-39.333 77.334 -69 107.001s-65.334 52.667 -107.001 69
s-87.5 24.5 -137.5 24.5h-352c-50.667 0 -96.834 -8.16699 -138.501 -24.5s-77.5 -39.333 -107.5 -69s-53.167 -65.334 -69.5 -107.001s-24.5 -88.167 -24.5 -139.5v-274c0 -51.333 8.16699 -97.833 24.5 -139.5s39.5 -77.334 69.5 -107.001s65.833 -52.667 107.5 -69
s87.834 -24.5 138.501 -24.5h350c50.667 0 96.834 8.16699 138.501 24.5s77.5 39.333 107.5 69s53.167 65.334 69.5 107.001s24.5 88.167 24.5 139.5v274zM2582 586.002h-821v262h821v-262z" />
    <glyph glyph-name="oe" unicode="&#x153;" horiz-adv-x="2284" 
d="M2238 723c0 -24 -2.83398 -49.498 -8.50098 -76.498s-14.5 -53.667 -26.5 -80s-27.5 -51.666 -46.5 -75.999s-41.667 -45.833 -68 -64.5s-56.833 -33.5 -91.5 -44.5s-74 -16.5 -118 -16.5h-469v247h469c35.333 0 62.666 10.833 81.999 32.5s29 48.5 29 80.5
c0 34 -10.667 60.667 -32 80s-47.666 29 -78.999 29h-469c-34.667 0 -61.667 -10.833 -81 -32.5s-29 -48.5 -29 -80.5v-363c0 -34.667 10.667 -61.667 32 -81s48 -29 80 -29h467v-248h-469c-36.667 0 -76 6.5 -118 19.5s-81.667 34.5 -119 64.5
c-18 -14.667 -37.167 -27.334 -57.5 -38.001s-41 -19.334 -62 -26.001s-41.667 -11.667 -62 -15s-39.833 -5 -58.5 -5h-469c-36 0 -75.333 6.33301 -118 19s-82.167 33.5 -118.5 62.5s-66.666 66.667 -90.999 113s-36.5 103.166 -36.5 170.499v352
c0 66.667 12.167 123.167 36.5 169.5s54.666 84 90.999 113s75.833 49.833 118.5 62.5s82 19 118 19h469c52.667 0 98.5 -7.66699 137.5 -23s73.167 -35.666 102.5 -60.999c28.667 25.333 62.334 45.666 101.001 60.999s84 23 136 23h469c36 0 75 -6.33301 117 -19
s80.833 -33.167 116.5 -61.5s65.5 -65.333 89.5 -111s36 -101.167 36 -166.5zM1038 715.002c0 36 -8.99902 62.667 -26.999 80s-44 26 -78 26h-467c-34.667 0 -61 -8.83301 -79 -26.5s-27 -43.5 -27 -77.5v-352c0 -34 9 -60 27 -78s44.333 -27 79 -27h467
c35.333 0 61.666 9 78.999 27s26 44 26 78v350z" />
    <glyph glyph-name="Racute" unicode="&#x154;" horiz-adv-x="1694" 
d="M1584 952c0 -59.333 -7.33398 -112.336 -22.001 -159.003s-34.5 -87.834 -59.5 -123.501s-53.833 -66.167 -86.5 -91.5s-66.834 -46.166 -102.501 -62.499s-71.667 -28.166 -108 -35.499s-70.5 -11 -102.5 -11l543 -469h-402l-542 469h-187v260h588
c32.667 2.66699 62.5 9.5 89.5 20.5s50.333 25.833 70 44.5s34.834 41.167 45.501 67.5s16 56.5 16 90.5v164c0 14.667 -1.83301 25.834 -5.5 33.501s-8.33398 13.334 -14.001 17.001s-11.667 5.83398 -18 6.50098s-12.166 1 -17.499 1h-858v-1174h-260v1303
c0 18 3.33301 35 10 51s15.834 30 27.501 42s25.5 21.333 41.5 28s33.333 10 52 10h987c58 0 107 -10.5 147 -31.5s72.5 -47.333 97.5 -79s43 -65.834 54 -102.501s16.5 -71 16.5 -103v-166zM1359 1696l-522 -187l-69 150l481 280z" />
    <glyph glyph-name="racute" unicode="&#x155;" horiz-adv-x="1117" 
d="M1068 821h-585c-35.333 0 -62 -8.83301 -80 -26.5s-27 -43.5 -27 -77.5v-717h-260v717c0 44.667 5.66699 84.667 17 120s26.5 66.5 45.5 93.5s40.833 50 65.5 69s50.5 34.5 77.5 46.5s54.333 20.833 82 26.5s53.5 8.5 77.5 8.5h587v-260zM1125 1346l-522 -187l-69 150
l481 280z" />
    <glyph glyph-name="Rcommaaccent" unicode="&#x156;" horiz-adv-x="1694" 
d="M1584 952c0 -59.333 -7.33398 -112.336 -22.001 -159.003s-34.5 -87.834 -59.5 -123.501s-53.833 -66.167 -86.5 -91.5s-66.834 -46.166 -102.501 -62.499s-71.667 -28.166 -108 -35.499s-70.5 -11 -102.5 -11l543 -469h-402l-542 469h-187v260h588
c32.667 2.66699 62.5 9.5 89.5 20.5s50.333 25.833 70 44.5s34.834 41.167 45.501 67.5s16 56.5 16 90.5v164c0 14.667 -1.83301 25.834 -5.5 33.501s-8.33398 13.334 -14.001 17.001s-11.667 5.83398 -18 6.50098s-12.166 1 -17.499 1h-858v-1174h-260v1303
c0 18 3.33301 35 10 51s15.834 30 27.501 42s25.5 21.333 41.5 28s33.333 10 52 10h987c58 0 107 -10.5 147 -31.5s72.5 -47.333 97.5 -79s43 -65.834 54 -102.501s16.5 -71 16.5 -103v-166zM859.999 -582.003h-148l74 402h197z" />
    <glyph glyph-name="rcommaaccent" unicode="&#x157;" horiz-adv-x="1117" 
d="M1068 821h-585c-35.333 0 -62 -8.83301 -80 -26.5s-27 -43.5 -27 -77.5v-717h-260v717c0 44.667 5.66699 84.667 17 120s26.5 66.5 45.5 93.5s40.833 50 65.5 69s50.5 34.5 77.5 46.5s54.333 20.833 82 26.5s53.5 8.5 77.5 8.5h587v-260zM571 -582h-148l74 402h197z" />
    <glyph glyph-name="Rcaron" unicode="&#x158;" horiz-adv-x="1694" 
d="M1584 952c0 -59.333 -7.33398 -112.336 -22.001 -159.003s-34.5 -87.834 -59.5 -123.501s-53.833 -66.167 -86.5 -91.5s-66.834 -46.166 -102.501 -62.499s-71.667 -28.166 -108 -35.499s-70.5 -11 -102.5 -11l543 -469h-402l-542 469h-187v260h588
c32.667 2.66699 62.5 9.5 89.5 20.5s50.333 25.833 70 44.5s34.834 41.167 45.501 67.5s16 56.5 16 90.5v164c0 14.667 -1.83301 25.834 -5.5 33.501s-8.33398 13.334 -14.001 17.001s-11.667 5.83398 -18 6.50098s-12.166 1 -17.499 1h-858v-1174h-260v1303
c0 18 3.33301 35 10 51s15.834 30 27.501 42s25.5 21.333 41.5 28s33.333 10 52 10h987c58 0 107 -10.5 147 -31.5s72.5 -47.333 97.5 -79s43 -65.834 54 -102.501s16.5 -71 16.5 -103v-166zM498.999 1923l348 -180l348 180l121 -168l-469 -266l-469 266z" />
    <glyph glyph-name="rcaron" unicode="&#x159;" horiz-adv-x="1117" 
d="M1068 821h-585c-35.333 0 -62 -8.83301 -80 -26.5s-27 -43.5 -27 -77.5v-717h-260v717c0 44.667 5.66699 84.667 17 120s26.5 66.5 45.5 93.5s40.833 50 65.5 69s50.5 34.5 77.5 46.5s54.333 20.833 82 26.5s53.5 8.5 77.5 8.5h587v-260zM212 1573l348 -180l348 180
l121 -168l-469 -266l-469 266z" />
    <glyph glyph-name="Sacute" unicode="&#x15a;" horiz-adv-x="1594" 
d="M1529 422c0 -51.333 -6.49805 -97.501 -19.498 -138.501s-30.167 -77.167 -51.5 -108.5s-46.333 -58 -75 -80s-58.334 -40 -89.001 -54s-61.834 -24.333 -93.501 -31s-61.5 -10 -89.5 -10h-1003v260h1003c50 0 88.833 14.667 116.5 44s41.5 68.666 41.5 117.999
c0 24 -3.66699 46 -11 66s-17.833 37.333 -31.5 52s-30.334 26 -50.001 34s-41.5 12 -65.5 12h-598c-42 0 -87.333 7.5 -136 22.5s-93.834 39.167 -135.501 72.5s-76.334 77 -104.001 131s-41.5 120 -41.5 198s13.833 143.833 41.5 197.5s62.334 97.334 104.001 131.001
s86.834 58 135.501 73s94 22.5 136 22.5h885v-260h-885c-49.333 0 -87.833 -15 -115.5 -45s-41.5 -69.667 -41.5 -119c0 -50 13.833 -89.5 41.5 -118.5s66.167 -43.5 115.5 -43.5h598h2c28 -0.666992 57.667 -4.5 89 -11.5s62.5 -17.833 93.5 -32.5s60.5 -33.167 88.5 -55.5
s52.833 -49.166 74.5 -80.499s38.834 -67.333 51.501 -108s19 -86.667 19 -138zM1353 1696l-522 -187l-69 150l481 280z" />
    <glyph glyph-name="sacute" unicode="&#x15b;" horiz-adv-x="1227" 
d="M1167 365c0 -44.667 -5.66504 -84.833 -16.998 -120.5s-26.333 -67 -45 -94s-40.334 -50 -65.001 -69s-50.5 -34.5 -77.5 -46.5s-54.333 -20.833 -82 -26.5s-53.834 -8.5 -78.501 -8.5h-704v260h702c35.333 0 62 9 80 27s27 44 27 78
c-3.33301 69.333 -38.333 104 -105 104h-403c-57.333 0 -106 10 -146 30s-72.5 45 -97.5 75s-43 62.333 -54 97s-16.5 67 -16.5 97c0 58 10.333 106.833 31 146.5s46.667 71.834 78 96.501s65.333 42.5 102 53.5s71 16.5 103 16.5h639v-260h-637
c-13.333 0 -23.833 -1.5 -31.5 -4.5s-13.334 -7 -17.001 -12s-5.83398 -10.333 -6.50098 -16s-1 -11.167 -1 -16.5c0.666992 -10.667 2.66699 -19 6 -25s7.5 -10.333 12.5 -13s10.667 -4.16699 17 -4.5s12.5 -0.5 18.5 -0.5h403c66.667 0 123.334 -12 170.001 -36
s84.334 -54.167 113.001 -90.5s49.5 -75.833 62.5 -118.5s19.5 -82.334 19.5 -119.001zM1133 1346l-522 -187l-69 150l481 280z" />
    <glyph glyph-name="Scircumflex" unicode="&#x15c;" horiz-adv-x="1594" 
d="M1529 422c0 -51.333 -6.49805 -97.501 -19.498 -138.501s-30.167 -77.167 -51.5 -108.5s-46.333 -58 -75 -80s-58.334 -40 -89.001 -54s-61.834 -24.333 -93.501 -31s-61.5 -10 -89.5 -10h-1003v260h1003c50 0 88.833 14.667 116.5 44s41.5 68.666 41.5 117.999
c0 24 -3.66699 46 -11 66s-17.833 37.333 -31.5 52s-30.334 26 -50.001 34s-41.5 12 -65.5 12h-598c-42 0 -87.333 7.5 -136 22.5s-93.834 39.167 -135.501 72.5s-76.334 77 -104.001 131s-41.5 120 -41.5 198s13.833 143.833 41.5 197.5s62.334 97.334 104.001 131.001
s86.834 58 135.501 73s94 22.5 136 22.5h885v-260h-885c-49.333 0 -87.833 -15 -115.5 -45s-41.5 -69.667 -41.5 -119c0 -50 13.833 -89.5 41.5 -118.5s66.167 -43.5 115.5 -43.5h598h2c28 -0.666992 57.667 -4.5 89 -11.5s62.5 -17.833 93.5 -32.5s60.5 -33.167 88.5 -55.5
s52.833 -49.166 74.5 -80.499s38.834 -67.333 51.501 -108s19 -86.667 19 -138zM1144 1509l-348 180l-348 -180l-121 168l469 266l469 -266z" />
    <glyph glyph-name="scircumflex" unicode="&#x15d;" horiz-adv-x="1227" 
d="M1167 365c0 -44.667 -5.66504 -84.833 -16.998 -120.5s-26.333 -67 -45 -94s-40.334 -50 -65.001 -69s-50.5 -34.5 -77.5 -46.5s-54.333 -20.833 -82 -26.5s-53.834 -8.5 -78.501 -8.5h-704v260h702c35.333 0 62 9 80 27s27 44 27 78
c-3.33301 69.333 -38.333 104 -105 104h-403c-57.333 0 -106 10 -146 30s-72.5 45 -97.5 75s-43 62.333 -54 97s-16.5 67 -16.5 97c0 58 10.333 106.833 31 146.5s46.667 71.834 78 96.501s65.333 42.5 102 53.5s71 16.5 103 16.5h639v-260h-637
c-13.333 0 -23.833 -1.5 -31.5 -4.5s-13.334 -7 -17.001 -12s-5.83398 -10.333 -6.50098 -16s-1 -11.167 -1 -16.5c0.666992 -10.667 2.66699 -19 6 -25s7.5 -10.333 12.5 -13s10.667 -4.16699 17 -4.5s12.5 -0.5 18.5 -0.5h403c66.667 0 123.334 -12 170.001 -36
s84.334 -54.167 113.001 -90.5s49.5 -75.833 62.5 -118.5s19.5 -82.334 19.5 -119.001zM962.002 1159l-348 180l-348 -180l-121 168l469 266l469 -266z" />
    <glyph glyph-name="Scedilla" unicode="&#x15e;" horiz-adv-x="1594" 
d="M1529 422c0 -51.333 -6.5 -97.5029 -19.5 -138.503s-30.167 -77.167 -51.5 -108.5s-46.333 -58 -75 -80s-58.334 -40 -89.001 -54s-61.834 -24.333 -93.501 -31s-61.5 -10 -89.5 -10h-229l-27 -70c19.333 0 41.166 -2.33301 65.499 -7s47.333 -13.5 69 -26.5
s39.834 -31.167 54.501 -54.5s22 -54 22 -92s-9.5 -70 -28.5 -96s-43.667 -47 -74 -63s-64.333 -27.333 -102 -34s-75.167 -10 -112.5 -10c-34 0 -62.333 0.833008 -85 2.5s-42 3.66699 -58 6s-30.167 4.83301 -42.5 7.5s-24.833 5 -37.5 7v176
c26.667 -12.667 57.5 -23.334 92.5 -32.001s70.833 -13 107.5 -13c38 0 69.667 3.83301 95 11.5s38 20.834 38 39.501c0 10.667 -4 19.334 -12 26.001s-18 11.834 -30 15.501s-24.667 6.16699 -38 7.5s-25.333 2 -36 2c-15.333 0 -31.666 -1 -48.999 -3
s-32.666 -5 -45.999 -9l78 209h-618v260h1003c50 0 88.833 14.667 116.5 44s41.5 68.666 41.5 117.999c0 24 -3.66699 46 -11 66s-17.833 37.333 -31.5 52s-30.334 26 -50.001 34s-41.5 12 -65.5 12h-598c-42 0 -87.333 7.5 -136 22.5s-93.834 39.167 -135.501 72.5
s-76.334 77 -104.001 131s-41.5 120 -41.5 198s13.833 143.833 41.5 197.5s62.334 97.334 104.001 131.001s86.834 58 135.501 73s94 22.5 136 22.5h885v-260h-885c-49.333 0 -87.833 -15 -115.5 -45s-41.5 -69.667 -41.5 -119c0 -50 13.833 -89.5 41.5 -118.5
s66.167 -43.5 115.5 -43.5h600c28 -0.666992 57.667 -4.5 89 -11.5s62.5 -17.833 93.5 -32.5s60.5 -33.167 88.5 -55.5s52.833 -49.166 74.5 -80.499s38.834 -67.333 51.501 -108s19 -86.667 19 -138z" />
    <glyph glyph-name="scedilla" unicode="&#x15f;" horiz-adv-x="1227" 
d="M1167 365c0 -44.667 -5.66504 -84.835 -16.998 -120.502s-26.333 -67 -45 -94s-40.334 -50 -65.001 -69s-50.5 -34.5 -77.5 -46.5s-54.333 -20.833 -82 -26.5s-53.834 -8.5 -78.501 -8.5h-102l-27 -70c19.333 0 41.166 -2.33301 65.499 -7s47.333 -13.5 69 -26.5
s39.834 -31.167 54.501 -54.5s22 -54 22 -92s-9.5 -70 -28.5 -96s-43.667 -47 -74 -63s-64.333 -27.333 -102 -34s-75.167 -10 -112.5 -10c-34 0 -62.333 0.833008 -85 2.5s-42.167 3.66699 -58.5 6s-30.666 4.83301 -42.999 7.5s-24.833 5 -37.5 7v176
c27.333 -12.667 58.333 -23.334 93 -32.001s70.667 -13 108 -13c38 0 69.667 3.83301 95 11.5s38 20.834 38 39.501c0 10.667 -4 19.334 -12 26.001s-18 11.834 -30 15.501s-24.833 6.16699 -38.5 7.5s-25.834 2 -36.501 2c-15.333 0 -31.5 -1 -48.5 -3s-32.167 -5 -45.5 -9
l78 209h-446v260h702c35.333 0 62 9 80 27s27 44 27 78c-3.33301 69.333 -38.333 104 -105 104h-403c-57.333 0 -106 10 -146 30s-72.5 45 -97.5 75s-43 62.333 -54 97s-16.5 67 -16.5 97c0 58 10.333 106.833 31 146.5s46.667 71.834 78 96.501s65.333 42.5 102 53.5
s71 16.5 103 16.5h639v-260h-637c-13.333 0 -23.833 -1.5 -31.5 -4.5s-13.334 -7 -17.001 -12s-5.83398 -10.333 -6.50098 -16s-1 -11.167 -1 -16.5c0.666992 -10.667 2.66699 -19 6 -25s7.5 -10.333 12.5 -13s10.667 -4.16699 17 -4.5s12.5 -0.5 18.5 -0.5h403
c66.667 0 123.334 -12 170.001 -36s84.334 -54.167 113.001 -90.5s49.5 -75.833 62.5 -118.5s19.5 -82.334 19.5 -119.001z" />
    <glyph glyph-name="Scaron" unicode="&#x160;" horiz-adv-x="1594" 
d="M1529 422c0 -51.333 -6.49805 -97.501 -19.498 -138.501s-30.167 -77.167 -51.5 -108.5s-46.333 -58 -75 -80s-58.334 -40 -89.001 -54s-61.834 -24.333 -93.501 -31s-61.5 -10 -89.5 -10h-1003v260h1003c50 0 88.833 14.667 116.5 44s41.5 68.666 41.5 117.999
c0 24 -3.66699 46 -11 66s-17.833 37.333 -31.5 52s-30.334 26 -50.001 34s-41.5 12 -65.5 12h-598c-42 0 -87.333 7.5 -136 22.5s-93.834 39.167 -135.501 72.5s-76.334 77 -104.001 131s-41.5 120 -41.5 198s13.833 143.833 41.5 197.5s62.334 97.334 104.001 131.001
s86.834 58 135.501 73s94 22.5 136 22.5h885v-260h-885c-49.333 0 -87.833 -15 -115.5 -45s-41.5 -69.667 -41.5 -119c0 -50 13.833 -89.5 41.5 -118.5s66.167 -43.5 115.5 -43.5h598h2c28 -0.666992 57.667 -4.5 89 -11.5s62.5 -17.833 93.5 -32.5s60.5 -33.167 88.5 -55.5
s52.833 -49.166 74.5 -80.499s38.834 -67.333 51.501 -108s19 -86.667 19 -138zM465.002 1983l348 -180l348 180l121 -168l-469 -266l-469 266z" />
    <glyph glyph-name="scaron" unicode="&#x161;" horiz-adv-x="1227" 
d="M1167 365c0 -44.667 -5.66504 -84.833 -16.998 -120.5s-26.333 -67 -45 -94s-40.334 -50 -65.001 -69s-50.5 -34.5 -77.5 -46.5s-54.333 -20.833 -82 -26.5s-53.834 -8.5 -78.501 -8.5h-704v260h702c35.333 0 62 9 80 27s27 44 27 78
c-3.33301 69.333 -38.333 104 -105 104h-403c-57.333 0 -106 10 -146 30s-72.5 45 -97.5 75s-43 62.333 -54 97s-16.5 67 -16.5 97c0 58 10.333 106.833 31 146.5s46.667 71.834 78 96.501s65.333 42.5 102 53.5s71 16.5 103 16.5h639v-260h-637
c-13.333 0 -23.833 -1.5 -31.5 -4.5s-13.334 -7 -17.001 -12s-5.83398 -10.333 -6.50098 -16s-1 -11.167 -1 -16.5c0.666992 -10.667 2.66699 -19 6 -25s7.5 -10.333 12.5 -13s10.667 -4.16699 17 -4.5s12.5 -0.5 18.5 -0.5h403c66.667 0 123.334 -12 170.001 -36
s84.334 -54.167 113.001 -90.5s49.5 -75.833 62.5 -118.5s19.5 -82.334 19.5 -119.001zM278.002 1614l348 -180l348 180l121 -168l-469 -266l-469 266z" />
    <glyph glyph-name="Tcommaaccent" unicode="&#x162;" horiz-adv-x="1487" 
d="M1447 1174h-573v-1174h-260v1174h-574v260h1407v-260zM714 -582h-148l74 402h197z" />
    <glyph glyph-name="tcommaaccent" unicode="&#x163;" horiz-adv-x="1154" 
d="M1105 821h-454v-821h-263v821h-338v260h338v353h263v-353h454v-260zM491 -582h-148l74 402h197z" />
    <glyph glyph-name="Tcaron" unicode="&#x164;" horiz-adv-x="1487" 
d="M1447 1174h-573v-1174h-260v1174h-574v260h1407v-260zM395 1923l348 -180l348 180l121 -168l-469 -266l-469 266z" />
    <glyph glyph-name="tcaron" unicode="&#x165;" horiz-adv-x="1483" 
d="M1105 821h-454v-821h-263v821h-338v260h338v353h263v-353h454v-260zM1310 963h-147l74 401h196z" />
    <glyph glyph-name="Tbar" unicode="&#x166;" horiz-adv-x="1487" 
d="M1152 500h-278v-500h-260v500h-281v233h281v441h-574v260h1407v-260h-573v-441h278v-233z" />
    <glyph glyph-name="tbar" unicode="&#x167;" horiz-adv-x="1154" 
d="M939 498h-288v-498h-263v498h-268v233h268v90h-338v260h338v353h263v-353h454v-260h-454v-90h288v-233z" />
    <glyph glyph-name="Utilde" unicode="&#x168;" horiz-adv-x="1707" 
d="M1556 131c0 -18.667 -3.33203 -36.001 -9.99902 -52.001s-16 -29.833 -28 -41.5s-26 -20.834 -42 -27.501s-33 -10 -51 -10h-586c-55.333 0 -111.333 6 -168 18s-111.5 30.5 -164.5 55.5s-102.833 56.833 -149.5 95.5s-87.5 84.5 -122.5 137.5s-62.5 113.667 -82.5 182
s-30 144.5 -30 228.5v717h260v-717c0 -73.333 10.167 -135.333 30.5 -186s46.166 -93 77.499 -127s65.666 -60.667 102.999 -80s72.833 -33.666 106.5 -42.999s63.334 -15.166 89.001 -17.499s42.5 -3.5 50.5 -3.5h457v1174h260v-1303zM1247 1861
c0 -64 -6.66797 -117.999 -20.001 -161.999s-31.333 -79.5 -54 -106.5s-49.167 -46.333 -79.5 -58s-62.5 -17.5 -96.5 -17.5c-36 0 -66.333 6.33301 -91 19s-46.667 26.5 -66 41.5l-55 41.5c-17.333 12.667 -36.666 19 -57.999 19c-20 0 -35.833 -5 -47.5 -15
s-20.5 -21.833 -26.5 -35.5s-10 -27.167 -12 -40.5s-3.33301 -23.333 -4 -30h-177c0 56.667 6.83301 106.5 20.5 149.5s32 79 55 108s49.667 50.667 80 65s62.5 21.5 96.5 21.5c31.333 0 58.5 -6.33301 81.5 -19s44.5 -26.5 64.5 -41.5s39.5 -28.667 58.5 -41
s40.5 -18.5 64.5 -18.5c20 0 35.833 5 47.5 15s20.5 21.5 26.5 34.5s10 26.167 12 39.5s3.33301 23.666 4 30.999h176z" />
    <glyph glyph-name="utilde" unicode="&#x169;" horiz-adv-x="1426" 
d="M1304 131c0 -18.667 -3.33203 -36.001 -9.99902 -52.001s-15.834 -29.833 -27.501 -41.5s-25.334 -20.834 -41.001 -27.501s-32.5 -10 -50.5 -10h-588c-32 0 -66.167 3.66699 -102.5 11s-72.166 19.166 -107.499 35.499s-69.5 37 -102.5 62s-61.833 55.333 -86.5 91
s-44.5 76.834 -59.5 123.501s-22.5 99.334 -22.5 158.001v600h260v-600c0 -34 5.83301 -64.5 17.5 -91.5s27.5 -50.167 47.5 -69.5s43.5 -34.166 70.5 -44.499s56.167 -15.5 87.5 -15.5h455v821h260v-950zM1105 1511c0 -64 -6.66797 -117.999 -20.001 -161.999
s-31.333 -79.5 -54 -106.5s-49.167 -46.333 -79.5 -58s-62.5 -17.5 -96.5 -17.5c-36 0 -66.333 6.33301 -91 19s-46.667 26.5 -66 41.5l-55 41.5c-17.333 12.667 -36.666 19 -57.999 19c-20 0 -35.833 -5 -47.5 -15s-20.5 -21.833 -26.5 -35.5s-10 -27.167 -12 -40.5
s-3.33301 -23.333 -4 -30h-177c0 56.667 6.83301 106.5 20.5 149.5s32 79 55 108s49.667 50.667 80 65s62.5 21.5 96.5 21.5c31.333 0 58.5 -6.33301 81.5 -19s44.5 -26.5 64.5 -41.5s39.5 -28.667 58.5 -41s40.5 -18.5 64.5 -18.5c20 0 35.833 5 47.5 15
s20.5 21.5 26.5 34.5s10 26.167 12 39.5s3.33301 23.666 4 30.999h176z" />
    </font>
</defs>
</svg>
