<?xml version="1.0" standalone="no"?>
<!DOCTYPE svg PUBLIC "-//W3C//DTD SVG 20010904//EN"
 "http://www.w3.org/TR/2001/REC-SVG-20010904/DTD/svg10.dtd">
<svg version="1.0" xmlns="http://www.w3.org/2000/svg"
 width="260.000000pt" height="260.000000pt" viewBox="0 0 260.000000 260.000000"
 preserveAspectRatio="xMidYMid meet">
<metadata>
Created by potrace 1.11, written by Peter Selinger 2001-2013
</metadata>
<g transform="translate(0.000000,260.000000) scale(0.100000,-0.100000)"
fill="#000000" stroke="none">
<path d="M515 1854 c-159 -42 -282 -140 -351 -279 -57 -115 -63 -161 -64 -512
l-1 -313 101 0 c73 0 100 3 101 13 0 6 1 68 2 137 l2 125 355 0 355 0 2 -105
c1 -58 2 -120 2 -137 l1 -33 100 0 100 0 0 528 c0 576 2 551 -57 581 -33 17
-581 12 -648 -5z m505 -405 l0 -219 -358 0 -359 0 2 73 c1 39 6 88 10 107 18
83 84 171 157 209 79 40 132 48 346 48 l202 1 0 -219z"/>
<path d="M1648 1855 c-170 -47 -265 -217 -223 -400 22 -94 78 -166 163 -209
72 -36 95 -38 383 -38 292 -1 310 -4 342 -57 21 -37 22 -105 1 -140 -33 -56
-26 -55 -464 -57 -223 -1 -410 -3 -415 -3 -7 -1 -10 -38 -10 -98 l0 -98 435 0
435 0 56 27 c30 15 72 44 92 64 125 126 122 353 -6 471 -95 87 -124 94 -451
94 -202 1 -279 4 -303 14 -79 33 -85 175 -9 226 17 11 89 14 384 15 199 1 365
4 367 6 6 6 8 50 6 136 l-1 62 -367 -1 c-267 -1 -381 -4 -415 -14z"/>
</g>
</svg>
